<?xml version="1.0" encoding="iso-8859-1"?>
<!-- Generator: Adobe Illustrator 19.0.0, SVG Export Plug-In . SVG Version: 6.00 Build 0)  -->
<svg version="1.1" id="Capa_1" xmlns="http://www.w3.org/2000/svg" xmlns:xlink="http://www.w3.org/1999/xlink" x="0px" y="0px"
	 viewBox="0 0 512 512" style="enable-background:new 0 0 512 512;" xml:space="preserve">
<path style="fill:#FCB043;" d="M494.932,136.533c9.426,0,17.068,7.642,17.068,17.067v307.199c0,9.426-7.642,17.067-17.068,17.067
	h-89.6H106.667h-89.6C7.641,477.867,0,470.226,0,460.8V153.601c0-9.426,7.641-17.067,17.067-17.067h477.865V136.533z"/>
<path style="fill:#F7A12F;" d="M491.396,153.601V460.8c0,9.426-7.642,17.067-17.068,17.067h20.604
	c9.426,0,17.068-7.642,17.068-17.067V153.601c0-9.426-7.642-17.067-17.068-17.067h-20.604
	C483.754,136.533,491.396,144.175,491.396,153.601z"/>
<path style="fill:#FFCE94;" d="M510.564,146.761c-2.243-5.117-6.919-8.912-12.566-9.938H14.001
	c-5.647,1.026-10.323,4.822-12.565,9.939c0.014,0.01,0.027,0.023,0.04,0.033l249.949,183.697c1.361,1,2.968,1.501,4.575,1.501
	c1.607,0,3.214-0.5,4.575-1.501l249.948-183.697C510.537,146.784,510.549,146.772,510.564,146.761z"/>
<path style="fill:#FCB043;" d="M510.523,146.795c0.014-0.01,0.027-0.023,0.041-0.034c-0.152-0.349-0.319-0.69-0.495-1.027
	c-0.109-0.21-0.226-0.416-0.343-0.621c-0.118-0.206-0.242-0.407-0.369-0.608c-0.19-0.301-0.388-0.594-0.596-0.881
	c-0.139-0.193-0.279-0.383-0.426-0.57c-0.151-0.193-0.307-0.382-0.467-0.569c-0.157-0.182-0.32-0.357-0.484-0.533
	c-0.255-0.273-0.52-0.538-0.793-0.794c-0.142-0.133-0.285-0.264-0.432-0.392c-0.198-0.173-0.396-0.345-0.601-0.509
	c-0.271-0.216-0.549-0.423-0.833-0.623c-0.228-0.16-0.463-0.311-0.698-0.459c-0.133-0.084-0.269-0.165-0.404-0.245
	c-0.431-0.255-0.874-0.491-1.328-0.709c-0.108-0.053-0.215-0.107-0.326-0.157c-0.274-0.124-0.551-0.24-0.832-0.35
	c-0.108-0.042-0.218-0.079-0.328-0.119c-0.499-0.183-1.008-0.343-1.526-0.48c-0.124-0.033-0.248-0.066-0.373-0.096
	c-0.302-0.072-0.606-0.14-0.914-0.196l0,0h-20.604c7.961,1.446,14.002,8.4,14.002,16.778v7.25L510.523,146.795z"/>
<path style="fill:#CAEBF9;" d="M113.285,443.736H40.314c-3.414,0-6.181-2.767-6.181-6.181v-72.971c0-3.414,2.767-6.181,6.181-6.181
	h72.971c3.414,0,6.181,2.767,6.181,6.181v72.971C119.466,440.969,116.698,443.736,113.285,443.736z"/>
<path style="fill:#04A1EE;" d="M87.686,418.137H65.913c-3.414,0-6.181-2.767-6.181-6.181v-21.773c0-3.414,2.767-6.181,6.181-6.181
	h21.773c3.414,0,6.181,2.767,6.181,6.181v21.773C93.867,415.37,91.1,418.137,87.686,418.137z"/>
<g>
	<path style="fill:#3B4F66;" d="M204.799,367.742h-51.2c-4.267,0-7.726,3.459-7.726,7.726c0,4.267,3.459,7.726,7.726,7.726h51.2
		c4.267,0,7.726-3.459,7.726-7.726C212.525,371.201,209.066,367.742,204.799,367.742z"/>
	<path style="fill:#3B4F66;" d="M204.799,401.879h-51.198c-4.267,0-7.726,3.459-7.726,7.726s3.459,7.726,7.726,7.726h51.198
		c4.267,0,7.726-3.459,7.726-7.726S209.066,401.879,204.799,401.879z"/>
	<path style="fill:#3B4F66;" d="M256,401.879h-25.6c-4.267,0-7.726,3.459-7.726,7.726s3.459,7.726,7.726,7.726H256
		c4.267,0,7.726-3.459,7.726-7.726S260.267,401.879,256,401.879z"/>
</g>
<circle style="fill:#E94141;" cx="256" cy="136.533" r="102.4"/>
<path style="fill:#C62525;" d="M256.001,34.139c-3.478,0-6.914,0.175-10.302,0.514c51.715,5.166,92.097,48.809,92.097,101.885
	s-40.381,96.719-92.097,101.885c3.388,0.338,6.824,0.514,10.302,0.514c56.553,0,102.399-45.845,102.399-102.398
	C358.399,79.984,312.554,34.139,256.001,34.139z"/>
<g>
	<path style="fill:#CAEBF9;" d="M282.684,73.695c-9.001-3.832-18.99-5.791-29.485-5.369c-35.305,1.418-63.992,30.103-65.408,65.408
		c-0.421,10.494,1.537,20.484,5.369,29.485c1.716,4.032,6.968,5.052,10.067,1.953l81.41-81.41
		C287.737,80.663,286.717,75.411,282.684,73.695z"/>
	<path style="fill:#CAEBF9;" d="M229.316,199.376c9.001,3.832,18.99,5.791,29.485,5.369c34.105-1.369,64.04-31.304,65.409-65.409
		c0.421-10.495-1.537-20.484-5.369-29.485c-1.717-4.032-6.968-5.052-10.067-1.953l-81.41,81.41
		C224.264,192.407,225.284,197.659,229.316,199.376z"/>
</g>
<g>
</g>
<g>
</g>
<g>
</g>
<g>
</g>
<g>
</g>
<g>
</g>
<g>
</g>
<g>
</g>
<g>
</g>
<g>
</g>
<g>
</g>
<g>
</g>
<g>
</g>
<g>
</g>
<g>
</g>
</svg>
