<?xml version="1.0" encoding="iso-8859-1"?>
<!-- Generator: Adobe Illustrator 19.0.0, SVG Export Plug-In . SVG Version: 6.00 Build 0)  -->
<svg version="1.1" id="Capa_1" xmlns="http://www.w3.org/2000/svg" xmlns:xlink="http://www.w3.org/1999/xlink" x="0px" y="0px"
	 viewBox="0 0 512 512" style="enable-background:new 0 0 512 512;" xml:space="preserve">
<path style="fill:#007BBF;" d="M511.32,353.618l-51.102-170.313l0.001,0.002c-1.95-7.279-8.593-12.639-16.488-12.639h-42.663
	H110.934H68.268c-7.894,0-14.537,5.36-16.487,12.639l0.001-0.002L0.679,353.618v18.621h510.64v-18.621H511.32z"/>
<polygon style="fill:#006AA6;" points="471.996,341.332 431.03,204.8 80.968,204.8 40.002,341.332 40.002,390.611 471.996,390.611 
	"/>
<path style="fill:#005A8C;" d="M443.732,197.074H68.267c-4.267,0-7.726,3.459-7.726,7.726c0,4.267,3.459,7.726,7.726,7.726h375.465
	c4.267,0,7.726-3.459,7.726-7.726C451.458,200.533,447.999,197.074,443.732,197.074z"/>
<path style="fill:#CAEBF9;" d="M110.934,382.539V40.313c0-3.414,2.767-6.181,6.181-6.181h207.151l76.801,76.802v271.605H110.934z"/>
<polygon style="fill:#BCCED5;" points="401.068,382.539 380.464,382.539 380.464,90.33 401.068,110.934 "/>
<path style="fill:#EDF8FC;" d="M330.447,110.934h70.62l-76.801-76.802v70.621C324.266,108.167,327.034,110.934,330.447,110.934z"/>
<g>
	<path style="fill:#3B4F66;" d="M221.868,127.193h68.265c4.267,0,7.726-3.459,7.726-7.726V85.334c0-4.267-3.459-7.726-7.726-7.726
		h-68.265c-4.267,0-7.726,3.459-7.726,7.726v34.133C214.142,123.734,217.601,127.193,221.868,127.193z M229.594,93.06h52.812v18.68
		h-52.812V93.06z"/>
	<path style="fill:#3B4F66;" d="M162.135,178.394h187.732c4.267,0,7.726-3.459,7.726-7.726c0-4.267-3.459-7.726-7.726-7.726H162.135
		c-4.267,0-7.726,3.459-7.726,7.726C154.409,174.935,157.868,178.394,162.135,178.394z"/>
	<path style="fill:#3B4F66;" d="M349.867,197.073H162.135c-4.267,0-7.726,3.459-7.726,7.726c0,4.267,3.459,7.726,7.726,7.726
		h187.732c4.267,0,7.726-3.459,7.726-7.726C357.593,200.532,354.134,197.073,349.867,197.073z"/>
	<path style="fill:#3B4F66;" d="M349.867,231.205H162.135c-4.267,0-7.726,3.459-7.726,7.726c0,4.267,3.459,7.726,7.726,7.726
		h187.732c4.267,0,7.726-3.459,7.726-7.726C357.593,234.664,354.134,231.205,349.867,231.205z"/>
	<path style="fill:#3B4F66;" d="M307.199,265.337H204.802c-4.267,0-7.726,3.459-7.726,7.726s3.459,7.726,7.726,7.726h102.397
		c4.267,0,7.726-3.459,7.726-7.726C314.925,268.795,311.466,265.337,307.199,265.337z"/>
</g>
<path style="fill:#04A1EE;" d="M361.492,341.332h133.44c9.426,0,17.068,7.642,17.068,17.068v102.396
	c0,9.426-7.642,17.068-17.068,17.068H17.067C7.642,477.864,0,470.222,0,460.796V358.4c0-9.426,7.642-17.068,17.067-17.068h133.441
	c1.946,0,3.778,0.916,4.945,2.472l21.892,29.19c1.167,1.557,2.999,2.472,4.945,2.472h147.419c1.946,0,3.778-0.916,4.945-2.472
	l21.892-29.19C357.714,342.248,359.547,341.332,361.492,341.332z"/>
<g>
	<path style="fill:#0084CE;" d="M134.85,343.804l21.892,29.19c1.167,1.557,2.999,2.472,4.945,2.472h20.604
		c-1.946,0-3.778-0.916-4.945-2.472l-21.892-29.19c-1.167-1.557-2.999-2.472-4.945-2.472h-20.604
		C131.851,341.332,133.682,342.248,134.85,343.804z"/>
	<path style="fill:#0084CE;" d="M494.932,341.332h-20.604c9.426,0,17.068,7.642,17.068,17.068v102.396
		c0,9.426-7.642,17.068-17.068,17.068h20.604c9.426,0,17.068-7.642,17.068-17.068V358.4
		C512,348.974,504.358,341.332,494.932,341.332z"/>
</g>
<path style="fill:#5ABDEE;" d="M392.534,436.004H119.466c-4.267,0-7.726,3.459-7.726,7.726c0,4.267,3.459,7.726,7.726,7.726h273.067
	c4.267,0,7.726-3.459,7.726-7.726C400.26,439.463,396.801,436.004,392.534,436.004z"/>
<g>
	<path style="fill:#CAEBF9;" d="M76.8,477.868v-45.02c0-3.414-2.767-6.181-6.181-6.181H48.848c-3.414,0-6.181,2.767-6.181,6.181
		v45.02H76.8z"/>
	<path style="fill:#CAEBF9;" d="M435.2,477.868v-45.02c0-3.414,2.767-6.181,6.181-6.181h21.772c3.414,0,6.181,2.767,6.181,6.181
		v45.02H435.2z"/>
</g>
<g>
</g>
<g>
</g>
<g>
</g>
<g>
</g>
<g>
</g>
<g>
</g>
<g>
</g>
<g>
</g>
<g>
</g>
<g>
</g>
<g>
</g>
<g>
</g>
<g>
</g>
<g>
</g>
<g>
</g>
</svg>
