<?xml version="1.0" encoding="iso-8859-1"?>
<!-- Generator: Adobe Illustrator 19.0.0, SVG Export Plug-In . SVG Version: 6.00 Build 0)  -->
<svg version="1.1" id="Capa_1" xmlns="http://www.w3.org/2000/svg" xmlns:xlink="http://www.w3.org/1999/xlink" x="0px" y="0px"
	 viewBox="0 0 512 512" style="enable-background:new 0 0 512 512;" xml:space="preserve">
<path style="fill:#007BBF;" d="M511.32,353.618l-51.102-170.313l0.001,0.002c-1.95-7.279-8.593-12.639-16.488-12.639h-42.663
	H110.934H68.268c-7.894,0-14.537,5.36-16.487,12.639l0.001-0.002L0.679,353.618v18.621H511.32V353.618z"/>
<polygon style="fill:#006AA6;" points="471.996,341.333 431.03,204.801 80.968,204.801 40.002,341.332 40.002,390.611 
	471.996,390.611 "/>
<path style="fill:#005A8C;" d="M443.732,197.074H68.267c-4.267,0-7.726,3.459-7.726,7.726c0,4.267,3.459,7.726,7.726,7.726h375.465
	c4.267,0,7.726-3.459,7.726-7.726C451.458,200.533,447.999,197.074,443.732,197.074z"/>
<path style="fill:#04A1EE;" d="M361.492,341.333h133.44c9.426,0,17.068,7.642,17.068,17.068v102.396
	c0,9.426-7.642,17.068-17.068,17.068H17.067C7.642,477.864,0,470.223,0,460.796V358.401c0-9.426,7.642-17.068,17.067-17.068h133.441
	c1.946,0,3.778,0.916,4.945,2.472l21.892,29.19c1.167,1.557,2.999,2.472,4.945,2.472h147.419c1.946,0,3.778-0.916,4.945-2.472
	l21.892-29.19C357.714,342.249,359.547,341.333,361.492,341.333z"/>
<g>
	<path style="fill:#0084CE;" d="M134.85,343.806l21.892,29.19c1.167,1.557,2.999,2.472,4.945,2.472h20.604
		c-1.946,0-3.778-0.916-4.945-2.472l-21.892-29.19c-1.167-1.557-2.999-2.472-4.945-2.472h-20.604
		C131.851,341.333,133.682,342.249,134.85,343.806z"/>
	<path style="fill:#0084CE;" d="M494.932,341.333h-20.604c9.426,0,17.068,7.642,17.068,17.068v102.396
		c0,9.426-7.642,17.068-17.068,17.068h20.604c9.426,0,17.068-7.642,17.068-17.068V358.402
		C512,348.974,504.358,341.333,494.932,341.333z"/>
</g>
<path style="fill:#5ABDEE;" d="M392.534,436.005H119.466c-4.267,0-7.726,3.459-7.726,7.726c0,4.267,3.459,7.726,7.726,7.726h273.067
	c4.267,0,7.726-3.459,7.726-7.726C400.26,439.464,396.801,436.005,392.534,436.005z"/>
<g>
	<path style="fill:#CAEBF9;" d="M76.8,477.869v-45.02c0-3.414-2.767-6.181-6.181-6.181H48.848c-3.414,0-6.181,2.767-6.181,6.181
		v45.02H76.8z"/>
	<path style="fill:#CAEBF9;" d="M435.2,477.869v-45.02c0-3.414,2.767-6.181,6.181-6.181h21.772c3.414,0,6.181,2.767,6.181,6.181
		v45.02H435.2z"/>
</g>
<circle style="fill:#54CC4E;" cx="256" cy="136.531" r="102.4"/>
<path style="fill:#2C931D;" d="M256.001,34.135c-3.477,0-6.914,0.175-10.302,0.514c51.715,5.166,92.096,48.809,92.096,101.885
	s-40.381,96.719-92.096,101.885c3.388,0.339,6.825,0.514,10.302,0.514c56.553,0,102.398-45.845,102.398-102.398
	C358.399,79.98,312.554,34.135,256.001,34.135z"/>
<path style="fill:#CAEBF9;" d="M288.313,126.348l-15.67,15.67V77.008c0-3.414-2.767-6.181-6.181-6.181h-21.771
	c-3.414,0-6.181,2.767-6.181,6.181v65.013l-15.245-15.246c-2.414-2.414-6.327-2.414-8.741,0l-15.395,15.395
	c-2.414,2.414-2.414,6.327,0,8.741l52.077,52.077c2.414,2.414,6.327,2.414,8.741,0l52.503-52.503c2.414-2.414,2.414-6.327,0-8.741
	l-15.395-15.395C294.64,123.934,290.726,123.934,288.313,126.348z"/>
<g>
</g>
<g>
</g>
<g>
</g>
<g>
</g>
<g>
</g>
<g>
</g>
<g>
</g>
<g>
</g>
<g>
</g>
<g>
</g>
<g>
</g>
<g>
</g>
<g>
</g>
<g>
</g>
<g>
</g>
</svg>
