<?xml version="1.0" encoding="iso-8859-1"?>
<!-- Generator: Adobe Illustrator 19.0.0, SVG Export Plug-In . SVG Version: 6.00 Build 0)  -->
<svg version="1.1" id="Capa_1" xmlns="http://www.w3.org/2000/svg" xmlns:xlink="http://www.w3.org/1999/xlink" x="0px" y="0px"
	 viewBox="0 0 512 512" style="enable-background:new 0 0 512 512;" xml:space="preserve">
<path style="fill:#007BBF;" d="M511.32,353.618l-51.102-170.313l0.001,0.002c-1.95-7.279-8.593-12.639-16.488-12.639h-42.663
	H110.934H68.268c-7.894,0-14.537,5.36-16.487,12.639l0.001-0.002L0.679,353.618v18.621H511.32V353.618z"/>
<polygon style="fill:#006AA6;" points="471.996,341.332 431.03,204.8 80.968,204.8 40.002,341.332 40.002,390.611 471.996,390.611 
	"/>
<path style="fill:#005A8C;" d="M443.732,197.074H68.267c-4.267,0-7.726,3.459-7.726,7.726c0,4.267,3.459,7.726,7.726,7.726h375.465
	c4.267,0,7.726-3.459,7.726-7.726C451.458,200.533,447.999,197.074,443.732,197.074z"/>
<path style="fill:#CAEBF9;" d="M366.934,78.569V40.313c0-3.414-2.767-6.181-6.181-6.181H151.248c-3.414,0-6.181,2.767-6.181,6.181
	v38.253L366.934,78.569z"/>
<path style="fill:#BCCED5;" d="M384,172.436V74.448c0-3.414-2.767-6.181-6.181-6.181H134.181c-3.414,0-6.181,2.767-6.181,6.181
	v97.988H384z"/>
<path style="fill:#CAEBF9;" d="M401.068,390.611V179.202l-76.801-76.801H117.115c-3.414,0-6.181,2.767-6.181,6.181v282.029H401.068z
	"/>
<polygon style="fill:#BCCED5;" points="401.068,390.611 380.464,390.611 380.464,158.598 401.068,179.702 "/>
<path style="fill:#EDF8FC;" d="M330.447,179.202h70.62l-76.801-76.801v70.62C324.266,176.435,327.034,179.202,330.447,179.202z"/>
<path style="fill:#04A1EE;" d="M221.867,195.461h68.266c4.268,0,7.726-3.459,7.726-7.726v-34.133c0-4.267-3.458-7.726-7.726-7.726
	h-68.266c-4.268,0-7.726,3.459-7.726,7.726v34.133C214.141,192.002,217.6,195.461,221.867,195.461z M229.593,161.328h52.813v18.68
	h-52.813V161.328z"/>
<g>
	<path style="fill:#3B4F66;" d="M162.135,246.663h187.732c4.268,0,7.726-3.459,7.726-7.726c0-4.267-3.458-7.726-7.726-7.726H162.135
		c-4.268,0-7.726,3.459-7.726,7.726C154.409,243.204,157.867,246.663,162.135,246.663z"/>
	<path style="fill:#3B4F66;" d="M349.867,265.342H162.135c-4.268,0-7.726,3.459-7.726,7.726c0,4.267,3.458,7.726,7.726,7.726
		h187.732c4.268,0,7.726-3.459,7.726-7.726C357.593,268.801,354.135,265.342,349.867,265.342z"/>
	<path style="fill:#3B4F66;" d="M349.867,299.474H162.135c-4.268,0-7.726,3.459-7.726,7.726c0,4.267,3.458,7.726,7.726,7.726
		h187.732c4.268,0,7.726-3.459,7.726-7.726C357.593,302.933,354.135,299.474,349.867,299.474z"/>
	<path style="fill:#3B4F66;" d="M307.199,333.605H204.803c-4.268,0-7.726,3.459-7.726,7.726s3.458,7.726,7.726,7.726h102.396
		c4.268,0,7.726-3.459,7.726-7.726S311.467,333.605,307.199,333.605z"/>
</g>
<path style="fill:#04A1EE;" d="M361.492,341.332h133.44c9.426,0,17.068,7.642,17.068,17.068v102.396
	c0,9.426-7.642,17.068-17.068,17.068H17.067C7.642,477.864,0,470.222,0,460.796V358.4c0-9.426,7.642-17.068,17.067-17.068h133.441
	c1.946,0,3.778,0.916,4.945,2.472l21.892,29.19c1.167,1.557,2.999,2.472,4.945,2.472h147.419c1.946,0,3.778-0.916,4.945-2.472
	l21.892-29.19C357.714,342.248,359.547,341.332,361.492,341.332z"/>
<g>
	<path style="fill:#0084CE;" d="M134.85,343.804l21.892,29.19c1.167,1.557,2.999,2.472,4.945,2.472h20.604
		c-1.946,0-3.778-0.916-4.945-2.472l-21.892-29.19c-1.167-1.557-2.999-2.472-4.945-2.472h-20.604
		C131.851,341.332,133.682,342.248,134.85,343.804z"/>
	<path style="fill:#0084CE;" d="M494.932,341.332h-20.604c9.426,0,17.068,7.642,17.068,17.068v102.396
		c0,9.426-7.642,17.068-17.068,17.068h20.604c9.426,0,17.068-7.642,17.068-17.068V358.4
		C512,348.974,504.358,341.332,494.932,341.332z"/>
</g>
<path style="fill:#5ABDEE;" d="M392.534,436.004H119.466c-4.267,0-7.726,3.459-7.726,7.726s3.459,7.726,7.726,7.726h273.067
	c4.267,0,7.726-3.459,7.726-7.726C400.26,439.463,396.801,436.004,392.534,436.004z"/>
<g>
	<path style="fill:#CAEBF9;" d="M76.8,477.868v-45.02c0-3.414-2.767-6.181-6.181-6.181H48.848c-3.414,0-6.181,2.767-6.181,6.181
		v45.02H76.8z"/>
	<path style="fill:#CAEBF9;" d="M435.2,477.868v-45.02c0-3.414,2.767-6.181,6.181-6.181h21.772c3.414,0,6.181,2.767,6.181,6.181
		v45.02H435.2z"/>
</g>
<g>
</g>
<g>
</g>
<g>
</g>
<g>
</g>
<g>
</g>
<g>
</g>
<g>
</g>
<g>
</g>
<g>
</g>
<g>
</g>
<g>
</g>
<g>
</g>
<g>
</g>
<g>
</g>
<g>
</g>
</svg>
