<?xml version="1.0" encoding="iso-8859-1"?>
<!-- Generator: Adobe Illustrator 19.0.0, SVG Export Plug-In . SVG Version: 6.00 Build 0)  -->
<svg version="1.1" id="Capa_1" xmlns="http://www.w3.org/2000/svg" xmlns:xlink="http://www.w3.org/1999/xlink" x="0px" y="0px"
	 viewBox="0 0 512 512" style="enable-background:new 0 0 512 512;" xml:space="preserve">
<path style="fill:#FCB043;" d="M494.932,140.393c9.426,0,17.068,7.642,17.068,17.068V464.66c0,9.426-7.642,17.068-17.068,17.068
	h-89.6H106.667h-89.6C7.641,481.728,0,474.086,0,464.66V157.461c0-9.426,7.641-17.068,17.067-17.068H494.932z"/>
<path style="fill:#F7A12F;" d="M491.396,157.461V464.66c0,9.426-7.642,17.068-17.068,17.068h20.604
	c9.426,0,17.068-7.642,17.068-17.068V157.461c0-9.426-7.642-17.068-17.068-17.068h-20.604
	C483.754,140.393,491.396,148.034,491.396,157.461z"/>
<path style="fill:#FFCE94;" d="M510.564,150.62c-2.243-5.117-6.919-8.912-12.566-9.938H14.001
	c-5.647,1.026-10.323,4.822-12.565,9.939c0.014,0.01,0.027,0.023,0.04,0.033l249.949,183.697c1.361,1,2.968,1.501,4.575,1.501
	c1.607,0,3.214-0.5,4.575-1.501l249.948-183.697C510.537,150.644,510.549,150.632,510.564,150.62z"/>
<path style="fill:#FCB043;" d="M510.523,150.654c0.014-0.01,0.027-0.024,0.041-0.034c-0.152-0.349-0.319-0.69-0.495-1.027
	c-0.109-0.21-0.226-0.416-0.343-0.621c-0.118-0.206-0.242-0.407-0.369-0.608c-0.19-0.301-0.388-0.594-0.596-0.881
	c-0.139-0.193-0.279-0.383-0.426-0.57c-0.151-0.193-0.307-0.382-0.467-0.569c-0.157-0.182-0.32-0.357-0.484-0.533
	c-0.255-0.273-0.52-0.538-0.793-0.794c-0.142-0.133-0.285-0.264-0.432-0.393c-0.198-0.173-0.396-0.345-0.601-0.509
	c-0.271-0.216-0.549-0.423-0.833-0.623c-0.228-0.16-0.463-0.311-0.698-0.459c-0.133-0.084-0.269-0.165-0.404-0.245
	c-0.431-0.255-0.874-0.491-1.328-0.709c-0.108-0.053-0.215-0.107-0.326-0.157c-0.274-0.124-0.551-0.24-0.832-0.35
	c-0.108-0.042-0.218-0.079-0.328-0.12c-0.499-0.182-1.008-0.343-1.526-0.48c-0.124-0.033-0.248-0.066-0.373-0.096
	c-0.302-0.072-0.606-0.14-0.914-0.196l0,0h-20.604c7.961,1.445,14.002,8.4,14.002,16.778v7.25L510.523,150.654z"/>
<path style="fill:#CAEBF9;" d="M113.285,447.596H40.314c-3.414,0-6.181-2.767-6.181-6.181v-72.971c0-3.414,2.767-6.181,6.181-6.181
	h72.971c3.414,0,6.181,2.767,6.181,6.181v72.971C119.466,444.829,116.698,447.596,113.285,447.596z"/>
<path style="fill:#04A1EE;" d="M87.686,421.997H65.913c-3.414,0-6.181-2.767-6.181-6.181v-21.773c0-3.414,2.767-6.181,6.181-6.181
	h21.773c3.414,0,6.181,2.767,6.181,6.181v21.773C93.867,419.23,91.1,421.997,87.686,421.997z"/>
<g>
	<path style="fill:#3B4F66;" d="M204.799,371.601h-51.2c-4.267,0-7.726,3.459-7.726,7.726s3.459,7.726,7.726,7.726h51.2
		c4.267,0,7.726-3.459,7.726-7.726S209.066,371.601,204.799,371.601z"/>
	<path style="fill:#3B4F66;" d="M204.799,405.738h-51.198c-4.267,0-7.726,3.459-7.726,7.726c0,4.267,3.459,7.726,7.726,7.726h51.198
		c4.267,0,7.726-3.459,7.726-7.726C212.525,409.198,209.066,405.738,204.799,405.738z"/>
	<path style="fill:#3B4F66;" d="M256,405.738h-25.6c-4.267,0-7.726,3.459-7.726,7.726c0,4.267,3.459,7.726,7.726,7.726H256
		c4.267,0,7.726-3.459,7.726-7.726C263.726,409.198,260.267,405.738,256,405.738z"/>
</g>
<path id="SVGCleanerId_0" style="fill:#618BAA;" d="M273.066,250.525c-23.081,0-41.858-18.778-41.858-41.858v-85.335
	c0-13.672,11.122-24.793,24.792-24.793c13.672,0,24.793,11.122,24.793,24.793v51.199c0,4.267-3.458,7.726-7.726,7.726
	s-7.726-3.459-7.726-7.726v-51.199c0-5.151-4.19-9.341-9.341-9.341c-5.15,0-9.34,4.19-9.34,9.341v85.335
	c0,14.561,11.845,26.406,26.406,26.406s26.407-11.846,26.407-26.406l0.001-119.468c0-23.971-19.502-43.474-43.475-43.474
	c-23.971,0-43.475,19.502-43.475,43.474v54.291c0,4.267-3.459,7.726-7.726,7.726c-4.267,0-7.726-3.459-7.726-7.726V89.199
	c0-32.492,26.434-58.926,58.927-58.926s58.927,26.434,58.927,58.926l-0.001,119.468
	C314.925,231.747,296.148,250.525,273.066,250.525z"/>
<path id="SVGCleanerId_1" style="fill:#3B4F66;" d="M197.073,119.795v23.694c0,4.267,3.459,7.726,7.726,7.726
	c4.267,0,7.726-3.459,7.726-7.726v-23.694C212.525,119.795,197.073,119.795,197.073,119.795z"/>
<g>
	<path id="SVGCleanerId_0_1_" style="fill:#618BAA;" d="M273.066,250.525c-23.081,0-41.858-18.778-41.858-41.858v-85.335
		c0-13.672,11.122-24.793,24.792-24.793c13.672,0,24.793,11.122,24.793,24.793v51.199c0,4.267-3.458,7.726-7.726,7.726
		s-7.726-3.459-7.726-7.726v-51.199c0-5.151-4.19-9.341-9.341-9.341c-5.15,0-9.34,4.19-9.34,9.341v85.335
		c0,14.561,11.845,26.406,26.406,26.406s26.407-11.846,26.407-26.406l0.001-119.468c0-23.971-19.502-43.474-43.475-43.474
		c-23.971,0-43.475,19.502-43.475,43.474v54.291c0,4.267-3.459,7.726-7.726,7.726c-4.267,0-7.726-3.459-7.726-7.726V89.199
		c0-32.492,26.434-58.926,58.927-58.926s58.927,26.434,58.927,58.926l-0.001,119.468
		C314.925,231.747,296.148,250.525,273.066,250.525z"/>
</g>
<g>
	<path id="SVGCleanerId_1_1_" style="fill:#3B4F66;" d="M197.073,119.795v23.694c0,4.267,3.459,7.726,7.726,7.726
		c4.267,0,7.726-3.459,7.726-7.726v-23.694C212.525,119.795,197.073,119.795,197.073,119.795z"/>
</g>
<path style="fill:#618BAA;" d="M273.067,182.256c4.268,0,7.726-3.459,7.726-7.726v-34.137h-15.453v34.137
	C265.341,178.797,268.8,182.256,273.067,182.256z"/>
<rect x="193.293" y="140.393" style="fill:#FFCE94;" width="23.007" height="20.573"/>
<g>
</g>
<g>
</g>
<g>
</g>
<g>
</g>
<g>
</g>
<g>
</g>
<g>
</g>
<g>
</g>
<g>
</g>
<g>
</g>
<g>
</g>
<g>
</g>
<g>
</g>
<g>
</g>
<g>
</g>
</svg>
