<?xml version="1.0" encoding="iso-8859-1"?>
<!-- Generator: Adobe Illustrator 19.0.0, SVG Export Plug-In . SVG Version: 6.00 Build 0)  -->
<svg version="1.1" id="Capa_1" xmlns="http://www.w3.org/2000/svg" xmlns:xlink="http://www.w3.org/1999/xlink" x="0px" y="0px"
	 viewBox="0 0 512 512" style="enable-background:new 0 0 512 512;" xml:space="preserve">
<polygon style="fill:#BCCED5;" points="183.465,460.797 191.999,392.533 191.999,378.593 320.001,378.593 320.001,392.533 
	328.535,460.797 328.535,477.869 183.465,477.869 "/>
<path style="fill:#3B4F66;" d="M0,358.402c0,18.85,15.282,34.132,34.132,34.132h443.735c18.85,0,34.132-15.282,34.132-34.132V51.197
	c0-18.851-15.282-34.132-34.132-34.132H34.132C15.282,17.065,0,32.347,0,51.197V358.402z"/>
<path style="fill:#2C3B4D;" d="M477.867,17.065h-20.604c18.851,0,34.133,15.282,34.133,34.132v307.205
	c0,18.85-15.282,34.132-34.133,34.132h20.604c18.851,0,34.133-15.282,34.133-34.132V51.197
	C512,32.347,496.718,17.065,477.867,17.065z"/>
<path style="fill:#CAEBF9;" d="M369.287,460.803H142.715c-3.414,0-6.181,2.767-6.181,6.181v21.77c0,3.414,2.767,6.181,6.181,6.181
	h226.572c3.414,0,6.181-2.767,6.181-6.181v-21.77C375.468,463.57,372.7,460.803,369.287,460.803z"/>
<path style="fill:#879499;" d="M273.067,434.394h-34.133c-4.268,0-7.726-3.459-7.726-7.726v-34.132c0-4.267,3.458-7.726,7.726-7.726
	s7.726,3.459,7.726,7.726v26.406h18.68v-26.406c0-4.267,3.458-7.726,7.726-7.726s7.726,3.459,7.726,7.726v34.132
	C280.793,430.935,277.335,434.394,273.067,434.394z"/>
<path style="fill:#04A1EE;" d="M34.131,318.087V57.38c0-3.414,2.767-6.181,6.181-6.181h431.375c3.414,0,6.181,2.767,6.181,6.181
	v260.706c0,3.414-2.767,6.181-6.181,6.181H40.312C36.899,324.268,34.131,321.501,34.131,318.087z"/>
<path style="fill:#CAEBF9;" d="M477.867,392.535c18.851,0,34.133-15.282,34.133-34.132V324.27H0v34.132
	c0,18.85,15.282,34.132,34.132,34.132h443.735V392.535z"/>
<circle style="fill:#3B4F66;" cx="256.002" cy="358.402" r="17.067"/>
<g>
	<path style="fill:#BCCED5;" d="M491.396,358.402c0,18.85-15.282,34.132-34.133,34.132h20.604c18.851,0,34.133-15.282,34.133-34.132
		v-34.133h-20.604V358.402z"/>
	<path style="fill:#BCCED5;" d="M369.286,460.803h-20.604c3.414,0,6.181,2.767,6.181,6.181v21.77c0,3.414-2.767,6.181-6.181,6.181
		h20.604c3.414,0,6.181-2.767,6.181-6.181v-21.77C375.467,463.57,372.7,460.803,369.286,460.803z"/>
</g>
<path style="fill:#0084CE;" d="M471.688,51.199h-20.606c3.414,0,6.181,2.767,6.181,6.181v260.707c0,3.414-2.767,6.181-6.181,6.181
	h20.606c3.414,0,6.181-2.767,6.181-6.181V57.38C477.869,53.966,475.102,51.199,471.688,51.199z"/>
<path style="fill:#FCB043;" d="M324.268,153.6h25.599c9.426,0,17.068,7.641,17.068,17.068v102.4c0,9.426-7.642,17.068-17.068,17.068
	H162.136c-9.426,0-17.068-7.642-17.068-17.068v-102.4c0-9.426,7.642-17.068,17.068-17.068h25.599L324.268,153.6L324.268,153.6z"/>
<g>
	<path style="fill:#F7A12F;" d="M346.329,170.668v102.4c0,9.426-7.642,17.068-17.068,17.068h20.605
		c9.426,0,17.067-7.642,17.067-17.068v-102.4c0-9.426-7.641-17.068-17.067-17.068h-20.605
		C338.688,153.6,346.329,161.242,346.329,170.668z"/>
	<path style="fill:#F7A12F;" d="M366.613,276.347l-88.093-70.678c-3.33-2.673-8.191-2.139-10.861,1.191
		c-2.671,3.327-2.137,8.191,1.191,10.861l88.239,70.794C361.946,286.241,365.559,281.758,366.613,276.347z"/>
	<path style="fill:#F7A12F;" d="M154.914,288.515l88.238-70.797c3.329-2.67,3.862-7.534,1.191-10.861
		c-2.67-3.327-7.533-3.863-10.861-1.191l-88.092,70.68C146.444,281.757,150.056,286.241,154.914,288.515z"/>
	<path style="fill:#F7A12F;" d="M363.287,160.145c-3.125-3.98-7.967-6.545-13.42-6.545h-25.599H187.735h-25.599
		c-5.452,0-10.296,2.566-13.42,6.545l104.206,59.949c1.908,1.098,4.257,1.098,6.165,0L363.287,160.145z"/>
</g>
<path style="fill:#CAEBF9;" d="M324.268,182.595V91.514c0-3.414-2.767-6.181-6.181-6.181H193.916c-3.414,0-6.181,2.767-6.181,6.181
	v91.079l65.184,37.5c1.908,1.098,4.257,1.098,6.165,0L324.268,182.595z"/>
<path style="fill:#04A1EE;" d="M256.002,103.207c-25.434,0-46.127,20.692-46.127,46.127c0,25.433,20.692,46.126,46.127,46.126
	c7.2,0,14.099-1.614,20.505-4.799c3.822-1.9,5.38-6.537,3.48-10.358c-1.9-3.82-6.537-5.381-10.357-3.48
	c-4.251,2.112-8.835,3.183-13.628,3.183c-16.914,0-30.674-13.76-30.674-30.673c0-16.914,13.76-30.674,30.674-30.674
	s30.674,13.76,30.674,30.674v6.4c0,1.622-1.32,2.941-2.941,2.941s-2.94-1.32-2.94-2.94l0.001-6.347c0-0.018,0.001-0.035,0.001-0.053
	s-0.001-0.035-0.001-0.053l0.001-12.748c0-4.268-3.458-7.727-7.725-7.727c-0.001,0-0.001,0-0.001,0
	c-0.897,0-1.755,0.161-2.557,0.442c-4.083-2.959-9.096-4.709-14.511-4.709c-13.672,0-24.794,11.123-24.794,24.794
	c0,13.671,11.122,24.794,24.794,24.794c5.656,0,10.872-1.908,15.048-5.108c3.304,3.155,7.767,5.108,12.685,5.108
	c10.143,0,18.394-8.252,18.394-18.394v-6.4C302.128,123.899,281.436,103.207,256.002,103.207z M256.002,158.675
	c-5.151,0-9.341-4.19-9.341-9.341s4.19-9.341,9.341-9.341c5.142,0,9.325,4.176,9.34,9.315v0.053
	C265.327,154.499,261.143,158.675,256.002,158.675z"/>
<path style="fill:#CC6319;" d="M346.292,169.922l16.995-9.777l0,0c-0.184-0.234-0.375-0.463-0.571-0.687
	c-0.064-0.073-0.131-0.143-0.196-0.215c-0.326-0.361-0.664-0.707-1.019-1.038c-0.11-0.103-0.221-0.204-0.334-0.304
	c-0.299-0.265-0.607-0.518-0.923-0.762c-0.166-0.128-0.332-0.254-0.503-0.376c-0.192-0.136-0.383-0.271-0.581-0.4
	c-0.308-0.201-0.622-0.392-0.944-0.574c-0.168-0.095-0.34-0.184-0.512-0.274c-0.333-0.172-0.67-0.338-1.014-0.488
	c-0.144-0.063-0.291-0.122-0.436-0.18c-0.356-0.144-0.718-0.277-1.086-0.398c-0.11-0.036-0.218-0.075-0.33-0.109
	c-0.445-0.135-0.898-0.25-1.357-0.349c-0.11-0.024-0.221-0.047-0.333-0.069c-0.474-0.093-0.954-0.168-1.441-0.22
	c-0.087-0.009-0.174-0.015-0.261-0.023c-0.521-0.048-1.047-0.079-1.58-0.079l0,0h-20.605
	C338.437,153.6,345.9,160.845,346.292,169.922z"/>
<g>
</g>
<g>
</g>
<g>
</g>
<g>
</g>
<g>
</g>
<g>
</g>
<g>
</g>
<g>
</g>
<g>
</g>
<g>
</g>
<g>
</g>
<g>
</g>
<g>
</g>
<g>
</g>
<g>
</g>
</svg>
