<?xml version="1.0" encoding="iso-8859-1"?>
<!-- Generator: Adobe Illustrator 19.0.0, SVG Export Plug-In . SVG Version: 6.00 Build 0)  -->
<svg version="1.1" id="Capa_1" xmlns="http://www.w3.org/2000/svg" xmlns:xlink="http://www.w3.org/1999/xlink" x="0px" y="0px"
	 viewBox="0 0 511.999 511.999" style="enable-background:new 0 0 511.999 511.999;" xml:space="preserve">
<rect x="153.562" y="80.882" style="fill:#E94141;" width="204.887" height="375.629"/>
<g>
	<rect x="337.826" y="80.882" style="fill:#C62525;" width="20.612" height="375.629"/>
	<polygon style="fill:#C62525;" points="392.591,68.079 358.443,93.691 153.556,93.691 119.41,68.079 119.41,59.044 392.591,59.044 
			"/>
	<path style="fill:#C62525;" d="M375.517,196.941H136.482c-4.27,0-7.73,3.461-7.73,7.73s3.46,7.73,7.73,7.73h239.036
		c4.27,0,7.73-3.461,7.73-7.73C383.247,200.402,379.787,196.941,375.517,196.941z"/>
	<path style="fill:#C62525;" d="M136.482,127.031h239.036c4.27,0,7.73-3.461,7.73-7.73c0-4.269-3.46-7.73-7.73-7.73H136.482
		c-4.27,0-7.73,3.461-7.73,7.73C128.753,123.57,132.212,127.031,136.482,127.031z"/>
</g>
<path style="fill:#3B4F66;" d="M318.113,179.061H193.889c-3.415,0-6.184-2.768-6.184-6.184v-21.782c0-3.415,2.768-6.184,6.184-6.184
	h124.224c3.415,0,6.184,2.768,6.184,6.184v21.782C324.297,176.293,321.527,179.061,318.113,179.061z"/>
<path style="fill:#FCB043;" d="M332.832,137.182H179.167c-4.27,0-7.73,3.461-7.73,7.73s3.46,7.73,7.73,7.73h153.665
	c4.27,0,7.73-3.461,7.73-7.73S337.102,137.182,332.832,137.182z"/>
<polygon style="fill:#991D1D;" points="371.979,59.044 371.979,68.079 337.83,93.691 358.442,93.691 392.591,68.079 392.591,59.044 
	"/>
<path style="fill:#FCB043;" d="M384.055,33.933L257.593,0.209c-1.044-0.278-2.143-0.278-3.187,0L127.948,33.933v11.37h256.107
	V33.933z"/>
<path style="fill:#F7A12F;" d="M257.593,0.209c-1.044-0.278-2.143-0.278-3.187,0l-8.713,2.323l117.749,31.401v11.37h20.612v-11.37
	L257.593,0.209z"/>
<path style="fill:#E94141;" d="M392.591,68.079H119.41V40.115c0-3.415,2.768-6.184,6.184-6.184h260.814
	c3.415,0,6.184,2.768,6.184,6.184V68.079z"/>
<path style="fill:#C62525;" d="M386.408,33.932h-20.612c3.415,0,6.184,2.768,6.184,6.184v27.964h20.612V40.115
	C392.591,36.7,389.823,33.932,386.408,33.932z"/>
<path style="fill:#CAEBF9;" d="M318.112,409.555H193.89c-3.415,0-6.184-2.768-6.184-6.184V245.001c0-3.415,2.768-6.184,6.184-6.184
	h124.222c3.415,0,6.184,2.768,6.184,6.184v158.371C324.296,406.787,321.527,409.555,318.112,409.555z"/>
<path style="fill:#BCCED5;" d="M318.112,238.817H297.5c3.415,0,6.184,2.768,6.184,6.184v158.371c0,3.415-2.768,6.184-6.184,6.184
	h20.612c3.415,0,6.184-2.768,6.184-6.184V245.001C324.296,241.585,321.527,238.817,318.112,238.817z"/>
<path style="fill:#FCB043;" d="M230.39,376.214h-17.074c-4.27,0-7.73,3.46-7.73,7.73s3.46,7.73,7.73,7.73h17.074
	c4.27,0,7.73-3.46,7.73-7.73S234.66,376.214,230.39,376.214z"/>
<g>
	<path style="fill:#3B4F66;" d="M230.39,280.16h51.222c4.27,0,7.73-3.46,7.73-7.73c0-4.269-3.46-7.73-7.73-7.73H230.39
		c-4.27,0-7.73,3.461-7.73,7.73C222.66,276.699,226.121,280.16,230.39,280.16z"/>
	<path style="fill:#3B4F66;" d="M281.612,299.381H230.39c-4.27,0-7.73,3.46-7.73,7.73c0,4.27,3.46,7.73,7.73,7.73h51.222
		c4.27,0,7.73-3.46,7.73-7.73C289.341,302.842,285.881,299.381,281.612,299.381z"/>
	<path style="fill:#3B4F66;" d="M281.612,334.064H230.39c-4.27,0-7.73,3.46-7.73,7.73c0,4.27,3.46,7.73,7.73,7.73h51.222
		c4.27,0,7.73-3.46,7.73-7.73C289.341,337.523,285.881,334.064,281.612,334.064z"/>
	<path style="fill:#3B4F66;" d="M125.592,511.999h260.814c3.415,0,6.184-2.768,6.184-6.184l-0.001-27.964
		c0-18.858-15.288-34.146-34.146-34.146H153.556c-18.859,0-34.146,15.288-34.146,34.146l-0.002,27.964
		C119.408,509.231,122.177,511.999,125.592,511.999z"/>
</g>
<g>
	<path style="fill:#2C3B4D;" d="M392.588,477.852c0-18.858-15.288-34.146-34.146-34.146h-20.613
		c18.859,0,34.147,15.288,34.147,34.146l0.001,27.964c0,3.415-2.768,6.184-6.184,6.184h20.613c3.415,0,6.184-2.768,6.184-6.184
		L392.588,477.852z"/>
	<path style="fill:#2C3B4D;" d="M120.299,470.123c-0.575,2.485-0.889,5.07-0.889,7.73v7.73h0.001h273.178h0.001v-7.73
		c0-2.66-0.314-5.245-0.889-7.73H120.299z"/>
</g>
<g>
</g>
<g>
</g>
<g>
</g>
<g>
</g>
<g>
</g>
<g>
</g>
<g>
</g>
<g>
</g>
<g>
</g>
<g>
</g>
<g>
</g>
<g>
</g>
<g>
</g>
<g>
</g>
<g>
</g>
</svg>
