<?xml version="1.0" encoding="iso-8859-1"?>
<!-- Generator: Adobe Illustrator 19.0.0, SVG Export Plug-In . SVG Version: 6.00 Build 0)  -->
<svg version="1.1" id="Capa_1" xmlns="http://www.w3.org/2000/svg" xmlns:xlink="http://www.w3.org/1999/xlink" x="0px" y="0px"
	 viewBox="0 0 512 512" style="enable-background:new 0 0 512 512;" xml:space="preserve">
<path style="fill:#FCB043;" d="M494.932,170.663c9.426,0,17.068,7.642,17.068,17.067v307.2c0,9.426-7.642,17.068-17.068,17.068
	h-89.6H106.667h-89.6C7.642,511.997,0,504.356,0,494.93V187.731c0-9.426,7.642-17.067,17.067-17.067h477.865V170.663z"/>
<g>
	<path style="fill:#F7A12F;" d="M6.055,174.701L252.34,355.705c2.178,1.601,5.143,1.601,7.32,0L505.944,174.7
		c-2.973-2.515-6.813-4.038-11.012-4.038H17.067C12.868,170.663,9.029,172.187,6.055,174.701z"/>
	<path style="fill:#F7A12F;" d="M491.396,187.731V494.93c0,9.426-7.642,17.068-17.068,17.068h20.604
		c9.426,0,17.068-7.642,17.068-17.068V187.731c0-9.426-7.642-17.067-17.068-17.067h-20.604
		C483.754,170.663,491.396,178.305,491.396,187.731z"/>
</g>
<path style="fill:#EF9122;" d="M491.236,185.511l14.708-10.81l0,0c-0.286-0.242-0.587-0.467-0.889-0.69
	c-0.113-0.084-0.224-0.172-0.339-0.253c-0.273-0.192-0.556-0.369-0.841-0.545c-0.16-0.099-0.318-0.199-0.482-0.293
	c-0.266-0.152-0.54-0.295-0.815-0.434c-0.198-0.1-0.397-0.197-0.599-0.288c-0.26-0.118-0.523-0.23-0.789-0.336
	c-0.235-0.093-0.473-0.178-0.712-0.261c-0.249-0.087-0.5-0.17-0.754-0.245c-0.276-0.08-0.557-0.149-0.84-0.216
	c-0.232-0.056-0.463-0.114-0.698-0.16c-0.336-0.065-0.678-0.111-1.02-0.156c-0.194-0.026-0.384-0.061-0.58-0.079
	c-0.544-0.053-1.095-0.083-1.652-0.083H474.33C483,170.663,490.146,177.136,491.236,185.511z"/>
<path style="fill:#CAEBF9;" d="M113.285,477.866H40.314c-3.414,0-6.181-2.767-6.181-6.181v-72.971c0-3.414,2.767-6.181,6.181-6.181
	h72.971c3.414,0,6.181,2.767,6.181,6.181v72.971C119.466,475.099,116.699,477.866,113.285,477.866z"/>
<path style="fill:#04A1EE;" d="M87.686,452.267H65.913c-3.414,0-6.181-2.767-6.181-6.181v-21.773c0-3.414,2.767-6.181,6.181-6.181
	h21.773c3.414,0,6.181,2.767,6.181,6.181v21.773C93.867,449.5,91.1,452.267,87.686,452.267z"/>
<g>
	<path style="fill:#3B4F66;" d="M204.799,401.872h-51.2c-4.267,0-7.726,3.459-7.726,7.726c0,4.267,3.459,7.726,7.726,7.726h51.2
		c4.267,0,7.726-3.459,7.726-7.726C212.525,405.331,209.066,401.872,204.799,401.872z"/>
	<path style="fill:#3B4F66;" d="M204.799,436.009h-51.198c-4.267,0-7.726,3.459-7.726,7.726c0,4.267,3.459,7.726,7.726,7.726h51.198
		c4.267,0,7.726-3.459,7.726-7.726C212.525,439.467,209.066,436.009,204.799,436.009z"/>
	<path style="fill:#3B4F66;" d="M256,436.009h-25.6c-4.267,0-7.726,3.459-7.726,7.726c0,4.267,3.459,7.726,7.726,7.726H256
		c4.267,0,7.726-3.459,7.726-7.726C263.726,439.467,260.267,436.009,256,436.009z"/>
</g>
<path style="fill:#BCCED5;" d="M384.293,102.402h70.325c3.414,0,6.181-2.767,6.181-6.181V34.135
	c0-18.851-15.282-34.133-34.133-34.133h-42.374L384.293,102.402z"/>
<path style="fill:#CAEBF9;" d="M426.666,0.003c-18.851,0-34.133,15.282-34.132,34.133v223.916L259.66,355.707
	c-2.178,1.601-5.143,1.601-7.32,0l-132.873-97.654l0.001-223.917c0-18.851,15.282-34.133,34.133-34.133L426.666,0.003L426.666,0.003
	z"/>
<g>
	<path style="fill:#618BAA;" d="M341.333,197.076H170.667c-4.268,0-7.726,3.458-7.726,7.726v34.133c0,4.268,3.458,7.726,7.726,7.726
		h170.666c4.268,0,7.726-3.458,7.726-7.726v-34.133C349.059,200.535,345.601,197.076,341.333,197.076z M333.607,231.209H178.393
		v-18.68h155.213V231.209z"/>
	<path style="fill:#618BAA;" d="M281.601,93.062c4.268,0,7.726-3.458,7.726-7.726v-8.533c0-15.716-10.939-28.918-25.602-32.414
		v-1.72c0-4.268-3.458-7.726-7.726-7.726c-4.268,0-7.726,3.458-7.726,7.726v1.721c-14.661,3.495-25.6,16.697-25.6,32.413
		c0,18.376,14.951,33.327,33.327,33.327c0.003,0,0.006,0,0.01,0c9.852,0.005,17.864,8.021,17.864,17.874
		c0,9.855-8.018,17.874-17.875,17.874c-9.856,0-17.875-8.018-17.875-17.873l0.001-8.535c0-4.268-3.458-7.727-7.725-7.727
		c-0.001,0-0.001,0-0.001,0c-4.267,0-7.726,3.458-7.726,7.725l-0.001,8.536c0,15.716,10.939,28.917,25.601,32.413v1.72
		c0,4.268,3.458,7.726,7.726,7.726c4.268,0,7.726-3.458,7.726-7.726v-1.72c14.662-3.495,25.601-16.696,25.601-32.413
		c0-18.376-14.951-33.327-33.327-33.327c-0.003,0-0.006,0.001-0.01,0.001c-9.852-0.005-17.864-8.021-17.864-17.874
		c0-9.856,8.018-17.875,17.875-17.875c9.856,0,17.875,8.018,17.875,17.875v8.533C273.875,89.603,277.333,93.062,281.601,93.062z"/>
</g>
<g>
</g>
<g>
</g>
<g>
</g>
<g>
</g>
<g>
</g>
<g>
</g>
<g>
</g>
<g>
</g>
<g>
</g>
<g>
</g>
<g>
</g>
<g>
</g>
<g>
</g>
<g>
</g>
<g>
</g>
</svg>
