<?xml version="1.0" encoding="iso-8859-1"?>
<!-- Generator: Adobe Illustrator 19.0.0, SVG Export Plug-In . SVG Version: 6.00 Build 0)  -->
<svg version="1.1" id="Capa_1" xmlns="http://www.w3.org/2000/svg" xmlns:xlink="http://www.w3.org/1999/xlink" x="0px" y="0px"
	 viewBox="0 0 512 512" style="enable-background:new 0 0 512 512;" xml:space="preserve">
<path style="fill:#FCB043;" d="M494.932,170.662c9.426,0,17.068,7.642,17.068,17.067v307.2c0,9.426-7.642,17.068-17.068,17.068
	h-89.6H106.667h-89.6C7.641,511.996,0,504.356,0,494.929V187.73c0-9.426,7.641-17.067,17.067-17.067h477.865V170.662z"/>
<g>
	<path style="fill:#F7A12F;" d="M6.055,174.701L252.34,355.705c2.178,1.601,5.143,1.601,7.32,0L505.944,174.7
		c-2.973-2.515-6.813-4.038-11.012-4.038H17.067C12.868,170.662,9.029,172.186,6.055,174.701z"/>
	<path style="fill:#F7A12F;" d="M491.396,187.73v307.199c0,9.426-7.642,17.068-17.068,17.068h20.604
		c9.426,0,17.068-7.642,17.068-17.068V187.73c0-9.426-7.642-17.067-17.068-17.067h-20.604
		C483.754,170.662,491.396,178.304,491.396,187.73z"/>
</g>
<path style="fill:#EF9122;" d="M491.236,185.51l14.708-10.81l0,0c-0.286-0.242-0.587-0.467-0.889-0.69
	c-0.113-0.084-0.224-0.172-0.339-0.253c-0.273-0.192-0.556-0.369-0.841-0.545c-0.16-0.099-0.318-0.199-0.482-0.293
	c-0.266-0.152-0.54-0.295-0.815-0.434c-0.198-0.1-0.397-0.197-0.599-0.288c-0.26-0.118-0.523-0.23-0.789-0.336
	c-0.235-0.093-0.473-0.178-0.712-0.261c-0.249-0.087-0.5-0.17-0.754-0.245c-0.276-0.08-0.557-0.149-0.84-0.216
	c-0.232-0.056-0.463-0.114-0.698-0.16c-0.336-0.065-0.678-0.111-1.02-0.156c-0.194-0.026-0.384-0.061-0.58-0.079
	c-0.544-0.053-1.095-0.083-1.652-0.083H474.33C483,170.662,490.146,177.135,491.236,185.51z"/>
<path style="fill:#CAEBF9;" d="M113.285,477.865H40.314c-3.414,0-6.181-2.767-6.181-6.181v-72.971c0-3.414,2.767-6.181,6.181-6.181
	h72.971c3.414,0,6.181,2.767,6.181,6.181v72.971C119.466,475.098,116.698,477.865,113.285,477.865z"/>
<path style="fill:#04A1EE;" d="M87.686,452.266H65.913c-3.414,0-6.181-2.767-6.181-6.181v-21.773c0-3.414,2.767-6.181,6.181-6.181
	h21.773c3.414,0,6.181,2.767,6.181,6.181v21.773C93.867,449.499,91.1,452.266,87.686,452.266z"/>
<g>
	<path style="fill:#3B4F66;" d="M204.799,401.871h-51.2c-4.267,0-7.726,3.459-7.726,7.726s3.459,7.726,7.726,7.726h51.2
		c4.267,0,7.726-3.459,7.726-7.726S209.066,401.871,204.799,401.871z"/>
	<path style="fill:#3B4F66;" d="M204.799,436.008h-51.198c-4.267,0-7.726,3.459-7.726,7.726c0,4.267,3.459,7.726,7.726,7.726h51.198
		c4.267,0,7.726-3.459,7.726-7.726C212.525,439.466,209.066,436.008,204.799,436.008z"/>
	<path style="fill:#3B4F66;" d="M256,436.008h-25.6c-4.267,0-7.726,3.459-7.726,7.726c0,4.267,3.459,7.726,7.726,7.726H256
		c4.267,0,7.726-3.459,7.726-7.726C263.726,439.466,260.267,436.008,256,436.008z"/>
</g>
<path style="fill:#CAEBF9;" d="M426.666,232.966V6.184c0-3.414-2.767-6.181-6.181-6.181H91.515c-3.414,0-6.181,2.767-6.181,6.181
	v226.783L252.34,355.706c2.178,1.601,5.143,1.601,7.32,0L426.666,232.966z"/>
<path style="fill:#BCCED5;" d="M420.485,0.003h-20.604c3.414,0,6.181,2.767,6.181,6.181v241.925l20.604-15.143V6.184
	C426.666,2.77,423.899,0.003,420.485,0.003z"/>
<circle style="fill:#FCB043;" cx="256" cy="153.599" r="102.4"/>
<path style="fill:#F7A12F;" d="M256,235.398c-53.077,0-96.721-40.382-101.887-92.098c-0.338,3.388-0.514,6.824-0.514,10.302
	c0,56.555,45.846,102.4,102.401,102.4s102.401-45.846,102.401-102.4c0-3.478-0.175-6.914-0.514-10.302
	C352.721,195.015,309.077,235.398,256,235.398z"/>
<path style="fill:#3B4F66;" d="M306.907,167.399c-4.028-1.402-8.433,0.727-9.836,4.757c-6.074,17.453-22.579,29.18-41.072,29.18
	c-18.495,0-35.001-11.729-41.073-29.183c-1.402-4.03-5.806-6.16-9.836-4.759c-4.03,1.402-6.16,5.806-4.758,9.836
	c8.231,23.662,30.603,39.559,55.668,39.559c25.062,0,47.434-15.896,55.666-39.554C313.068,173.204,310.938,168.801,306.907,167.399z
	"/>
<g>
	<path style="fill:#F7A12F;" d="M221.867,150.135c-4.267,0-7.726,3.458-7.726,7.726c0,5.151-4.19,9.342-9.341,9.342
		c-5.151,0-9.342-4.191-9.342-9.342c0-4.268-3.459-7.726-7.726-7.726s-7.726,3.458-7.726,7.726
		c0,13.672,11.123,24.794,24.794,24.794c13.672,0,24.793-11.123,24.793-24.794C229.593,153.593,226.134,150.135,221.867,150.135z"/>
	<path style="fill:#F7A12F;" d="M324.267,150.135c-4.268,0-7.726,3.458-7.726,7.726c0,5.151-4.19,9.342-9.341,9.342
		s-9.341-4.191-9.341-9.342c0-4.268-3.458-7.726-7.726-7.726c-4.267,0-7.726,3.458-7.726,7.726
		c0,13.672,11.123,24.794,24.793,24.794c13.67,0,24.793-11.123,24.793-24.794C331.993,153.593,328.534,150.135,324.267,150.135z"/>
</g>
<g>
	<path style="fill:#3B4F66;" d="M217.599,94.674c-16.024,0-29.061,13.036-29.061,29.06c0,4.268,3.459,7.726,7.726,7.726
		c4.267,0,7.726-3.458,7.726-7.726c0-7.503,6.105-13.608,13.609-13.608c7.504,0,13.609,6.105,13.609,13.608
		c0,4.268,3.459,7.726,7.726,7.726c4.267,0,7.726-3.458,7.726-7.726C246.66,107.71,233.623,94.674,217.599,94.674z"/>
	<path style="fill:#3B4F66;" d="M294.401,94.674c-16.024,0-29.061,13.036-29.061,29.06c0,4.268,3.458,7.726,7.726,7.726
		s7.726-3.458,7.726-7.726c0-7.503,6.105-13.608,13.609-13.608c7.503,0,13.608,6.105,13.608,13.608c0,4.268,3.458,7.726,7.726,7.726
		c4.267,0,7.726-3.458,7.726-7.726C323.461,107.71,310.425,94.674,294.401,94.674z"/>
</g>
<g>
</g>
<g>
</g>
<g>
</g>
<g>
</g>
<g>
</g>
<g>
</g>
<g>
</g>
<g>
</g>
<g>
</g>
<g>
</g>
<g>
</g>
<g>
</g>
<g>
</g>
<g>
</g>
<g>
</g>
</svg>
