<?xml version="1.0" encoding="iso-8859-1"?>
<!-- Generator: Adobe Illustrator 19.0.0, SVG Export Plug-In . SVG Version: 6.00 Build 0)  -->
<svg version="1.1" id="Capa_1" xmlns="http://www.w3.org/2000/svg" xmlns:xlink="http://www.w3.org/1999/xlink" x="0px" y="0px"
	 viewBox="0 0 512 512" style="enable-background:new 0 0 512 512;" xml:space="preserve">
<path style="fill:#FCB043;" d="M494.932,170.662c9.426,0,17.068,7.642,17.068,17.067v307.2c0,9.426-7.642,17.068-17.068,17.068
	h-89.6H106.667h-89.6C7.642,511.996,0,504.356,0,494.929V187.73c0-9.426,7.642-17.067,17.067-17.067h477.865V170.662z"/>
<g>
	<path style="fill:#F7A12F;" d="M6.055,174.701L252.34,355.705c2.178,1.601,5.143,1.601,7.32,0L505.944,174.7
		c-2.973-2.515-6.813-4.038-11.012-4.038H17.067C12.868,170.662,9.029,172.186,6.055,174.701z"/>
	<path style="fill:#F7A12F;" d="M491.396,187.73v307.199c0,9.426-7.642,17.068-17.068,17.068h20.604
		c9.426,0,17.068-7.642,17.068-17.068V187.73c0-9.426-7.642-17.067-17.068-17.067h-20.604
		C483.754,170.662,491.396,178.304,491.396,187.73z"/>
</g>
<path style="fill:#EF9122;" d="M491.236,185.51l14.708-10.81l0,0c-0.286-0.242-0.587-0.467-0.889-0.69
	c-0.113-0.084-0.224-0.172-0.339-0.253c-0.273-0.192-0.556-0.369-0.841-0.545c-0.16-0.099-0.318-0.199-0.482-0.293
	c-0.266-0.152-0.54-0.295-0.815-0.434c-0.198-0.1-0.397-0.197-0.599-0.288c-0.26-0.118-0.523-0.23-0.789-0.336
	c-0.235-0.093-0.473-0.178-0.712-0.261c-0.249-0.087-0.5-0.17-0.754-0.245c-0.276-0.08-0.557-0.149-0.84-0.216
	c-0.232-0.056-0.463-0.114-0.698-0.16c-0.336-0.065-0.678-0.111-1.02-0.156c-0.194-0.026-0.384-0.061-0.58-0.079
	c-0.544-0.053-1.095-0.083-1.652-0.083H474.33C483,170.662,490.146,177.135,491.236,185.51z"/>
<path style="fill:#CAEBF9;" d="M113.285,477.865H40.314c-3.414,0-6.181-2.767-6.181-6.181v-72.971c0-3.414,2.767-6.181,6.181-6.181
	h72.971c3.414,0,6.181,2.767,6.181,6.181v72.971C119.466,475.098,116.699,477.865,113.285,477.865z"/>
<path style="fill:#04A1EE;" d="M87.686,452.266H65.913c-3.414,0-6.181-2.767-6.181-6.181v-21.773c0-3.414,2.767-6.181,6.181-6.181
	h21.773c3.414,0,6.181,2.767,6.181,6.181v21.773C93.867,449.499,91.1,452.266,87.686,452.266z"/>
<g>
	<path style="fill:#3B4F66;" d="M204.799,401.871h-51.2c-4.267,0-7.726,3.459-7.726,7.726s3.459,7.726,7.726,7.726h51.2
		c4.267,0,7.726-3.459,7.726-7.726S209.066,401.871,204.799,401.871z"/>
	<path style="fill:#3B4F66;" d="M204.799,436.008h-51.198c-4.267,0-7.726,3.459-7.726,7.726c0,4.267,3.459,7.726,7.726,7.726h51.198
		c4.267,0,7.726-3.459,7.726-7.726C212.525,439.466,209.066,436.008,204.799,436.008z"/>
	<path style="fill:#3B4F66;" d="M256,436.008h-25.6c-4.267,0-7.726,3.459-7.726,7.726c0,4.267,3.459,7.726,7.726,7.726H256
		c4.267,0,7.726-3.459,7.726-7.726C263.726,439.466,260.267,436.008,256,436.008z"/>
</g>
<path style="fill:#CAEBF9;" d="M426.666,232.966V6.184c0-3.414-2.767-6.181-6.181-6.181H91.515c-3.414,0-6.181,2.767-6.181,6.181
	v226.783L252.34,355.706c2.178,1.601,5.143,1.601,7.32,0L426.666,232.966z"/>
<g>
	<path style="fill:#BCCED5;" d="M420.485,0.003h-20.604c3.414,0,6.181,2.767,6.181,6.181v241.925l20.604-15.143V6.184
		C426.666,2.77,423.899,0.003,420.485,0.003z"/>
	<path style="fill:#BCCED5;" d="M386.352,170.668l-72.971,0.001c-3.414,0-6.181-2.767-6.181-6.181V74.45
		c0-3.414,2.767-6.181,6.181-6.181h72.971c3.414,0,6.181,2.767,6.181,6.181v90.037C392.533,167.9,389.766,170.668,386.352,170.668z"
		/>
</g>
<path style="fill:#04A1EE;" d="M360.753,145.069H338.98c-3.414,0-6.181-2.767-6.181-6.181v-38.839c0-3.414,2.767-6.181,6.181-6.181
	h21.773c3.414,0,6.181,2.767,6.181,6.181v38.839C366.934,142.301,364.167,145.069,360.753,145.069z"/>
<g>
	<path style="fill:#3B4F66;" d="M261.462,116.397l11.605-11.603l11.604,11.604c1.449,1.449,3.414,2.263,5.464,2.263
		c2.049,0,4.016-0.814,5.464-2.263l17.066-17.068c3.017-3.017,3.017-7.91-0.001-10.926c-3.016-3.016-7.909-3.017-10.926,0.001
		l-11.603,11.604l-11.603-11.603c-3.017-3.017-7.91-3.018-10.927-0.001l-17.068,17.065c-3.018,3.017-3.018,7.91-0.001,10.926
		C253.552,119.413,258.445,119.414,261.462,116.397z"/>
	<path style="fill:#3B4F66;" d="M301.737,122.536l-11.603,11.604l-11.603-11.603c-3.017-3.017-7.91-3.018-10.927-0.001
		l-17.068,17.066c-3.018,3.017-3.018,7.91-0.001,10.927c3.017,3.017,7.91,3.018,10.927,0.001l11.606-11.604l11.603,11.604
		c1.449,1.449,3.414,2.263,5.464,2.263c2.049,0,4.016-0.814,5.464-2.263l17.066-17.068c3.017-3.017,3.017-7.91-0.001-10.927
		C309.647,119.519,304.754,119.518,301.737,122.536z"/>
</g>
<g>
	<path style="fill:#04A1EE;" d="M119.468,178.394h17.065c4.268,0,7.726-3.458,7.726-7.726s-3.458-7.726-7.726-7.726h-17.065
		c-4.268,0-7.726,3.458-7.726,7.726C111.742,174.935,115.2,178.394,119.468,178.394z"/>
	<path style="fill:#04A1EE;" d="M162.134,178.394h42.665c4.268,0,7.726-3.458,7.726-7.726s-3.458-7.726-7.726-7.726h-42.665
		c-4.268,0-7.726,3.458-7.726,7.726C154.408,174.935,157.866,178.394,162.134,178.394z"/>
</g>
<path style="fill:#3B4F66;" d="M221.866,197.074H119.468c-4.268,0-7.726,3.458-7.726,7.726c0,4.268,3.458,7.726,7.726,7.726h102.398
	c4.268,0,7.726-3.458,7.726-7.726C229.592,200.534,226.134,197.074,221.866,197.074z"/>
<path style="fill:#04A1EE;" d="M426.666,34.135V6.184c0-3.414-2.767-6.181-6.181-6.181H91.515c-3.414,0-6.181,2.767-6.181,6.181
	v27.951H426.666z"/>
<g>
	<polygon style="fill:#E94141;" points="179.201,34.135 196.266,0.003 264.532,0.003 247.468,34.135 	"/>
	<polygon style="fill:#E94141;" points="332.799,0.003 315.734,34.135 384.001,34.135 401.066,0.003 	"/>
</g>
<path style="fill:#0084CE;" d="M420.485,0.003h-20.603c3.413,0.001,6.18,2.768,6.18,6.181v27.951h20.604V6.184
	C426.666,2.77,423.899,0.003,420.485,0.003z"/>
<path style="fill:#E94141;" d="M127.999,0.003H91.515c-3.414,0-6.181,2.767-6.181,6.181v27.951h25.6L127.999,0.003z"/>
<g>
</g>
<g>
</g>
<g>
</g>
<g>
</g>
<g>
</g>
<g>
</g>
<g>
</g>
<g>
</g>
<g>
</g>
<g>
</g>
<g>
</g>
<g>
</g>
<g>
</g>
<g>
</g>
<g>
</g>
</svg>
