<?xml version="1.0" encoding="iso-8859-1"?>
<!-- Generator: Adobe Illustrator 19.0.0, SVG Export Plug-In . SVG Version: 6.00 Build 0)  -->
<svg version="1.1" id="Capa_1" xmlns="http://www.w3.org/2000/svg" xmlns:xlink="http://www.w3.org/1999/xlink" x="0px" y="0px"
	 viewBox="0 0 512 512" style="enable-background:new 0 0 512 512;" xml:space="preserve">
<path style="fill:#FCB043;" d="M494.932,170.663c9.426,0,17.068,7.642,17.068,17.068V494.93c0,9.426-7.642,17.068-17.068,17.068
	h-89.6H106.667h-89.6C7.641,511.997,0,504.356,0,494.93V187.731c0-9.426,7.641-17.068,17.067-17.068H494.932z"/>
<g>
	<path style="fill:#F7A12F;" d="M6.055,174.701L252.34,355.705c2.178,1.601,5.143,1.601,7.32,0L505.944,174.7
		c-2.973-2.515-6.813-4.038-11.012-4.038H17.067C12.868,170.663,9.029,172.186,6.055,174.701z"/>
	<path style="fill:#F7A12F;" d="M491.396,187.731V494.93c0,9.426-7.642,17.068-17.068,17.068h20.604
		c9.426,0,17.068-7.642,17.068-17.068V187.731c0-9.426-7.642-17.068-17.068-17.068h-20.604
		C483.754,170.663,491.396,178.304,491.396,187.731z"/>
</g>
<path style="fill:#EF9122;" d="M491.236,185.511l14.708-10.81l0,0c-0.286-0.242-0.587-0.467-0.889-0.69
	c-0.113-0.083-0.224-0.172-0.339-0.253c-0.273-0.192-0.556-0.369-0.841-0.545c-0.16-0.099-0.318-0.199-0.482-0.293
	c-0.266-0.152-0.54-0.295-0.815-0.434c-0.198-0.099-0.397-0.197-0.599-0.288c-0.26-0.118-0.523-0.23-0.789-0.336
	c-0.235-0.093-0.473-0.178-0.712-0.261c-0.249-0.087-0.5-0.171-0.754-0.245c-0.276-0.08-0.557-0.149-0.84-0.216
	c-0.232-0.056-0.463-0.114-0.698-0.16c-0.336-0.065-0.678-0.111-1.02-0.156c-0.194-0.026-0.384-0.06-0.58-0.079
	c-0.544-0.053-1.095-0.083-1.652-0.083H474.33C483,170.663,490.146,177.135,491.236,185.511z"/>
<path style="fill:#CAEBF9;" d="M113.285,477.866H40.314c-3.414,0-6.181-2.767-6.181-6.181v-72.971c0-3.414,2.767-6.181,6.181-6.181
	h72.971c3.414,0,6.181,2.767,6.181,6.181v72.971C119.466,475.099,116.698,477.866,113.285,477.866z"/>
<path style="fill:#04A1EE;" d="M87.686,452.267H65.913c-3.414,0-6.181-2.767-6.181-6.181v-21.773c0-3.414,2.767-6.181,6.181-6.181
	h21.773c3.414,0,6.181,2.767,6.181,6.181v21.773C93.867,449.5,91.1,452.267,87.686,452.267z"/>
<g>
	<path style="fill:#3B4F66;" d="M204.799,401.871h-51.2c-4.267,0-7.726,3.459-7.726,7.726s3.459,7.726,7.726,7.726h51.2
		c4.267,0,7.726-3.459,7.726-7.726S209.066,401.871,204.799,401.871z"/>
	<path style="fill:#3B4F66;" d="M204.799,436.008h-51.198c-4.267,0-7.726,3.459-7.726,7.726c0,4.267,3.459,7.726,7.726,7.726h51.198
		c4.267,0,7.726-3.459,7.726-7.726C212.525,439.467,209.066,436.008,204.799,436.008z"/>
	<path style="fill:#3B4F66;" d="M256,436.008h-25.6c-4.267,0-7.726,3.459-7.726,7.726c0,4.267,3.459,7.726,7.726,7.726H256
		c4.267,0,7.726-3.459,7.726-7.726C263.726,439.467,260.267,436.008,256,436.008z"/>
</g>
<path style="fill:#CAEBF9;" d="M255.652,0.003C152.114,0.19,67.749,85.163,68.27,188.7c0.059,11.66,1.181,23.068,3.273,34.133
	L252.34,355.706c2.178,1.601,5.143,1.601,7.32,0l180.798-132.875c2.15-11.369,3.275-23.101,3.275-35.095
	C443.733,83.938,359.494-0.186,255.652,0.003z M256,213.335c-14.138,0-25.6-11.462-25.6-25.6s11.462-25.6,25.6-25.6
	s25.6,11.462,25.6,25.6C281.6,201.874,270.138,213.335,256,213.335z"/>
<g>
	<path style="fill:#BCCED5;" d="M263.726,34.135c0-4.268-3.458-7.726-7.726-7.726c-43.092,0-83.605,16.781-114.075,47.251
		c-3.017,3.018-3.017,7.91,0,10.927c1.508,1.508,3.486,2.262,5.463,2.262s3.955-0.754,5.463-2.262
		C180.403,57.035,217.035,41.86,256,41.86C260.268,41.861,263.726,38.403,263.726,34.135z"/>
	<path style="fill:#BCCED5;" d="M256,60.541c-33.975,0-65.916,13.231-89.94,37.254c-3.017,3.018-3.017,7.91,0,10.927
		c1.508,1.508,3.486,2.262,5.463,2.262c1.978,0,3.955-0.754,5.463-2.262c21.105-21.105,49.166-32.73,79.013-32.73
		c4.268,0,7.726-3.458,7.726-7.726S260.268,60.541,256,60.541z"/>
</g>
<path style="fill:#3B4F66;" d="M256,119.47c-37.703,0-68.266,30.563-68.266,68.266c0,37.702,30.563,68.266,68.266,68.266
	s68.266-30.563,68.266-68.266S293.703,119.47,256,119.47z M256,213.335c-14.138,0-25.6-11.462-25.6-25.6s11.462-25.6,25.6-25.6
	s25.6,11.462,25.6,25.6C281.6,201.874,270.138,213.335,256,213.335z"/>
<path style="fill:#BCCED5;" d="M256,0.003c-3.457,0-6.891,0.1-10.302,0.285c98.89,5.349,177.431,87.223,177.431,187.448
	c0,11.994-1.125,23.726-3.275,35.095c0,0-2.889,12.438-9.456,21.71l30.06-21.71c2.15-11.369,3.275-23.101,3.275-35.095
	C443.733,84.053,359.682,0.003,256,0.003z"/>
<g>
</g>
<g>
</g>
<g>
</g>
<g>
</g>
<g>
</g>
<g>
</g>
<g>
</g>
<g>
</g>
<g>
</g>
<g>
</g>
<g>
</g>
<g>
</g>
<g>
</g>
<g>
</g>
<g>
</g>
</svg>
