<?xml version="1.0" encoding="iso-8859-1"?>
<!-- Generator: Adobe Illustrator 19.0.0, SVG Export Plug-In . SVG Version: 6.00 Build 0)  -->
<svg version="1.1" id="Capa_1" xmlns="http://www.w3.org/2000/svg" xmlns:xlink="http://www.w3.org/1999/xlink" x="0px" y="0px"
	 viewBox="0 0 512 512" style="enable-background:new 0 0 512 512;" xml:space="preserve">
<path style="fill:#FCB043;" d="M494.932,170.663c9.426,0,17.068,7.642,17.068,17.068V494.93c0,9.426-7.642,17.068-17.068,17.068
	h-89.6H106.667h-89.6C7.642,511.998,0,504.356,0,494.93V187.731c0-9.426,7.642-17.068,17.067-17.068H494.932z"/>
<g>
	<path style="fill:#F7A12F;" d="M6.055,174.702L252.34,355.706c2.178,1.601,5.143,1.601,7.32,0l246.283-181.005
		c-2.973-2.515-6.813-4.038-11.012-4.038H17.067C12.868,170.663,9.029,172.187,6.055,174.702z"/>
	<path style="fill:#F7A12F;" d="M491.396,187.731V494.93c0,9.426-7.642,17.068-17.068,17.068h20.604
		c9.426,0,17.068-7.642,17.068-17.068V187.731c0-9.426-7.642-17.068-17.068-17.068h-20.604
		C483.754,170.663,491.396,178.305,491.396,187.731z"/>
</g>
<path style="fill:#EF9122;" d="M491.236,185.511l14.708-10.81l0,0c-0.286-0.242-0.587-0.467-0.889-0.69
	c-0.113-0.083-0.224-0.172-0.339-0.253c-0.273-0.192-0.556-0.369-0.841-0.545c-0.16-0.099-0.318-0.199-0.482-0.293
	c-0.266-0.152-0.54-0.295-0.815-0.434c-0.198-0.099-0.397-0.197-0.599-0.288c-0.26-0.118-0.523-0.23-0.789-0.336
	c-0.235-0.093-0.473-0.178-0.712-0.261c-0.249-0.087-0.5-0.171-0.754-0.245c-0.276-0.08-0.557-0.149-0.84-0.216
	c-0.232-0.056-0.463-0.114-0.698-0.16c-0.336-0.065-0.678-0.111-1.02-0.156c-0.194-0.026-0.384-0.06-0.58-0.079
	c-0.544-0.053-1.095-0.083-1.652-0.083H474.33C483,170.663,490.146,177.137,491.236,185.511z"/>
<path style="fill:#CAEBF9;" d="M113.285,477.866H40.314c-3.414,0-6.181-2.767-6.181-6.181v-72.971c0-3.414,2.767-6.181,6.181-6.181
	h72.971c3.414,0,6.181,2.767,6.181,6.181v72.971C119.466,475.099,116.699,477.866,113.285,477.866z"/>
<path style="fill:#04A1EE;" d="M87.686,452.268H65.913c-3.414,0-6.181-2.767-6.181-6.181v-21.773c0-3.414,2.767-6.181,6.181-6.181
	h21.773c3.414,0,6.181,2.767,6.181,6.181v21.773C93.867,449.5,91.1,452.268,87.686,452.268z"/>
<g>
	<path style="fill:#3B4F66;" d="M204.799,401.873h-51.2c-4.267,0-7.726,3.459-7.726,7.726c0,4.267,3.459,7.726,7.726,7.726h51.2
		c4.267,0,7.726-3.459,7.726-7.726C212.525,405.332,209.066,401.873,204.799,401.873z"/>
	<path style="fill:#3B4F66;" d="M204.799,436.009h-51.198c-4.267,0-7.726,3.459-7.726,7.726c0,4.267,3.459,7.726,7.726,7.726h51.198
		c4.267,0,7.726-3.459,7.726-7.726C212.525,439.468,209.066,436.009,204.799,436.009z"/>
	<path style="fill:#3B4F66;" d="M256,436.009h-25.6c-4.267,0-7.726,3.459-7.726,7.726c0,4.267,3.459,7.726,7.726,7.726H256
		c4.267,0,7.726-3.459,7.726-7.726C263.726,439.468,260.267,436.009,256,436.009z"/>
	<path style="fill:#3B4F66;" d="M409.6,204.803c0,9.426-7.641,17.068-17.068,17.068H119.468c-9.426,0-17.067-7.642-17.067-17.068
		V17.07c0-9.426,7.642-17.068,17.067-17.068h273.065c9.426,0,17.068,7.642,17.068,17.068v187.733H409.6z"/>
</g>
<polygon style="fill:#BCCED5;" points="324.266,162.136 187.734,162.136 231.382,128.001 280.617,128.001 "/>
<g>
	<path style="fill:#CAEBF9;" d="M187.734,59.736c-28.277,0-51.2,22.924-51.2,51.2s22.924,51.2,51.2,51.2
		c28.277,0,51.2-22.924,51.2-51.2S216.01,59.736,187.734,59.736z M187.734,128.001c-9.425,0-17.065-7.641-17.065-17.065
		s7.641-17.066,17.065-17.066c9.425,0,17.066,7.641,17.066,17.066S197.159,128.001,187.734,128.001z"/>
	<path style="fill:#CAEBF9;" d="M324.266,59.736c-28.277,0-51.2,22.924-51.2,51.2s22.923,51.2,51.2,51.2s51.2-22.924,51.2-51.2
		S352.543,59.736,324.266,59.736z M324.267,128.001c-9.425,0-17.066-7.641-17.066-17.065s7.641-17.066,17.066-17.066
		c9.425,0,17.065,7.641,17.065,17.066S333.692,128.001,324.267,128.001z"/>
</g>
<path style="fill:#2C3B4D;" d="M392.532,201.209H119.468c-9.426,0-17.068-7.641-17.068-17.068v20.66
	c0,9.426,7.641,17.068,17.068,17.068h273.065c9.426,0,17.068-7.642,17.068-17.068v-20.66
	C409.6,193.568,401.958,201.209,392.532,201.209z"/>
<g>
</g>
<g>
</g>
<g>
</g>
<g>
</g>
<g>
</g>
<g>
</g>
<g>
</g>
<g>
</g>
<g>
</g>
<g>
</g>
<g>
</g>
<g>
</g>
<g>
</g>
<g>
</g>
<g>
</g>
</svg>
