<?xml version="1.0" encoding="iso-8859-1"?>
<!-- Generator: Adobe Illustrator 19.0.0, SVG Export Plug-In . SVG Version: 6.00 Build 0)  -->
<svg version="1.1" id="Capa_1" xmlns="http://www.w3.org/2000/svg" xmlns:xlink="http://www.w3.org/1999/xlink" x="0px" y="0px"
	 viewBox="0 0 512 512" style="enable-background:new 0 0 512 512;" xml:space="preserve">
<g>
	<path style="fill:#54CC4E;" d="M170.665,111.741c-41.902,0-75.991,34.09-75.991,75.991v3.107h-0.957
		c-5.702,0-8.558,6.894-4.526,10.925l8.685,8.685c2.499,2.499,6.552,2.499,9.051,0l8.684-8.684
		c4.032-4.031,1.176-10.925-4.526-10.925h-0.96v-3.108c0-33.381,27.158-60.539,60.539-60.539c4.267,0,7.726-3.458,7.726-7.726
		C178.391,115.199,174.932,111.741,170.665,111.741z"/>
	<path style="fill:#54CC4E;" d="M422.807,310.235l-8.685-8.685c-2.499-2.499-6.552-2.499-9.051,0l-8.684,8.684
		c-4.032,4.032-1.176,10.925,4.526,10.925h0.959v3.108c0,33.381-27.158,60.539-60.539,60.539c-4.267,0-7.726,3.458-7.726,7.726
		s3.459,7.726,7.726,7.726c41.902,0,75.991-34.09,75.991-75.991v-3.107h0.958C423.983,321.161,426.839,314.267,422.807,310.235z"/>
</g>
<path style="fill:#04A1EE;" d="M290.133,238.935c9.426,0,17.067,7.641,17.067,17.068V409.6c0,9.426-7.642,17.067-17.067,17.067
	H17.067C7.642,426.667,0,419.025,0,409.599V256.002c0-9.426,7.642-17.068,17.067-17.068h273.066V238.935z"/>
<g>
	<path style="fill:#0084CE;" d="M306.856,413.027l-131.262-88.278c-3.542-2.381-8.341-1.44-10.723,2.1
		c-2.381,3.542-1.441,8.342,2.1,10.723l130.198,87.564C302.078,422.909,305.752,418.441,306.856,413.027z"/>
	<path style="fill:#0084CE;" d="M131.605,324.746L0.345,413.026c1.103,5.415,4.777,9.883,9.685,12.11l130.198-87.566
		c3.541-2.381,4.481-7.182,2.1-10.723C139.945,323.304,135.144,322.366,131.605,324.746z"/>
	<path style="fill:#0084CE;" d="M286.596,256.002v153.597c0,9.426-7.642,17.068-17.067,17.068h20.604
		c9.426,0,17.067-7.641,17.067-17.068V256.002c0-9.426-7.642-17.068-17.067-17.068h-20.604
		C278.956,238.935,286.596,246.576,286.596,256.002z"/>
</g>
<path style="fill:#5ABDEE;" d="M290.133,238.934H17.067c-5.561,0-10.486,2.671-13.601,6.789c-1.719,3.204-2.879,5.68-3.114,6.821
	l149.089,95.299c1.269,0.811,2.716,1.217,4.162,1.217c1.446,0,2.893-0.406,4.162-1.217l149.085-95.299
	C305.25,244.775,298.374,238.934,290.133,238.934z"/>
<path style="fill:#FCB043;" d="M494.932,85.335c9.426,0,17.068,7.641,17.068,17.067v153.597c0,9.426-7.642,17.067-17.068,17.067
	H221.867c-9.426,0-17.067-7.642-17.067-17.067V102.403c0-9.426,7.641-17.067,17.067-17.067h273.065V85.335z"/>
<g>
	<path style="fill:#F7A12F;" d="M511.655,259.428L380.394,171.15c-3.542-2.382-8.341-1.441-10.723,2.1
		c-2.382,3.542-1.441,8.342,2.099,10.723l130.198,87.564C506.877,269.31,510.552,264.842,511.655,259.428z"/>
	<path style="fill:#F7A12F;" d="M336.404,171.147l-131.259,88.28c1.103,5.415,4.778,9.883,9.685,12.11l130.198-87.566
		c3.541-2.381,4.481-7.182,2.099-10.723C344.745,169.704,339.943,168.766,336.404,171.147z"/>
	<path style="fill:#F7A12F;" d="M491.396,102.403V256c0,9.426-7.642,17.068-17.067,17.068h20.604
		c9.426,0,17.067-7.642,17.067-17.068V102.403c0-9.426-7.642-17.067-17.067-17.067h-20.604
		C483.754,85.335,491.396,92.977,491.396,102.403z"/>
</g>
<path style="fill:#FFCE94;" d="M494.933,85.335H221.867c-5.561,0-10.486,2.671-13.601,6.789c-1.719,3.204-2.879,5.68-3.114,6.821
	l149.089,95.299c1.268,0.811,2.716,1.217,4.162,1.217c1.446,0,2.893-0.406,4.162-1.217l149.085-95.299
	C510.05,91.176,503.173,85.335,494.933,85.335z"/>
<path style="fill:#FCB043;" d="M511.649,98.944c-0.106-0.516-0.239-1.022-0.39-1.52c-0.056-0.181-0.125-0.356-0.185-0.535
	c-0.109-0.319-0.219-0.638-0.347-0.948c-0.081-0.199-0.173-0.391-0.262-0.586c-0.128-0.281-0.259-0.56-0.401-0.832
	c-0.102-0.195-0.21-0.387-0.319-0.578c-0.15-0.263-0.307-0.521-0.471-0.775c-0.118-0.183-0.238-0.365-0.363-0.544
	c-0.177-0.252-0.363-0.498-0.552-0.739c-0.129-0.164-0.255-0.33-0.389-0.489c-0.215-0.254-0.443-0.498-0.672-0.74
	c-0.125-0.132-0.244-0.268-0.373-0.396c-0.337-0.333-0.688-0.651-1.052-0.956c-0.031-0.026-0.058-0.055-0.089-0.079
	c-0.396-0.326-0.808-0.632-1.231-0.921c-0.141-0.097-0.291-0.182-0.435-0.275c-0.292-0.186-0.585-0.371-0.888-0.54
	c-0.176-0.098-0.356-0.186-0.537-0.279c-0.284-0.145-0.573-0.287-0.866-0.417c-0.193-0.086-0.389-0.165-0.586-0.243
	c-0.295-0.117-0.592-0.227-0.894-0.328c-0.202-0.067-0.404-0.133-0.609-0.194c-0.314-0.092-0.633-0.171-0.954-0.245
	c-0.2-0.046-0.399-0.096-0.601-0.135c-0.355-0.068-0.716-0.118-1.079-0.165c-0.175-0.023-0.347-0.053-0.524-0.07
	c-0.542-0.052-1.09-0.083-1.646-0.083H474.33c9.426,0,17.067,7.641,17.067,17.068v9.487L511.649,98.944z"/>
<g>
</g>
<g>
</g>
<g>
</g>
<g>
</g>
<g>
</g>
<g>
</g>
<g>
</g>
<g>
</g>
<g>
</g>
<g>
</g>
<g>
</g>
<g>
</g>
<g>
</g>
<g>
</g>
<g>
</g>
</svg>
