<?xml version="1.0" encoding="iso-8859-1"?>
<!-- Generator: Adobe Illustrator 19.0.0, SVG Export Plug-In . SVG Version: 6.00 Build 0)  -->
<svg version="1.1" id="Capa_1" xmlns="http://www.w3.org/2000/svg" xmlns:xlink="http://www.w3.org/1999/xlink" x="0px" y="0px"
	 viewBox="0 0 512 512" style="enable-background:new 0 0 512 512;" xml:space="preserve">
<path style="fill:#E94141;" d="M440.944,354.864V192.551c0-55.713-45.165-100.878-100.878-100.878H171.935v263.191H440.944z"/>
<path style="fill:#C62525;" d="M340.066,91.673h-20.297c55.713,0,100.878,45.165,100.878,100.878v162.313h20.297V192.551
	C440.944,136.837,395.779,91.673,340.066,91.673z"/>
<path style="fill:#CAEBF9;" d="M272.815,405.945v99.965c0,3.363-2.726,6.089-6.089,6.089h-21.448c-3.363,0-6.089-2.726-6.089-6.089
	v-99.965H272.815z"/>
<rect x="239.194" y="405.947" style="fill:#BCCED5;" width="33.623" height="25.372"/>
<path style="fill:#3B4F66;" d="M306.44,372.32v32.611c0,3.363-2.726,6.089-6.089,6.089h-88.7c-3.363,0-6.089-2.726-6.089-6.089
	V372.32H306.44z"/>
<path style="fill:#2C3B4D;" d="M286.143,372.32v32.611c0,3.363-2.726,6.089-6.089,6.089h20.297c3.363,0,6.089-2.726,6.089-6.089
	V372.32H286.143z"/>
<path style="fill:#CAEBF9;" d="M71.057,354.864V192.551c0-55.713,45.165-100.878,100.878-100.878s100.878,45.165,100.878,100.878
	v162.313H71.057V354.864z"/>
<path style="fill:#BCCED5;" d="M171.935,91.673c-3.425,0-6.811,0.173-10.149,0.506c50.947,5.09,90.729,48.084,90.729,100.371
	v162.313h20.297V192.551C272.813,136.837,227.649,91.673,171.935,91.673z"/>
<path style="fill:#3B4F66;" d="M233.1,226.179H110.774c-3.363,0-6.089-2.726-6.089-6.089v-21.449c0-3.363,2.726-6.089,6.089-6.089
	H233.1c3.363,0,6.089,2.726,6.089,6.089v21.449C239.189,223.453,236.462,226.179,233.1,226.179z"/>
<g>
	<path style="fill:#FCB043;" d="M247.595,184.94H96.278c-4.204,0-7.611,3.408-7.611,7.611c0,4.204,3.408,7.611,7.611,7.611h151.318
		c4.204,0,7.611-3.408,7.611-7.611C255.207,188.348,251.799,184.94,247.595,184.94z"/>
	<path style="fill:#FCB043;" d="M188.75,166.539h-33.626c-4.204,0-7.611-3.408-7.611-7.611c0-4.204,3.408-7.611,7.611-7.611h33.626
		c4.204,0,7.611,3.408,7.611,7.611C196.362,163.131,192.954,166.539,188.75,166.539z"/>
</g>
<circle style="fill:#3B4F66;" cx="323.256" cy="184.147" r="25.22"/>
<path style="fill:#04A1EE;" d="M401.229,66.454h-77.975V16.016h77.975c3.363,0,6.089,2.726,6.089,6.089v38.26
	C407.318,63.728,404.591,66.454,401.229,66.454z"/>
<g>
	<path style="fill:#FCB043;" d="M323.254,0c-4.204,0-7.612,3.408-7.612,7.611v176.536c0,4.204,3.408,7.611,7.612,7.611
		c4.204,0,7.611-3.408,7.611-7.611V7.611C330.865,3.408,327.457,0,323.254,0z"/>
	<path style="fill:#FCB043;" d="M451.667,377.495H60.333c-3.363,0-6.089-2.726-6.089-6.089v-21.447c0-3.363,2.726-6.089,6.089-6.089
		h391.333c3.363,0,6.089,2.726,6.089,6.089v21.447C457.756,374.769,455.03,377.495,451.667,377.495z"/>
</g>
<path style="fill:#F7A12F;" d="M451.667,377.495c3.363,0,6.089-2.726,6.089-6.089v-21.447c0-3.363-2.726-6.089-6.089-6.089h-162.04
	v33.626H451.667z"/>
<path style="fill:#0084CE;" d="M401.229,16.016h-20.297c3.363,0,6.089,2.726,6.089,6.089v38.26c0,3.363-2.726,6.089-6.089,6.089
	h20.297c3.363,0,6.089-2.726,6.089-6.089v-38.26C407.318,18.743,404.591,16.016,401.229,16.016z"/>
<path style="fill:#C62525;" d="M439.673,176.536h-32.356c-4.204,0-7.611,3.408-7.611,7.611c0,4.204,3.408,7.611,7.611,7.611h33.616
	C440.894,186.582,440.465,181.499,439.673,176.536z"/>
<g>
</g>
<g>
</g>
<g>
</g>
<g>
</g>
<g>
</g>
<g>
</g>
<g>
</g>
<g>
</g>
<g>
</g>
<g>
</g>
<g>
</g>
<g>
</g>
<g>
</g>
<g>
</g>
<g>
</g>
</svg>
