<?xml version="1.0" encoding="iso-8859-1"?>
<!-- Generator: Adobe Illustrator 19.0.0, SVG Export Plug-In . SVG Version: 6.00 Build 0)  -->
<svg version="1.1" id="Capa_1" xmlns="http://www.w3.org/2000/svg" xmlns:xlink="http://www.w3.org/1999/xlink" x="0px" y="0px"
	 viewBox="0 0 512 512" style="enable-background:new 0 0 512 512;" xml:space="preserve">
<path style="fill:#FCB043;" d="M494.932,170.662c9.426,0,17.068,7.642,17.068,17.067v307.2c0,9.426-7.642,17.068-17.068,17.068
	h-89.6H106.667h-89.6C7.642,511.996,0,504.356,0,494.929V187.73c0-9.426,7.642-17.067,17.067-17.067h477.865V170.662z"/>
<g>
	<path style="fill:#F7A12F;" d="M6.055,174.701L252.34,355.705c2.178,1.601,5.143,1.601,7.32,0L505.944,174.7
		c-2.973-2.515-6.813-4.038-11.012-4.038H17.067C12.868,170.662,9.029,172.186,6.055,174.701z"/>
	<path style="fill:#F7A12F;" d="M491.396,187.73v307.199c0,9.426-7.642,17.068-17.068,17.068h20.604
		c9.426,0,17.068-7.642,17.068-17.068V187.73c0-9.426-7.642-17.067-17.068-17.067h-20.604
		C483.754,170.662,491.396,178.304,491.396,187.73z"/>
</g>
<path style="fill:#EF9122;" d="M491.236,185.51l14.708-10.81l0,0c-0.286-0.242-0.587-0.467-0.889-0.69
	c-0.113-0.084-0.224-0.172-0.339-0.253c-0.273-0.192-0.556-0.369-0.841-0.545c-0.16-0.099-0.318-0.199-0.482-0.293
	c-0.267-0.152-0.54-0.295-0.815-0.434c-0.198-0.1-0.397-0.197-0.599-0.288c-0.26-0.118-0.523-0.23-0.789-0.336
	c-0.235-0.093-0.473-0.178-0.712-0.261c-0.249-0.087-0.5-0.17-0.754-0.245c-0.276-0.08-0.557-0.149-0.84-0.216
	c-0.232-0.056-0.463-0.114-0.698-0.16c-0.336-0.065-0.678-0.111-1.02-0.156c-0.194-0.026-0.384-0.061-0.58-0.079
	c-0.544-0.053-1.095-0.083-1.652-0.083H474.33C483,170.662,490.146,177.135,491.236,185.51z"/>
<path style="fill:#CAEBF9;" d="M113.285,477.865H40.314c-3.414,0-6.181-2.767-6.181-6.181v-72.971c0-3.414,2.767-6.181,6.181-6.181
	h72.971c3.414,0,6.181,2.767,6.181,6.181v72.971C119.466,475.098,116.699,477.865,113.285,477.865z"/>
<path style="fill:#04A1EE;" d="M87.686,452.266H65.913c-3.414,0-6.181-2.767-6.181-6.181v-21.773c0-3.414,2.767-6.181,6.181-6.181
	h21.773c3.414,0,6.181,2.767,6.181,6.181v21.773C93.867,449.499,91.1,452.266,87.686,452.266z"/>
<g>
	<path style="fill:#3B4F66;" d="M204.799,401.871h-51.2c-4.267,0-7.726,3.459-7.726,7.726s3.459,7.726,7.726,7.726h51.2
		c4.267,0,7.726-3.459,7.726-7.726S209.066,401.871,204.799,401.871z"/>
	<path style="fill:#3B4F66;" d="M204.799,436.008h-51.198c-4.267,0-7.726,3.459-7.726,7.726c0,4.267,3.459,7.726,7.726,7.726h51.198
		c4.267,0,7.726-3.459,7.726-7.726C212.525,439.466,209.066,436.008,204.799,436.008z"/>
	<path style="fill:#3B4F66;" d="M256,436.008h-25.6c-4.267,0-7.726,3.459-7.726,7.726c0,4.267,3.459,7.726,7.726,7.726H256
		c4.267,0,7.726-3.459,7.726-7.726C263.726,439.466,260.267,436.008,256,436.008z"/>
</g>
<path style="fill:#CAEBF9;" d="M426.666,232.966V6.184c0-3.414-2.767-6.181-6.181-6.181H91.515c-3.414,0-6.181,2.767-6.181,6.181
	v226.783L252.34,355.706c2.178,1.601,5.143,1.601,7.32,0L426.666,232.966z"/>
<path style="fill:#BCCED5;" d="M420.485,0.003h-20.604c3.414,0,6.181,2.767,6.181,6.181v241.925l20.604-15.143V6.184
	C426.666,2.77,423.899,0.003,420.485,0.003z"/>
<path style="fill:#3B4F66;" d="M341.333,197.075H170.667c-4.267,0-7.726,3.458-7.726,7.726v34.133c0,4.268,3.459,7.726,7.726,7.726
	h170.666c4.267,0,7.726-3.458,7.726-7.726v-34.133C349.059,200.535,345.6,197.075,341.333,197.075z M333.607,231.208H178.393v-18.68
	h155.213V231.208z"/>
<path style="fill:#FCB043;" d="M261.542,52.763l14.234,28.842l31.828,4.626c5.07,0.737,7.094,6.967,3.425,10.543l-23.032,22.45
	l5.437,31.7c0.866,5.049-4.434,8.9-8.969,6.516L256,142.473l-28.469,14.966c-4.535,2.384-9.834-1.467-8.969-6.516l5.437-31.7
	l-23.032-22.45c-3.668-3.576-1.644-9.806,3.425-10.543l31.828-4.626l14.234-28.842C252.724,48.17,259.276,48.17,261.542,52.763z"/>
<g>
</g>
<g>
</g>
<g>
</g>
<g>
</g>
<g>
</g>
<g>
</g>
<g>
</g>
<g>
</g>
<g>
</g>
<g>
</g>
<g>
</g>
<g>
</g>
<g>
</g>
<g>
</g>
<g>
</g>
</svg>
