<?xml version="1.0" encoding="iso-8859-1"?>
<!-- Generator: Adobe Illustrator 19.0.0, SVG Export Plug-In . SVG Version: 6.00 Build 0)  -->
<svg version="1.1" id="Capa_1" xmlns="http://www.w3.org/2000/svg" xmlns:xlink="http://www.w3.org/1999/xlink" x="0px" y="0px"
	 viewBox="0 0 512 512" style="enable-background:new 0 0 512 512;" xml:space="preserve">
<path style="fill:#CAEBF9;" d="M0,471.685V40.314c0-3.414,2.767-6.181,6.181-6.181h499.638c3.414,0,6.181,2.767,6.181,6.181v431.372
	c0,3.414-2.767,6.181-6.181,6.181H6.181C2.767,477.866,0,475.099,0,471.685z"/>
<path style="fill:#BCCED5;" d="M505.819,34.132h-20.604c3.414,0,6.181,2.767,6.181,6.181v431.372c0,3.414-2.767,6.181-6.181,6.181
	h20.604c3.414,0,6.181-2.767,6.181-6.181V40.314C512,36.9,509.233,34.132,505.819,34.132z"/>
<path style="fill:#04A1EE;" d="M511.999,102.399H0.003V40.314c0-3.414,2.767-6.181,6.181-6.181h499.635
	c3.414,0,6.181,2.767,6.181,6.181L511.999,102.399z"/>
<path style="fill:#3B4F66;" d="M511.999,443.729H0.003v27.956c0,3.414,2.767,6.181,6.181,6.181h499.635
	c3.414,0,6.181-2.767,6.181-6.181L511.999,443.729z"/>
<path style="fill:#E94141;" d="M471.727,68.264l3.07-3.07c3.017-3.018,3.017-7.91,0-10.927c-3.018-3.016-7.91-3.016-10.927,0
	l-3.07,3.07l-3.07-3.07c-3.018-3.016-7.91-3.016-10.927,0c-3.017,3.018-3.017,7.91,0,10.927l3.07,3.07l-3.07,3.07
	c-3.017,3.018-3.017,7.91,0,10.927c1.509,1.508,3.487,2.262,5.464,2.262c1.977,0,3.955-0.754,5.464-2.262l3.07-3.07l3.07,3.07
	c1.509,1.508,3.487,2.262,5.464,2.262c1.977,0,3.955-0.754,5.464-2.262c3.017-3.018,3.017-7.91,0-10.927L471.727,68.264z"/>
<path style="fill:#54CC4E;" d="M426.666,60.538H409.6c-4.268,0-7.726,3.458-7.726,7.726s3.458,7.726,7.726,7.726h17.066
	c4.268,0,7.726-3.458,7.726-7.726S430.934,60.538,426.666,60.538z"/>
<g>
	<path style="fill:#CAEBF9;" d="M383.999,60.538h-17.066c-4.268,0-7.726,3.458-7.726,7.726s3.458,7.726,7.726,7.726h17.066
		c4.268,0,7.726-3.458,7.726-7.726S388.267,60.538,383.999,60.538z"/>
	<path style="fill:#CAEBF9;" d="M119.468,60.54H34.134c-4.267,0-7.726,3.458-7.726,7.726s3.459,7.726,7.726,7.726h85.334
		c4.267,0,7.726-3.458,7.726-7.726S123.735,60.54,119.468,60.54z"/>
</g>
<g>
	<path style="fill:#04A1EE;" d="M439.511,360.241l-29.56-17.066c-3.697-2.132-8.422-0.869-10.554,2.828
		c-2.134,3.695-0.867,8.421,2.828,10.554l29.56,17.066c1.218,0.703,2.546,1.036,3.856,1.036c2.67,0,5.267-1.386,6.698-3.864
		C444.474,367.1,443.207,362.375,439.511,360.241z"/>
	<path style="fill:#04A1EE;" d="M460.8,265.34h-34.134c-4.268,0-7.726,3.458-7.726,7.726s3.458,7.726,7.726,7.726H460.8
		c4.268,0,7.726-3.458,7.726-7.726C468.526,268.798,465.068,265.34,460.8,265.34z"/>
	<path style="fill:#04A1EE;" d="M406.095,203.994c1.31,0,2.64-0.334,3.856-1.036l29.56-17.067c3.695-2.133,4.961-6.859,2.828-10.554
		c-2.135-3.696-6.861-4.96-10.554-2.828l-29.56,17.067c-3.695,2.134-4.961,6.859-2.828,10.554
		C400.828,202.608,403.425,203.994,406.095,203.994z"/>
	<path style="fill:#04A1EE;" d="M93.06,273.065c0-4.268-3.459-7.726-7.726-7.726H51.201c-4.267,0-7.726,3.458-7.726,7.726
		s3.459,7.726,7.726,7.726h34.133C89.601,280.792,93.06,277.332,93.06,273.065z"/>
	<path style="fill:#04A1EE;" d="M102.05,343.173l-29.561,17.066c-3.695,2.134-4.961,6.859-2.828,10.554
		c1.431,2.479,4.028,3.864,6.698,3.864c1.31,0,2.639-0.334,3.856-1.036l29.561-17.066c3.695-2.134,4.961-6.859,2.828-10.554
		C110.47,342.306,105.745,341.041,102.05,343.173z"/>
	<path style="fill:#04A1EE;" d="M72.49,185.889l29.56,17.067c1.217,0.703,2.546,1.036,3.856,1.036c2.67,0,5.267-1.386,6.698-3.864
		c2.133-3.695,0.867-8.421-2.828-10.554l-29.56-17.067c-3.696-2.134-8.421-0.869-10.554,2.828
		C67.528,179.029,68.794,183.755,72.49,185.889z"/>
</g>
<path style="fill:#0084CE;" d="M509.83,35.617c-1.08-0.923-2.48-1.484-4.012-1.484h-20.604c3.414,0,6.181,2.767,6.181,6.181v62.086
	h20.603L512,40.314C512,38.432,511.157,36.75,509.83,35.617z"/>
<path style="fill:#2C3B4D;" d="M505.819,477.866c3.414,0,6.181-2.767,6.181-6.181v-27.956h-20.604v27.957
	c0,3.413-2.767,6.18-6.18,6.181h20.603V477.866z"/>
<path style="fill:#FCB043;" d="M324.267,230.398h25.599c9.426,0,17.068,7.642,17.068,17.068v102.399
	c0,9.426-7.641,17.068-17.068,17.068H162.135c-9.426,0-17.067-7.642-17.067-17.068V247.467c0-9.426,7.641-17.068,17.067-17.068
	h25.599L324.267,230.398L324.267,230.398z"/>
<g>
	<path style="fill:#F7A12F;" d="M346.328,247.466v102.399c0,9.426-7.642,17.068-17.068,17.068h20.605
		c9.426,0,17.067-7.642,17.067-17.068V247.466c0-9.426-7.641-17.068-17.067-17.068H329.26
		C338.688,230.398,346.328,238.04,346.328,247.466z"/>
	<path style="fill:#F7A12F;" d="M366.612,353.146l-88.093-70.678c-3.33-2.673-8.191-2.139-10.861,1.191
		c-2.671,3.327-2.137,8.191,1.191,10.861l88.238,70.794C361.945,363.038,365.558,358.556,366.612,353.146z"/>
	<path style="fill:#F7A12F;" d="M154.915,365.313l88.237-70.797c3.329-2.67,3.861-7.534,1.191-10.861
		c-2.67-3.328-7.533-3.863-10.861-1.191l-88.092,70.68C146.443,358.555,150.056,363.038,154.915,365.313z"/>
	<path style="fill:#F7A12F;" d="M363.286,236.944c-3.125-3.98-7.967-6.545-13.42-6.545h-25.599H187.734h-25.599
		c-5.452,0-10.296,2.565-13.42,6.545l104.205,59.948c1.908,1.098,4.257,1.098,6.165,0L363.286,236.944z"/>
</g>
<path style="fill:#54CC4E;" d="M324.266,259.393v-91.079c0-3.414-2.767-6.181-6.181-6.181H193.916c-3.414,0-6.181,2.767-6.181,6.181
	v91.078l65.183,37.5c1.908,1.098,4.257,1.098,6.165,0L324.266,259.393z"/>
<path style="fill:#CAEBF9;" d="M256,180.006c-25.434,0-46.126,20.692-46.126,46.126c0,25.433,20.692,46.125,46.126,46.125
	c7.2,0,14.099-1.614,20.505-4.799c3.822-1.9,5.38-6.536,3.48-10.357c-1.9-3.82-6.536-5.381-10.357-3.48
	c-4.251,2.112-8.835,3.183-13.627,3.183c-16.913,0-30.674-13.759-30.674-30.673s13.76-30.674,30.674-30.674
	c16.914,0,30.674,13.76,30.674,30.674v6.399c0,1.622-1.32,2.941-2.941,2.941c-1.622,0-2.941-1.32-2.941-2.941l0.001-6.347
	c0-0.018,0.001-0.035,0.001-0.053c0-0.018-0.001-0.035-0.001-0.053l0.001-12.747c0-4.268-3.458-7.727-7.725-7.727
	c-0.001,0-0.001,0-0.001,0c-0.897,0-1.755,0.161-2.557,0.442c-4.083-2.959-9.095-4.709-14.511-4.709
	c-13.672,0-24.793,11.123-24.793,24.793c0,13.671,11.122,24.793,24.793,24.793c5.656,0,10.872-1.908,15.048-5.108
	c3.304,3.155,7.767,5.108,12.685,5.108c10.143,0,18.394-8.252,18.394-18.394v-6.399C302.127,200.698,281.435,180.006,256,180.006z
	 M256,235.474c-5.151,0-9.341-4.19-9.341-9.341c0-5.151,4.19-9.341,9.341-9.341c5.142,0,9.325,4.176,9.34,9.315v0.053
	C265.325,231.298,261.143,235.474,256,235.474z"/>
<path style="fill:#EF9122;" d="M346.291,246.722l16.995-9.777l0,0c-0.184-0.234-0.375-0.463-0.571-0.687
	c-0.064-0.073-0.13-0.143-0.196-0.215c-0.326-0.361-0.664-0.707-1.019-1.038c-0.11-0.103-0.221-0.204-0.334-0.304
	c-0.299-0.265-0.607-0.518-0.923-0.762c-0.166-0.128-0.333-0.254-0.503-0.376c-0.192-0.136-0.384-0.271-0.581-0.399
	c-0.308-0.201-0.622-0.392-0.944-0.574c-0.168-0.095-0.34-0.184-0.512-0.273c-0.333-0.172-0.67-0.338-1.014-0.488
	c-0.144-0.063-0.291-0.122-0.437-0.18c-0.356-0.144-0.718-0.277-1.086-0.397c-0.11-0.036-0.218-0.075-0.33-0.109
	c-0.445-0.135-0.898-0.249-1.357-0.349c-0.11-0.024-0.221-0.047-0.333-0.069c-0.474-0.093-0.954-0.168-1.441-0.22
	c-0.087-0.009-0.174-0.014-0.261-0.023c-0.521-0.047-1.047-0.079-1.58-0.079l0,0h-20.605
	C338.435,230.398,345.898,237.644,346.291,246.722z"/>
<g>
</g>
<g>
</g>
<g>
</g>
<g>
</g>
<g>
</g>
<g>
</g>
<g>
</g>
<g>
</g>
<g>
</g>
<g>
</g>
<g>
</g>
<g>
</g>
<g>
</g>
<g>
</g>
<g>
</g>
</svg>
