<?xml version="1.0" encoding="iso-8859-1"?>
<!-- Generator: Adobe Illustrator 19.0.0, SVG Export Plug-In . SVG Version: 6.00 Build 0)  -->
<svg version="1.1" id="Capa_1" xmlns="http://www.w3.org/2000/svg" xmlns:xlink="http://www.w3.org/1999/xlink" x="0px" y="0px"
	 viewBox="0 0 512 512" style="enable-background:new 0 0 512 512;" xml:space="preserve">
<path style="fill:#007BBF;" d="M511.32,285.35l-51.102-170.313l0.001,0.002c-1.95-7.279-8.593-12.639-16.488-12.639h-42.663H110.934
	H68.268c-7.894,0-14.537,5.36-16.488,12.639l0.001-0.002L0.679,285.35v18.621H511.32V285.35z"/>
<polygon style="fill:#006AA6;" points="471.996,273.065 431.03,136.533 80.968,136.533 40.002,273.065 40.002,322.343 
	471.996,322.343 "/>
<path style="fill:#005A8C;" d="M443.732,128.806H68.267c-4.267,0-7.726,3.459-7.726,7.726s3.459,7.726,7.726,7.726h375.465
	c4.267,0,7.726-3.459,7.726-7.726S447.999,128.806,443.732,128.806z"/>
<path style="fill:#04A1EE;" d="M361.492,273.065h133.44c9.426,0,17.068,7.642,17.068,17.068v102.396
	c0,9.426-7.642,17.068-17.068,17.068H17.067C7.641,409.596,0,401.955,0,392.529V290.133c0-9.426,7.641-17.068,17.067-17.068h133.441
	c1.946,0,3.778,0.916,4.945,2.472l21.892,29.19c1.167,1.557,2.999,2.472,4.945,2.472h147.419c1.946,0,3.778-0.916,4.945-2.472
	l21.892-29.19C357.714,273.981,359.547,273.065,361.492,273.065z"/>
<g>
	<path style="fill:#0084CE;" d="M134.85,275.537l21.892,29.19c1.167,1.557,2.999,2.472,4.945,2.472h20.604
		c-1.946,0-3.778-0.916-4.945-2.472l-21.892-29.19c-1.167-1.557-2.999-2.472-4.945-2.472h-20.604
		C131.851,273.065,133.682,273.981,134.85,275.537z"/>
	<path style="fill:#0084CE;" d="M494.932,273.065h-20.604c9.426,0,17.068,7.642,17.068,17.068v102.396
		c0,9.426-7.642,17.068-17.068,17.068h20.604c9.426,0,17.068-7.641,17.068-17.068V290.133
		C512,280.706,504.358,273.065,494.932,273.065z"/>
</g>
<path style="fill:#5ABDEE;" d="M392.534,367.737H119.466c-4.267,0-7.726,3.459-7.726,7.726s3.459,7.726,7.726,7.726h273.067
	c4.267,0,7.726-3.459,7.726-7.726C400.26,371.196,396.801,367.737,392.534,367.737z"/>
<g>
	<path style="fill:#CAEBF9;" d="M76.8,409.6v-45.02c0-3.414-2.767-6.181-6.181-6.181H48.848c-3.414,0-6.181,2.767-6.181,6.181v45.02
		H76.8z"/>
	<path style="fill:#CAEBF9;" d="M435.2,409.6v-45.02c0-3.414,2.767-6.181,6.181-6.181h21.772c3.414,0,6.181,2.767,6.181,6.181v45.02
		H435.2z"/>
</g>
<g>
</g>
<g>
</g>
<g>
</g>
<g>
</g>
<g>
</g>
<g>
</g>
<g>
</g>
<g>
</g>
<g>
</g>
<g>
</g>
<g>
</g>
<g>
</g>
<g>
</g>
<g>
</g>
<g>
</g>
</svg>
