<?xml version="1.0" encoding="iso-8859-1"?>
<!-- Generator: Adobe Illustrator 19.0.0, SVG Export Plug-In . SVG Version: 6.00 Build 0)  -->
<svg version="1.1" id="Capa_1" xmlns="http://www.w3.org/2000/svg" xmlns:xlink="http://www.w3.org/1999/xlink" x="0px" y="0px"
	 viewBox="0 0 512 512" style="enable-background:new 0 0 512 512;" xml:space="preserve">
<path style="fill:#007BBF;" d="M511.32,353.618l-51.102-170.313l0.001,0.002c-1.95-7.279-8.593-12.639-16.488-12.639h-42.663
	H110.934H68.268c-7.894,0-14.537,5.36-16.488,12.639l0.001-0.002L0.679,353.618v18.621H511.32V353.618z"/>
<polygon style="fill:#006AA6;" points="471.996,341.332 431.03,204.8 80.968,204.8 40.002,341.332 40.002,390.611 471.996,390.611 
	"/>
<path style="fill:#005A8C;" d="M443.732,197.074H68.267c-4.267,0-7.726,3.459-7.726,7.726c0,4.267,3.459,7.726,7.726,7.726h375.465
	c4.267,0,7.726-3.459,7.726-7.726C451.458,200.533,447.999,197.074,443.732,197.074z"/>
<path style="fill:#CAEBF9;" d="M110.934,382.539V40.313c0-3.414,2.767-6.181,6.181-6.181h277.772c3.414,0,6.181,2.767,6.181,6.181
	v342.226H110.934z"/>
<path style="fill:#BCCED5;" d="M394.887,34.132h-20.604c3.414,0,6.181,2.767,6.181,6.181v342.226h20.604V40.313
	C401.068,36.9,398.3,34.132,394.887,34.132z"/>
<g>
	<circle style="fill:#3B4F66;" cx="196.27" cy="247.47" r="25.6"/>
	<circle style="fill:#3B4F66;" cx="315.73" cy="230.4" r="25.6"/>
	<polygon style="fill:#3B4F66;" points="221.867,119.467 221.867,146.801 339.445,128.001 339.445,102.4 	"/>
	<path style="fill:#3B4F66;" d="M349.06,102.4c0-0.045-0.006-0.09-0.007-0.135c-0.003-0.137-0.011-0.275-0.021-0.414
		c-0.009-0.136-0.021-0.271-0.037-0.405c-0.006-0.046-0.006-0.092-0.012-0.138c-0.009-0.068-0.028-0.132-0.039-0.199
		c-0.026-0.15-0.054-0.301-0.088-0.449c-0.024-0.103-0.051-0.205-0.078-0.306c-0.04-0.146-0.083-0.292-0.132-0.435
		c-0.034-0.1-0.071-0.199-0.109-0.298c-0.054-0.138-0.109-0.274-0.17-0.408c-0.044-0.097-0.091-0.192-0.138-0.286
		c-0.066-0.131-0.135-0.26-0.208-0.386c-0.051-0.088-0.104-0.174-0.158-0.26c-0.081-0.13-0.166-0.255-0.255-0.379
		c-0.053-0.073-0.106-0.145-0.162-0.216c-0.101-0.131-0.206-0.259-0.315-0.383c-0.049-0.056-0.099-0.11-0.149-0.164
		c-0.125-0.134-0.253-0.263-0.387-0.388c-0.04-0.037-0.08-0.074-0.121-0.11c-0.15-0.135-0.306-0.263-0.467-0.385
		c-0.029-0.022-0.058-0.043-0.087-0.065c-0.174-0.13-0.354-0.25-0.54-0.365c-0.021-0.012-0.041-0.026-0.062-0.038
		c-0.192-0.115-0.389-0.224-0.591-0.322c-0.02-0.01-0.04-0.02-0.061-0.029c-0.2-0.096-0.404-0.183-0.613-0.263
		c-0.03-0.011-0.06-0.022-0.09-0.032c-0.197-0.072-0.397-0.135-0.601-0.191c-0.049-0.013-0.1-0.026-0.149-0.038
		c-0.184-0.046-0.371-0.087-0.56-0.119c-0.075-0.013-0.151-0.024-0.227-0.035c-0.168-0.024-0.336-0.044-0.507-0.057
		c-0.099-0.008-0.199-0.011-0.299-0.015c-0.096-0.003-0.19-0.014-0.286-0.014c-0.062,0-0.122,0.008-0.183,0.009
		c-0.105,0.002-0.211,0.009-0.316,0.015c-0.159,0.01-0.316,0.023-0.473,0.042c-0.04,0.005-0.08,0.005-0.121,0.01l-119.467,17.064
		c-0.085,0.012-0.167,0.034-0.251,0.048c-0.12,0.022-0.239,0.043-0.357,0.07c-0.135,0.031-0.268,0.066-0.401,0.103
		c-0.112,0.032-0.224,0.064-0.334,0.101c-0.137,0.045-0.272,0.096-0.405,0.148c-0.098,0.039-0.196,0.078-0.292,0.122
		c-0.139,0.062-0.275,0.128-0.41,0.198c-0.084,0.044-0.169,0.089-0.252,0.135c-0.137,0.077-0.271,0.16-0.403,0.245
		c-0.076,0.049-0.15,0.099-0.225,0.151c-0.13,0.091-0.254,0.184-0.378,0.282c-0.072,0.058-0.143,0.115-0.213,0.175
		c-0.116,0.099-0.229,0.202-0.338,0.307c-0.071,0.068-0.141,0.138-0.21,0.209c-0.099,0.103-0.196,0.209-0.288,0.318
		c-0.071,0.082-0.14,0.166-0.208,0.251c-0.082,0.105-0.162,0.211-0.239,0.32c-0.069,0.096-0.135,0.194-0.199,0.294
		c-0.068,0.106-0.133,0.213-0.196,0.322c-0.062,0.107-0.122,0.215-0.178,0.326c-0.057,0.11-0.11,0.223-0.162,0.336
		c-0.052,0.112-0.1,0.227-0.146,0.342c-0.047,0.121-0.092,0.241-0.133,0.364c-0.038,0.112-0.074,0.225-0.107,0.338
		c-0.038,0.133-0.072,0.268-0.104,0.404c-0.025,0.107-0.048,0.215-0.069,0.325c-0.027,0.146-0.048,0.294-0.068,0.442
		c-0.013,0.105-0.026,0.21-0.035,0.316c-0.012,0.151-0.02,0.304-0.023,0.458c-0.002,0.067-0.01,0.133-0.01,0.201v99.893
		c-5.169-3.3-11.3-5.221-17.875-5.221c-18.376,0-33.326,14.951-33.326,33.327s14.95,33.327,33.326,33.327
		s33.327-14.951,33.327-33.327v-95.699l104.014-14.858v65.386c-5.169-3.3-11.3-5.221-17.875-5.221
		c-18.376,0-33.327,14.951-33.327,33.327s14.951,33.327,33.327,33.327c18.376,0,33.327-14.951,33.327-33.327v-0.001v-0.001
		L349.06,102.4L349.06,102.4z M196.267,265.341c-9.856,0-17.874-8.018-17.874-17.875s8.018-17.875,17.874-17.875
		s17.875,8.018,17.875,17.875S206.123,265.341,196.267,265.341z M229.593,136.158v-9.991l104.014-14.857v9.99L229.593,136.158z
		 M315.733,248.276c-9.856,0-17.875-8.018-17.875-17.875s8.018-17.875,17.875-17.875c9.857,0,17.875,8.018,17.875,17.875
		S325.59,248.276,315.733,248.276z"/>
</g>
<path style="fill:#04A1EE;" d="M361.492,341.332h133.44c9.426,0,17.068,7.642,17.068,17.067v102.396
	c0,9.426-7.642,17.067-17.068,17.067H17.067C7.641,477.864,0,470.222,0,460.796V358.4c0-9.426,7.641-17.067,17.067-17.067h133.441
	c1.946,0,3.778,0.916,4.945,2.472l21.892,29.19c1.167,1.557,2.999,2.472,4.945,2.472h147.419c1.946,0,3.778-0.916,4.945-2.472
	l21.892-29.19C357.714,342.248,359.547,341.332,361.492,341.332z"/>
<g>
	<path style="fill:#0084CE;" d="M134.85,343.804l21.892,29.19c1.167,1.557,2.999,2.472,4.945,2.472h20.604
		c-1.946,0-3.778-0.916-4.945-2.472l-21.892-29.19c-1.167-1.557-2.999-2.472-4.945-2.472h-20.604
		C131.851,341.332,133.682,342.248,134.85,343.804z"/>
	<path style="fill:#0084CE;" d="M494.932,341.332h-20.604c9.426,0,17.068,7.642,17.068,17.067v102.396
		c0,9.426-7.642,17.067-17.068,17.067h20.604c9.426,0,17.068-7.641,17.068-17.067V358.4
		C512,348.974,504.358,341.332,494.932,341.332z"/>
</g>
<path style="fill:#5ABDEE;" d="M392.534,436.004H119.466c-4.267,0-7.726,3.459-7.726,7.726c0,4.267,3.459,7.726,7.726,7.726h273.067
	c4.267,0,7.726-3.459,7.726-7.726C400.259,439.463,396.801,436.004,392.534,436.004z"/>
<g>
	<path style="fill:#CAEBF9;" d="M76.8,477.868v-45.02c0-3.414-2.767-6.181-6.181-6.181H48.848c-3.414,0-6.181,2.767-6.181,6.181
		v45.02H76.8z"/>
	<path style="fill:#CAEBF9;" d="M435.2,477.868v-45.02c0-3.414,2.767-6.181,6.181-6.181h21.772c3.414,0,6.181,2.767,6.181,6.181
		v45.02H435.2z"/>
</g>
<g>
</g>
<g>
</g>
<g>
</g>
<g>
</g>
<g>
</g>
<g>
</g>
<g>
</g>
<g>
</g>
<g>
</g>
<g>
</g>
<g>
</g>
<g>
</g>
<g>
</g>
<g>
</g>
<g>
</g>
</svg>
