<?xml version="1.0" encoding="iso-8859-1"?>
<!-- Generator: Adobe Illustrator 19.0.0, SVG Export Plug-In . SVG Version: 6.00 Build 0)  -->
<svg version="1.1" id="Capa_1" xmlns="http://www.w3.org/2000/svg" xmlns:xlink="http://www.w3.org/1999/xlink" x="0px" y="0px"
	 viewBox="0 0 512 512" style="enable-background:new 0 0 512 512;" xml:space="preserve">
<path style="fill:#CAEBF9;" d="M157.462,512c0-9.426,7.641-17.067,17.067-17.067c9.426,0,17.067,7.641,17.067,17.067h34.133
	c0-9.426,7.641-17.067,17.067-17.067c9.426,0,17.067,7.641,17.067,17.067h34.133c0-9.426,7.641-17.067,17.067-17.067
	c9.426,0,17.067,7.641,17.067,17.067h34.133c0-9.426,7.641-17.067,17.067-17.067s17.067,7.641,17.067,17.067h34.134
	c0-9.426,7.641-17.067,17.067-17.067s17.067,7.641,17.067,17.067h27.953c3.414,0,6.181-2.767,6.181-6.181v-27.941h-0.006
	c-7.362,0-14.081-4.646-16.239-11.683c-3.592-11.716,5.073-22.45,16.243-22.45h0.001V409.61h-0.006
	c-7.362,0-14.081-4.646-16.239-11.683c-3.592-11.717,5.073-22.45,16.243-22.45h0.001v-34.135h-0.006
	c-7.362,0-14.081-4.646-16.238-11.683c-3.592-11.717,5.073-22.451,16.243-22.451h0.001v-34.135h-0.006
	c-7.362,0-14.081-4.646-16.239-11.683c-3.592-11.717,5.072-22.451,16.243-22.451h0.001v-34.135h-0.006
	c-7.362,0-14.081-4.646-16.239-11.683c-3.592-11.717,5.072-22.451,16.243-22.451h0.001v-34.135l0,0
	c-11.171,0-19.836-10.733-16.244-22.45c2.158-7.038,8.877-11.683,16.238-11.683h0.006V68.265l0,0
	c-11.171,0-19.836-10.733-16.244-22.45c2.158-7.038,8.877-11.683,16.238-11.683h0.006V6.181c0-3.414-2.767-6.181-6.181-6.181
	h-27.953c0,9.426-7.641,17.067-17.067,17.067S430.527,9.426,430.527,0h-34.134c0,9.426-7.641,17.067-17.067,17.067
	S362.263,9.426,362.263,0H328.13c0,9.426-7.641,17.067-17.067,17.067c-9.426,0-17.067-7.641-17.067-17.067h-34.133
	c0,9.426-7.641,17.067-17.067,17.067c-9.426,0-17.067-7.641-17.067-17.067h-34.133c0,9.426-7.641,17.067-17.067,17.067
	c-9.426,0-17.067-7.641-17.067-17.067h-27.951c-3.414,0-6.181,2.767-6.181,6.181v27.941h0.006c7.362,0,14.081,4.646,16.239,11.683
	c3.592,11.716-5.073,22.45-16.244,22.45h-0.001v34.135h0.006c7.362,0,14.081,4.646,16.239,11.683
	c3.592,11.716-5.073,22.45-16.244,22.45h-0.001v34.135h0.006c7.361,0,14.081,4.646,16.238,11.683
	c3.592,11.716-5.073,22.45-16.243,22.45h-0.001v34.135h0.006c7.362,0,14.081,4.645,16.239,11.683
	c3.592,11.717-5.072,22.451-16.243,22.451h-0.001v34.135h0.006c7.362,0,14.081,4.645,16.239,11.683
	c3.592,11.717-5.072,22.451-16.243,22.451h-0.001v34.135h0.001c11.171,0,19.836,10.733,16.243,22.451
	c-2.158,7.038-8.877,11.683-16.238,11.683h-0.006v34.135h0.001c11.171,0,19.836,10.733,16.243,22.451
	c-2.158,7.038-8.877,11.683-16.238,11.683h-0.006v27.952c0,3.414,2.767,6.181,6.181,6.181H157.462z"/>
<path style="fill:#04A1EE;" d="M174.53,454.619V57.381c0-3.414,2.767-6.181,6.181-6.181h260.705c3.414,0,6.181,2.767,6.181,6.181
	v397.238c0,3.414-2.767,6.181-6.181,6.181H180.711C177.297,460.8,174.53,458.033,174.53,454.619z"/>
<circle style="fill:#FCB043;" cx="234.263" cy="110.93" r="25.601"/>
<path style="fill:#54CC4E;" d="M447.595,290.132l-46.83-46.83c-2.414-2.414-6.327-2.414-8.741,0l-72.429,72.428L281.3,277.435
	c-2.414-2.414-6.327-2.414-8.741,0l-98.029,98.028v79.156c0,3.414,2.767,6.181,6.181,6.181h260.705c3.414,0,6.181-2.767,6.181-6.181
	L447.595,290.132z"/>
<path style="fill:#5ABDEE;" d="M447.595,102.401h-85.331c-9.425,0-17.066,7.641-17.066,17.066s7.641,17.066,17.066,17.066
	l17.068,0.001c9.425,0,17.066,7.641,17.066,17.066c0,9.425-7.641,17.066-17.066,17.066H328.13c-9.425,0-17.066,7.641-17.066,17.066
	c0,9.425,7.641,17.066,17.066,17.066h119.467L447.595,102.401z"/>
<g>
	<path style="fill:#3B4F66;" d="M20.928,178.396c0.81,0,1.634-0.129,2.445-0.399l48.755-16.254l48.756,16.254
		c0.014,0.005,0.029,0.006,0.044,0.01c0.307,0.101,0.624,0.17,0.944,0.232c0.082,0.015,0.164,0.045,0.246,0.059
		c0.398,0.064,0.801,0.097,1.209,0.097l0,0l0,0c0.409,0,0.814-0.034,1.213-0.098c0.067-0.01,0.134-0.035,0.202-0.048
		c0.335-0.063,0.665-0.137,0.987-0.242c0.014-0.004,0.029-0.006,0.043-0.01l48.756-16.254l48.755,16.254
		c0.811,0.271,1.635,0.399,2.445,0.399c3.235,0,6.249-2.047,7.329-5.285c1.349-4.049-0.839-8.424-4.886-9.773l-51.199-17.068
		c-0.067-0.023-0.135-0.036-0.202-0.057c-0.113-0.035-0.228-0.066-0.343-0.096c-0.14-0.036-0.279-0.068-0.419-0.096
		c-0.099-0.02-0.199-0.036-0.3-0.052c-0.158-0.025-0.314-0.045-0.472-0.06c-0.084-0.008-0.169-0.013-0.254-0.019
		c-0.173-0.01-0.345-0.016-0.516-0.015c-0.074,0.001-0.148,0.004-0.223,0.006c-0.182,0.007-0.364,0.019-0.544,0.038
		c-0.069,0.007-0.137,0.016-0.206,0.026c-0.185,0.026-0.37,0.057-0.553,0.095c-0.068,0.014-0.136,0.03-0.204,0.046
		c-0.181,0.043-0.36,0.093-0.536,0.148c-0.039,0.012-0.078,0.02-0.117,0.033l-48.757,16.254l-48.757-16.254
		c-0.07-0.024-0.14-0.037-0.209-0.059c-0.109-0.033-0.218-0.064-0.329-0.092c-0.143-0.037-0.287-0.07-0.432-0.098
		c-0.096-0.019-0.193-0.035-0.288-0.049c-0.16-0.025-0.319-0.046-0.479-0.061c-0.082-0.008-0.166-0.012-0.249-0.018
		c-0.173-0.01-0.346-0.016-0.518-0.015c-0.075,0.001-0.149,0.004-0.225,0.006c-0.18,0.007-0.361,0.019-0.539,0.038
		c-0.071,0.007-0.142,0.018-0.214,0.027c-0.182,0.025-0.363,0.056-0.542,0.093c-0.072,0.015-0.144,0.032-0.216,0.049
		c-0.176,0.042-0.349,0.09-0.521,0.144c-0.041,0.013-0.083,0.021-0.125,0.035l-51.199,17.068c-4.049,1.351-6.236,5.726-4.886,9.773
		C14.679,176.349,17.694,178.396,20.928,178.396z"/>
	<path style="fill:#3B4F66;" d="M228.173,214.538l-51.199-17.067c-0.064-0.022-0.128-0.034-0.192-0.054
		c-0.121-0.037-0.241-0.07-0.364-0.101c-0.133-0.034-0.266-0.065-0.399-0.091c-0.106-0.021-0.213-0.039-0.32-0.056
		c-0.15-0.023-0.3-0.043-0.45-0.058c-0.092-0.008-0.183-0.014-0.276-0.02c-0.166-0.01-0.331-0.015-0.496-0.014
		c-0.08,0.001-0.161,0.004-0.241,0.007c-0.176,0.006-0.352,0.018-0.526,0.037c-0.073,0.008-0.146,0.019-0.22,0.028
		c-0.181,0.025-0.362,0.055-0.541,0.093c-0.071,0.014-0.141,0.032-0.212,0.048c-0.179,0.043-0.355,0.092-0.531,0.147
		c-0.039,0.012-0.078,0.02-0.118,0.033l-48.757,16.253l-48.757-16.253c-0.064-0.022-0.129-0.034-0.194-0.054
		c-0.122-0.037-0.245-0.071-0.369-0.103c-0.127-0.032-0.252-0.061-0.378-0.087c-0.118-0.024-0.238-0.043-0.357-0.062
		c-0.134-0.021-0.268-0.038-0.403-0.052c-0.113-0.011-0.227-0.018-0.34-0.024c-0.141-0.007-0.281-0.012-0.422-0.012
		c-0.109,0-0.217,0.004-0.327,0.009c-0.145,0.006-0.291,0.015-0.435,0.03c-0.105,0.01-0.21,0.025-0.316,0.04
		c-0.147,0.022-0.294,0.045-0.44,0.075c-0.103,0.021-0.206,0.045-0.309,0.07c-0.145,0.036-0.289,0.075-0.432,0.119
		c-0.055,0.016-0.11,0.028-0.165,0.045l-51.199,17.067c-4.049,1.351-6.236,5.726-4.886,9.773c1.08,3.238,4.094,5.285,7.329,5.285
		c0.81,0,1.634-0.129,2.445-0.399l48.755-16.253l48.756,16.253c0.014,0.005,0.029,0.006,0.042,0.01
		c0.326,0.107,0.66,0.182,0.998,0.245c0.064,0.012,0.127,0.035,0.191,0.045c0.399,0.064,0.804,0.097,1.213,0.097l0,0l0,0
		c0.409,0,0.814-0.034,1.213-0.097c0.067-0.01,0.134-0.035,0.202-0.048c0.335-0.063,0.665-0.137,0.987-0.242
		c0.014-0.004,0.029-0.006,0.043-0.01l48.756-16.253l48.755,16.253c0.811,0.271,1.635,0.399,2.445,0.399
		c3.235,0,6.249-2.047,7.329-5.285C234.408,220.264,232.221,215.889,228.173,214.538z"/>
	<path style="fill:#3B4F66;" d="M228.173,265.738l-51.199-17.067c-0.061-0.021-0.123-0.032-0.183-0.05
		c-0.127-0.039-0.254-0.074-0.383-0.107c-0.125-0.032-0.25-0.061-0.376-0.085c-0.115-0.023-0.232-0.042-0.348-0.061
		c-0.14-0.022-0.28-0.04-0.421-0.054c-0.102-0.01-0.205-0.016-0.308-0.022c-0.156-0.008-0.309-0.014-0.464-0.013
		c-0.092,0.001-0.182,0.004-0.274,0.008c-0.166,0.007-0.331,0.018-0.494,0.035c-0.083,0.008-0.166,0.021-0.249,0.032
		c-0.173,0.024-0.344,0.053-0.514,0.088c-0.078,0.016-0.157,0.035-0.234,0.054c-0.173,0.041-0.343,0.089-0.512,0.142
		c-0.042,0.013-0.084,0.022-0.127,0.035l-48.757,16.253l-48.757-16.253c-0.062-0.021-0.124-0.033-0.185-0.052
		c-0.129-0.039-0.258-0.075-0.388-0.108c-0.118-0.03-0.238-0.058-0.356-0.081c-0.128-0.026-0.255-0.046-0.384-0.066
		c-0.125-0.019-0.249-0.035-0.373-0.047c-0.124-0.012-0.248-0.02-0.373-0.026c-0.131-0.006-0.261-0.011-0.389-0.011
		c-0.119,0-0.238,0.005-0.357,0.01c-0.135,0.006-0.27,0.014-0.404,0.029c-0.114,0.011-0.23,0.027-0.344,0.044
		c-0.139,0.021-0.276,0.043-0.413,0.071c-0.11,0.023-0.22,0.048-0.331,0.075c-0.139,0.034-0.276,0.072-0.412,0.114
		c-0.058,0.018-0.116,0.029-0.174,0.048L18.487,265.74c-4.049,1.351-6.236,5.726-4.886,9.773c1.08,3.238,4.094,5.285,7.329,5.285
		c0.81,0,1.634-0.129,2.445-0.399l48.755-16.253l48.756,16.253c0.014,0.005,0.029,0.006,0.042,0.01
		c0.326,0.107,0.66,0.182,0.998,0.245c0.064,0.012,0.127,0.035,0.191,0.045c0.399,0.064,0.804,0.098,1.213,0.098l0,0l0,0
		c0.409,0,0.814-0.034,1.213-0.098c0.067-0.01,0.134-0.035,0.202-0.048c0.335-0.063,0.665-0.137,0.987-0.242
		c0.014-0.004,0.029-0.006,0.043-0.01l48.756-16.253l48.755,16.253c0.811,0.271,1.635,0.399,2.445,0.399
		c3.235,0,6.249-2.047,7.329-5.285C234.408,271.464,232.221,267.089,228.173,265.738z"/>
</g>
<g>
	<path style="fill:#BCCED5;" d="M222.19,17.067c3.876,0,7.438-1.307,10.303-3.484C228.39,10.466,225.729,5.55,225.729,0h-20.606
		C205.123,9.426,212.764,17.067,222.19,17.067z"/>
	<path style="fill:#BCCED5;" d="M290.457,17.067c3.876,0,7.438-1.307,10.303-3.484c-4.102-3.117-6.764-8.033-6.764-13.583H273.39
		C273.391,9.426,281.031,17.067,290.457,17.067z"/>
	<path style="fill:#BCCED5;" d="M153.922,17.067c3.876,0,7.438-1.307,10.303-3.484c-4.103-3.117-6.764-8.033-6.764-13.583h-20.606
		C136.856,9.426,144.497,17.067,153.922,17.067z"/>
	<path style="fill:#BCCED5;" d="M426.992,17.067c3.876,0,7.438-1.307,10.303-3.484C433.191,10.467,430.53,5.55,430.53,0h-20.606
		C409.924,9.426,417.565,17.067,426.992,17.067z"/>
	<path style="fill:#BCCED5;" d="M358.724,17.067c3.876,0,7.438-1.307,10.303-3.484c-4.103-3.116-6.764-8.033-6.764-13.583h-20.606
		C341.658,9.426,349.298,17.067,358.724,17.067z"/>
	<path style="fill:#BCCED5;" d="M153.922,494.933c-9.426,0-17.067,7.642-17.067,17.067h-7.35c0.002,0,0.003,0,0.005,0h27.951
		c0-5.55,2.661-10.467,6.764-13.583C161.36,496.239,157.799,494.933,153.922,494.933z"/>
	<path style="fill:#BCCED5;" d="M426.992,494.933c-9.426,0-17.067,7.642-17.067,17.067h20.606c0-5.55,2.661-10.467,6.764-13.583
		C434.429,496.239,430.867,494.933,426.992,494.933z"/>
	<path style="fill:#BCCED5;" d="M222.19,494.933c-9.426,0-17.067,7.642-17.067,17.067h20.606c0-5.55,2.661-10.467,6.764-13.583
		C229.628,496.239,226.066,494.933,222.19,494.933z"/>
	<path style="fill:#BCCED5;" d="M498.793,34.131h0.006V6.181c0-3.414-2.767-6.181-6.181-6.181h-20.606
		c3.414,0,6.181,2.767,6.181,6.181v27.95h-0.006c-7.361,0-14.081,4.646-16.238,11.683c-3.592,11.717,5.072,22.45,16.244,22.45l0,0
		V102.4h-0.006c-7.361,0-14.081,4.645-16.238,11.683c-3.592,11.716,5.072,22.45,16.244,22.45l0,0v34.135h-0.001
		c-11.171,0-19.836,10.733-16.243,22.451c2.158,7.038,8.877,11.683,16.239,11.683h0.006v34.135h-0.001
		c-11.171,0-19.836,10.733-16.243,22.451c2.158,7.038,8.877,11.683,16.239,11.683h0.006v34.135h-0.001
		c-11.171,0-19.836,10.733-16.243,22.451c2.158,7.038,8.877,11.683,16.238,11.683h0.006v34.135h-0.001
		c-11.171,0-19.835,10.732-16.243,22.45c2.157,7.038,8.877,11.683,16.238,11.683h0.006v34.135h-0.001
		c-11.171,0-19.835,10.733-16.243,22.45c2.157,7.038,8.877,11.683,16.238,11.683h0.006v27.943c0,3.412-2.765,6.178-6.176,6.181
		h20.601c3.414,0,6.181-2.767,6.181-6.181v-27.941h-0.006c-7.362,0-14.081-4.646-16.238-11.683
		c-3.592-11.717,5.072-22.45,16.243-22.45h0.001V409.61h-0.006c-7.362,0-14.081-4.646-16.238-11.683
		c-3.592-11.717,5.072-22.45,16.243-22.45h0.001v-34.135h-0.006c-7.362,0-14.081-4.646-16.238-11.683
		c-3.592-11.717,5.072-22.451,16.243-22.451h0.001v-34.135h-0.005c-7.362,0-14.081-4.646-16.239-11.683
		c-3.593-11.716,5.072-22.451,16.243-22.451h0.001v-34.135h-0.005c-7.362,0-14.081-4.645-16.239-11.683
		c-3.593-11.717,5.072-22.451,16.243-22.451h0.001v-34.135H498.8c-11.171,0-19.836-10.733-16.244-22.45
		c2.157-7.038,8.877-11.683,16.238-11.683h0.006V68.265h-0.001c-11.171,0-19.836-10.733-16.244-22.45
		C484.713,38.777,491.431,34.131,498.793,34.131z"/>
	<path style="fill:#BCCED5;" d="M290.457,494.933c-9.426,0-17.067,7.642-17.067,17.067h20.606c0-5.55,2.661-10.467,6.764-13.583
		C297.895,496.239,294.333,494.933,290.457,494.933z"/>
	<path style="fill:#BCCED5;" d="M358.724,494.933c-9.425,0-17.067,7.642-17.067,17.067h20.606c0-5.55,2.661-10.467,6.764-13.583
		C366.162,496.239,362.6,494.933,358.724,494.933z"/>
</g>
<g>
</g>
<g>
</g>
<g>
</g>
<g>
</g>
<g>
</g>
<g>
</g>
<g>
</g>
<g>
</g>
<g>
</g>
<g>
</g>
<g>
</g>
<g>
</g>
<g>
</g>
<g>
</g>
<g>
</g>
</svg>
