<?xml version="1.0" encoding="iso-8859-1"?>
<!-- Generator: Adobe Illustrator 19.0.0, SVG Export Plug-In . SVG Version: 6.00 Build 0)  -->
<svg version="1.1" id="Capa_1" xmlns="http://www.w3.org/2000/svg" xmlns:xlink="http://www.w3.org/1999/xlink" x="0px" y="0px"
	 viewBox="0 0 512 512" style="enable-background:new 0 0 512 512;" xml:space="preserve">
<path style="fill:#E94141;" d="M340.063,453.949v50.44h67.253V67.252C407.316,30.11,377.207,0,340.065,0H171.934
	c-37.142,0-67.252,30.11-67.252,67.252v437.136h67.25v-50.437"/>
<g>
	<path style="fill:#C62525;" d="M356.878,461.563H155.121c-4.204,0-7.611-3.407-7.611-7.612s3.408-7.611,7.611-7.611h201.758
		c4.204,0,7.612,3.407,7.612,7.611C364.49,458.155,361.082,461.563,356.878,461.563z"/>
	<rect x="104.683" y="118.486" style="fill:#C62525;" width="302.633" height="15.223"/>
	<rect x="104.683" y="379.083" style="fill:#C62525;" width="302.633" height="15.223"/>
</g>
<path style="fill:#3B4F66;" d="M333.975,84.065h-155.95c-3.363,0-6.089-2.726-6.089-6.089V56.529c0-3.363,2.726-6.089,6.089-6.089
	h155.95c3.363,0,6.089,2.726,6.089,6.089v21.447C340.064,81.34,337.338,84.065,333.975,84.065z"/>
<path style="fill:#FCB043;" d="M356.877,42.827H155.122c-4.205,0-7.611,3.407-7.611,7.611s3.407,7.611,7.611,7.611h201.755
	c4.205,0,7.612-3.407,7.612-7.611S361.082,42.827,356.877,42.827z"/>
<path style="fill:#CAEBF9;" d="M333.975,336.259h-155.95c-3.363,0-6.089-2.726-6.089-6.089v-155.95c0-3.363,2.726-6.089,6.089-6.089
	h155.95c3.363,0,6.089,2.726,6.089,6.089v155.95C340.064,333.533,337.338,336.259,333.975,336.259z"/>
<path style="fill:#BCCED5;" d="M333.975,168.13h-20.297c3.363,0,6.089,2.726,6.089,6.089v155.95c0,3.363-2.726,6.089-6.089,6.089
	h20.297c3.363,0,6.089-2.726,6.089-6.089v-155.95C340.064,170.856,337.338,168.13,333.975,168.13z"/>
<path style="fill:#FCB043;" d="M213.967,303.427h-16.813c-4.205,0-7.611,3.408-7.611,7.612c0,4.205,3.407,7.611,7.611,7.611h16.813
	c4.205,0,7.611-3.407,7.611-7.611C221.578,306.835,218.171,303.427,213.967,303.427z"/>
<g>
	<path style="fill:#3B4F66;" d="M213.967,208.841h84.065c4.205,0,7.612-3.407,7.612-7.611c0-4.205-3.407-7.611-7.612-7.611h-84.065
		c-4.205,0-7.611,3.407-7.611,7.611C206.355,205.433,209.763,208.841,213.967,208.841z"/>
	<path style="fill:#3B4F66;" d="M298.032,227.768h-84.065c-4.205,0-7.611,3.407-7.611,7.611c0,4.205,3.407,7.611,7.611,7.611h84.065
		c4.205,0,7.612-3.407,7.612-7.611C305.644,231.176,302.237,227.768,298.032,227.768z"/>
	<path style="fill:#3B4F66;" d="M298.032,261.921h-84.065c-4.205,0-7.611,3.407-7.611,7.612s3.407,7.611,7.611,7.611h84.065
		c4.205,0,7.612-3.407,7.612-7.611S302.237,261.921,298.032,261.921z"/>
</g>
<g>
	<polygon style="fill:#C62525;" points="319.766,453.949 151.636,453.952 151.636,504.389 171.933,504.389 171.933,453.952 
		319.766,453.95 	"/>
	<path style="fill:#C62525;" d="M340.065,0h-20.297c37.142,0,67.252,30.11,67.252,67.252v437.136h20.297V67.252
		C407.316,30.11,377.207,0,340.065,0z"/>
</g>
<g>
	<path style="fill:#3B4F66;" d="M188.746,496.777H87.871c-4.204,0-7.611,3.407-7.611,7.612S83.667,512,87.871,512h100.877
		c4.204,0,7.611-3.407,7.611-7.611S192.95,496.777,188.746,496.777z"/>
	<path style="fill:#3B4F66;" d="M424.129,496.777H323.252c-4.204,0-7.612,3.407-7.612,7.612s3.408,7.611,7.612,7.611h100.878
		c4.204,0,7.612-3.407,7.612-7.611S428.333,496.777,424.129,496.777z"/>
</g>
<g>
</g>
<g>
</g>
<g>
</g>
<g>
</g>
<g>
</g>
<g>
</g>
<g>
</g>
<g>
</g>
<g>
</g>
<g>
</g>
<g>
</g>
<g>
</g>
<g>
</g>
<g>
</g>
<g>
</g>
</svg>
