<?xml version="1.0" encoding="iso-8859-1"?>
<!-- Generator: Adobe Illustrator 19.0.0, SVG Export Plug-In . SVG Version: 6.00 Build 0)  -->
<svg version="1.1" id="Capa_1" xmlns="http://www.w3.org/2000/svg" xmlns:xlink="http://www.w3.org/1999/xlink" x="0px" y="0px"
	 viewBox="0 0 512 512" style="enable-background:new 0 0 512 512;" xml:space="preserve">
<path style="fill:#CAEBF9;" d="M468.446,505.819V84.977L383.113,0H133.295c-3.414,0-6.181,2.767-6.181,6.181v499.638
	c0,3.414,2.767,6.181,6.181,6.181h328.97C465.679,512,468.446,509.233,468.446,505.819z"/>
<path style="fill:#BCCED5;" d="M468.446,84.978v420.841c0,3.414-2.767,6.181-6.181,6.181h-20.604c3.414,0,6.181-2.767,6.181-6.181
	V64.899L468.446,84.978z"/>
<path style="fill:#EDF8FC;" d="M389.65,84.978h78.797L383.468,0v78.796C383.468,82.209,386.237,84.978,389.65,84.978z"/>
<path style="fill:#04A1EE;" d="M246.579,93.059H348.98c4.267,0,7.726-3.458,7.726-7.726V51.198c0-4.268-3.459-7.726-7.726-7.726
	H246.579c-4.267,0-7.726,3.458-7.726,7.726v34.135C238.853,89.6,242.312,93.059,246.579,93.059z M254.305,58.924h86.948v18.682
	h-86.948L254.305,58.924L254.305,58.924z"/>
<g>
	<path style="fill:#3B4F66;" d="M178.313,144.259h238.935c4.267,0,7.726-3.458,7.726-7.726s-3.459-7.726-7.726-7.726H178.313
		c-4.267,0-7.726,3.458-7.726,7.726C170.587,140.801,174.046,144.259,178.313,144.259z"/>
	<path style="fill:#3B4F66;" d="M417.247,162.933H178.313c-4.267,0-7.726,3.458-7.726,7.726c0,4.268,3.459,7.726,7.726,7.726
		h238.935c4.267,0,7.726-3.458,7.726-7.726C424.973,166.392,421.514,162.933,417.247,162.933z"/>
	<path style="fill:#3B4F66;" d="M417.247,197.061H178.313c-4.267,0-7.726,3.458-7.726,7.726c0,4.268,3.459,7.726,7.726,7.726
		h238.935c4.267,0,7.726-3.458,7.726-7.726C424.973,200.52,421.514,197.061,417.247,197.061z"/>
	<path style="fill:#3B4F66;" d="M199.113,246.654h218.135c4.268,0,7.726-3.458,7.726-7.726s-3.458-7.726-7.726-7.726H199.113
		c-4.268,0-7.726,3.458-7.726,7.726S194.845,246.654,199.113,246.654z"/>
	<path style="fill:#3B4F66;" d="M417.248,265.342H217.564c-4.268,0-7.726,3.459-7.726,7.726c0,4.268,3.458,7.726,7.726,7.726
		h199.684c4.268,0,7.726-3.458,7.726-7.726S421.515,265.342,417.248,265.342z"/>
	<path style="fill:#3B4F66;" d="M417.248,299.47H208.826c-4.268,0-7.726,3.458-7.726,7.726c0,4.267,3.458,7.726,7.726,7.726h208.421
		c4.268,0,7.726-3.459,7.726-7.726C424.974,302.928,421.515,299.47,417.248,299.47z"/>
	<path style="fill:#3B4F66;" d="M229.768,333.598h-51.455c-4.268,0-7.726,3.458-7.726,7.726c0,4.268,3.458,7.726,7.726,7.726h51.455
		c4.268,0,7.726-3.458,7.726-7.726C237.495,337.057,234.036,333.598,229.768,333.598z"/>
</g>
<path style="fill:#FCB043;" d="M214.505,272.76l-9.784,21.188c-1.046,2.265-3.351,3.68-5.844,3.585l-23.321-0.879
	c-2.066-0.078-3.955-1.183-5.036-2.944L48.387,94.619c-0.699-1.14-1.01-2.477-0.886-3.808l3.013-32.224
	c0.383-4.103,4.599-6.689,8.43-5.172l30.092,11.916c1.243,0.492,2.293,1.374,2.993,2.515l122.134,199.091
	C215.243,268.698,215.372,270.883,214.505,272.76z"/>
<g>
	<path style="fill:#F7A12F;" d="M94.7,108.864c0.161-4.264-3.165-7.851-7.43-8.013L56.526,99.69
		c-4.299-0.135-7.851,3.165-8.013,7.43c-0.161,4.264,3.165,7.851,7.43,8.013l30.746,1.162c0.1,0.003,0.198,0.005,0.297,0.005
		C91.117,116.299,94.543,113.029,94.7,108.864z"/>
	<path style="fill:#F7A12F;" d="M97.128,137.409c1.049,0.484,2.15,0.713,3.234,0.713c2.921,0,5.715-1.664,7.02-4.49l12.897-27.934
		c1.788-3.875,0.098-8.465-3.777-10.253c-3.873-1.787-8.465-0.098-10.253,3.777l-12.897,27.934
		C91.561,131.03,93.253,135.62,97.128,137.409z"/>
	<path style="fill:#F7A12F;" d="M134.861,174.329c0.161-4.264-3.165-7.851-7.43-8.013l-30.746-1.162
		c-4.261-0.143-7.851,3.166-8.013,7.43c-0.161,4.264,3.165,7.851,7.43,8.013l30.746,1.162c0.1,0.003,0.198,0.005,0.297,0.005
		C131.277,181.764,134.702,178.494,134.861,174.329z"/>
	<path style="fill:#F7A12F;" d="M137.287,202.874c1.049,0.484,2.15,0.713,3.234,0.713c2.921,0,5.715-1.664,7.02-4.49l12.897-27.934
		c1.788-3.875,0.098-8.465-3.777-10.253c-3.875-1.788-8.465-0.098-10.253,3.777L133.51,192.62
		C131.722,196.495,133.413,201.085,137.287,202.874z"/>
	<path style="fill:#F7A12F;" d="M167.591,231.781l-30.746-1.162c-4.266-0.15-7.851,3.165-8.013,7.43
		c-0.161,4.264,3.165,7.851,7.43,8.013l30.746,1.162c0.1,0.003,0.198,0.005,0.297,0.005c4.133,0,7.558-3.27,7.716-7.435
		C175.181,235.53,171.856,231.943,167.591,231.781z"/>
	<path style="fill:#F7A12F;" d="M196.82,226.374c-3.876-1.787-8.464-0.098-10.253,3.777l-12.897,27.934
		c-1.788,3.875-0.098,8.465,3.777,10.253c1.049,0.484,2.15,0.713,3.234,0.713c2.921,0,5.715-1.664,7.02-4.49l12.897-27.934
		C202.386,232.753,200.695,228.162,196.82,226.374z"/>
</g>
<path style="fill:#04A1EE;" d="M236.353,337.291L57.866,46.341c-2.232-3.639-6.991-4.778-10.625-2.546
	c-3.637,2.231-4.777,6.988-2.546,10.625l178.487,290.951c1.458,2.378,3.995,3.687,6.592,3.687c1.378,0,2.772-0.368,4.033-1.141
	C237.445,345.686,238.585,340.929,236.353,337.291z"/>
<g>
</g>
<g>
</g>
<g>
</g>
<g>
</g>
<g>
</g>
<g>
</g>
<g>
</g>
<g>
</g>
<g>
</g>
<g>
</g>
<g>
</g>
<g>
</g>
<g>
</g>
<g>
</g>
<g>
</g>
</svg>
