<?xml version="1.0" encoding="iso-8859-1"?>
<!-- Generator: Adobe Illustrator 19.0.0, SVG Export Plug-In . SVG Version: 6.00 Build 0)  -->
<svg version="1.1" id="Capa_1" xmlns="http://www.w3.org/2000/svg" xmlns:xlink="http://www.w3.org/1999/xlink" x="0px" y="0px"
	 viewBox="0 0 512 512" style="enable-background:new 0 0 512 512;" xml:space="preserve">
<path style="fill:#FCB043;" d="M494.932,136.53c9.426,0,17.068,7.642,17.068,17.068v307.199c0,9.426-7.642,17.068-17.068,17.068
	h-89.6H106.667h-89.6C7.642,477.864,0,470.223,0,460.796V153.597c0-9.426,7.642-17.068,17.067-17.068h477.865V136.53z"/>
<path style="fill:#F7A12F;" d="M491.396,153.597v307.199c0,9.426-7.642,17.068-17.068,17.068h20.604
	c9.426,0,17.068-7.642,17.068-17.068V153.597c0-9.426-7.642-17.068-17.068-17.068h-20.604
	C483.754,136.53,491.396,144.171,491.396,153.597z"/>
<path style="fill:#FFCE94;" d="M510.564,146.758c-2.243-5.117-6.919-8.912-12.566-9.938H14.001
	c-5.647,1.026-10.323,4.822-12.566,9.939c0.014,0.01,0.026,0.023,0.04,0.033l249.949,183.697c1.361,1,2.968,1.501,4.575,1.501
	c1.607,0,3.214-0.5,4.575-1.501l249.947-183.697C510.537,146.781,510.549,146.768,510.564,146.758z"/>
<path style="fill:#FCB043;" d="M510.523,146.792c0.014-0.01,0.027-0.024,0.041-0.034c-0.152-0.349-0.319-0.69-0.495-1.027
	c-0.109-0.21-0.226-0.416-0.343-0.621c-0.118-0.206-0.242-0.407-0.369-0.608c-0.19-0.301-0.388-0.594-0.596-0.881
	c-0.139-0.193-0.279-0.383-0.426-0.57c-0.151-0.193-0.307-0.382-0.467-0.569c-0.157-0.182-0.32-0.357-0.484-0.533
	c-0.255-0.273-0.52-0.538-0.793-0.794c-0.142-0.133-0.285-0.264-0.432-0.392c-0.198-0.173-0.396-0.345-0.601-0.509
	c-0.271-0.216-0.549-0.423-0.833-0.623c-0.228-0.16-0.463-0.311-0.698-0.459c-0.133-0.084-0.269-0.165-0.404-0.245
	c-0.431-0.255-0.874-0.491-1.328-0.709c-0.108-0.053-0.215-0.107-0.326-0.157c-0.274-0.124-0.551-0.24-0.832-0.35
	c-0.108-0.042-0.218-0.079-0.328-0.119c-0.499-0.183-1.008-0.343-1.526-0.48c-0.124-0.033-0.248-0.066-0.373-0.096
	c-0.302-0.072-0.606-0.14-0.914-0.196l0,0h-20.604c7.961,1.446,14.002,8.4,14.002,16.778v7.25L510.523,146.792z"/>
<path style="fill:#CAEBF9;" d="M113.285,443.732H40.314c-3.414,0-6.181-2.767-6.181-6.181v-72.971c0-3.414,2.767-6.181,6.181-6.181
	h72.971c3.414,0,6.181,2.767,6.181,6.181v72.971C119.466,440.965,116.699,443.732,113.285,443.732z"/>
<path style="fill:#04A1EE;" d="M87.686,418.135H65.913c-3.414,0-6.181-2.767-6.181-6.181v-21.773c0-3.414,2.767-6.181,6.181-6.181
	h21.773c3.414,0,6.181,2.767,6.181,6.181v21.773C93.867,415.366,91.1,418.135,87.686,418.135z"/>
<g>
	<path style="fill:#3B4F66;" d="M204.799,367.739h-51.2c-4.267,0-7.726,3.459-7.726,7.726s3.459,7.726,7.726,7.726h51.2
		c4.267,0,7.726-3.459,7.726-7.726S209.066,367.739,204.799,367.739z"/>
	<path style="fill:#3B4F66;" d="M204.799,401.875h-51.198c-4.267,0-7.726,3.459-7.726,7.726c0,4.267,3.459,7.726,7.726,7.726h51.198
		c4.267,0,7.726-3.459,7.726-7.726C212.525,405.335,209.066,401.875,204.799,401.875z"/>
	<path style="fill:#3B4F66;" d="M256,401.875h-25.6c-4.267,0-7.726,3.459-7.726,7.726c0,4.267,3.459,7.726,7.726,7.726H256
		c4.267,0,7.726-3.459,7.726-7.726C263.726,405.335,260.267,401.875,256,401.875z"/>
</g>
<g>
	<path style="fill:#CAEBF9;" d="M324.269,68.266l-8.242,164.793c-0.165,3.289-2.879,5.872-6.173,5.872H202.146
		c-3.293,0-6.009-2.583-6.174-5.872l-8.241-164.793v-7.658h136.537v7.658H324.269z"/>
	<path style="fill:#CAEBF9;" d="M332.8,68.269H179.202V40.316c0-3.414,2.767-6.181,6.181-6.181h141.236
		c3.414,0,6.181,2.767,6.181,6.181V68.269z"/>
</g>
<path style="fill:#BCCED5;" d="M303.665,60.609v7.658l-8.242,164.793c-0.165,3.289-2.879,5.872-6.173,5.872h20.604
	c3.293,0,6.009-2.583,6.173-5.872l8.242-164.793v-7.658C324.269,60.609,303.665,60.609,303.665,60.609z"/>
<g>
	<path style="fill:#618BAA;" d="M222.526,94.678c-4.266,0.106-7.638,3.651-7.531,7.917l1.92,76.799
		c0.105,4.2,3.543,7.534,7.72,7.534c0.065,0,0.131-0.001,0.197-0.003c4.266-0.107,7.638-3.651,7.531-7.917l-1.92-76.799
		C230.337,97.944,226.818,94.584,222.526,94.678z"/>
	<path style="fill:#618BAA;" d="M256.001,94.674c-4.267,0-7.726,3.459-7.726,7.726v76.801c0,4.267,3.459,7.726,7.726,7.726
		c4.267,0,7.726-3.459,7.726-7.726v-76.801C263.726,98.134,260.268,94.674,256.001,94.674z"/>
	<path style="fill:#618BAA;" d="M289.475,94.678c-4.285-0.094-7.811,3.265-7.917,7.531l-1.92,76.8
		c-0.107,4.266,3.265,7.811,7.531,7.917c0.066,0.001,0.131,0.002,0.197,0.002c4.177,0,7.615-3.333,7.72-7.534l1.92-76.8
		C297.111,98.33,293.74,94.785,289.475,94.678z"/>
	<path style="fill:#618BAA;" d="M195.373,221.061h121.253l0.772-15.433c-0.129-0.006-0.255-0.02-0.385-0.02H194.986
		c-0.13,0-0.257,0.013-0.385,0.02L195.373,221.061z"/>
</g>
<path style="fill:#BCCED5;" d="M326.619,34.135h-20.604c3.414,0,6.181,2.767,6.181,6.181v27.953H332.8V40.316
	C332.8,36.903,330.033,34.135,326.619,34.135z"/>
<path style="fill:#618BAA;" d="M341.333,60.542H170.667c-4.267,0-7.726,3.459-7.726,7.726s3.459,7.726,7.726,7.726h170.666
	c4.267,0,7.726-3.459,7.726-7.726C349.059,64.002,345.6,60.542,341.333,60.542z"/>
<g>
</g>
<g>
</g>
<g>
</g>
<g>
</g>
<g>
</g>
<g>
</g>
<g>
</g>
<g>
</g>
<g>
</g>
<g>
</g>
<g>
</g>
<g>
</g>
<g>
</g>
<g>
</g>
<g>
</g>
</svg>
