<?xml version="1.0" encoding="iso-8859-1"?>
<!-- Generator: Adobe Illustrator 19.0.0, SVG Export Plug-In . SVG Version: 6.00 Build 0)  -->
<svg version="1.1" id="Capa_1" xmlns="http://www.w3.org/2000/svg" xmlns:xlink="http://www.w3.org/1999/xlink" x="0px" y="0px"
	 viewBox="0 0 512 512" style="enable-background:new 0 0 512 512;" xml:space="preserve">
<path style="fill:#FCB043;" d="M494.932,136.542c9.426,0,17.068,7.642,17.068,17.068v307.199c0,9.426-7.642,17.068-17.068,17.068
	h-89.6H106.667h-89.6C7.641,477.876,0,470.235,0,460.809V153.61c0-9.426,7.641-17.068,17.067-17.068L494.932,136.542
	L494.932,136.542z"/>
<path style="fill:#F7A12F;" d="M491.396,153.61v307.199c0,9.426-7.642,17.068-17.068,17.068h20.604
	c9.426,0,17.068-7.642,17.068-17.068V153.61c0-9.426-7.642-17.068-17.068-17.068h-20.604
	C483.754,136.542,491.396,144.184,491.396,153.61z"/>
<path style="fill:#FFCE94;" d="M510.564,146.769c-2.243-5.117-6.919-8.912-12.566-9.938H14.001
	c-5.647,1.026-10.323,4.822-12.566,9.939c0.014,0.01,0.027,0.023,0.04,0.033L251.424,330.5c1.361,1,2.968,1.501,4.575,1.501
	c1.607,0,3.214-0.5,4.575-1.501l249.947-183.697C510.537,146.793,510.549,146.781,510.564,146.769z"/>
<path style="fill:#FCB043;" d="M510.523,146.803c0.014-0.01,0.027-0.024,0.041-0.034c-0.152-0.349-0.319-0.69-0.495-1.027
	c-0.109-0.21-0.226-0.416-0.343-0.621c-0.118-0.206-0.242-0.407-0.369-0.608c-0.19-0.301-0.388-0.594-0.596-0.881
	c-0.139-0.193-0.279-0.383-0.425-0.57c-0.151-0.193-0.307-0.382-0.467-0.569c-0.157-0.182-0.32-0.357-0.484-0.533
	c-0.255-0.273-0.52-0.538-0.793-0.794c-0.142-0.133-0.285-0.264-0.432-0.392c-0.198-0.173-0.396-0.345-0.601-0.509
	c-0.271-0.216-0.549-0.423-0.833-0.623c-0.228-0.16-0.463-0.311-0.698-0.459c-0.133-0.084-0.269-0.165-0.404-0.245
	c-0.431-0.255-0.874-0.491-1.328-0.709c-0.108-0.053-0.215-0.107-0.326-0.157c-0.274-0.124-0.551-0.24-0.832-0.35
	c-0.108-0.042-0.218-0.079-0.328-0.119c-0.499-0.182-1.008-0.343-1.526-0.48c-0.125-0.033-0.248-0.066-0.373-0.096
	c-0.302-0.072-0.606-0.14-0.914-0.196l0,0h-20.604c7.961,1.446,14.002,8.4,14.002,16.778v7.25L510.523,146.803z"/>
<path style="fill:#CAEBF9;" d="M113.285,443.745H40.314c-3.414,0-6.181-2.767-6.181-6.181v-72.971c0-3.414,2.767-6.181,6.181-6.181
	h72.971c3.414,0,6.181,2.767,6.181,6.181v72.971C119.466,440.978,116.698,443.745,113.285,443.745z"/>
<path style="fill:#04A1EE;" d="M87.686,418.146H65.913c-3.414,0-6.181-2.767-6.181-6.181v-21.773c0-3.414,2.767-6.181,6.181-6.181
	h21.773c3.414,0,6.181,2.767,6.181,6.181v21.773C93.867,415.379,91.1,418.146,87.686,418.146z"/>
<g>
	<path style="fill:#3B4F66;" d="M204.799,367.75h-51.2c-4.267,0-7.726,3.459-7.726,7.726c0,4.267,3.459,7.726,7.726,7.726h51.2
		c4.267,0,7.726-3.459,7.726-7.726C212.525,371.21,209.066,367.75,204.799,367.75z"/>
	<path style="fill:#3B4F66;" d="M204.799,401.888h-51.198c-4.267,0-7.726,3.459-7.726,7.726c0,4.267,3.459,7.726,7.726,7.726h51.198
		c4.267,0,7.726-3.459,7.726-7.726C212.525,405.346,209.066,401.888,204.799,401.888z"/>
	<path style="fill:#3B4F66;" d="M256,401.888h-25.6c-4.267,0-7.726,3.459-7.726,7.726c0,4.267,3.459,7.726,7.726,7.726H256
		c4.267,0,7.726-3.459,7.726-7.726C263.726,405.346,260.267,401.888,256,401.888z"/>
</g>
<path style="fill:#CAEBF9;" d="M273.066,141.717V85.355c0-9.424-7.64-17.065-17.065-17.065s-17.065,7.64-17.065,17.065v56.362
	l-34.182,0.005V85.371c0-28.303,22.944-51.247,51.247-51.247s51.247,22.944,51.247,51.247v56.352L273.066,141.717z"/>
<g>
	<rect x="204.748" y="115.936" style="fill:#BCCED5;" width="34.181" height="25.785"/>
	<rect x="273.07" y="115.946" style="fill:#BCCED5;" width="34.181" height="25.775"/>
</g>
<path style="fill:#618BAA;" d="M318.085,136.572H193.913c-3.414,0-6.181,2.767-6.181,6.181v90.038c0,3.414,2.767,6.181,6.181,6.181
	h124.172c3.414,0,6.181-2.767,6.181-6.181v-90.038C324.266,139.339,321.498,136.572,318.085,136.572z"/>
<g>
	<path style="fill:#3B4F66;" d="M318.085,218.368H193.913c-3.414,0-6.181-2.767-6.181-6.181v20.604c0,3.414,2.767,6.181,6.181,6.181
		h124.172c3.414,0,6.181-2.767,6.181-6.181v-20.604C324.266,215.601,321.498,218.368,318.085,218.368z"/>
	<path style="fill:#3B4F66;" d="M264.534,171.511h-17.066c-4.267,0-7.726,3.459-7.726,7.726c0,4.267,3.459,7.726,7.726,7.726h0.806
		v9.34c0,4.267,3.459,7.726,7.726,7.726c4.267,0,7.726-3.459,7.726-7.726v-9.34h0.809c4.267,0,7.726-3.459,7.726-7.726
		C272.261,174.971,268.801,171.511,264.534,171.511z"/>
</g>
<g>
</g>
<g>
</g>
<g>
</g>
<g>
</g>
<g>
</g>
<g>
</g>
<g>
</g>
<g>
</g>
<g>
</g>
<g>
</g>
<g>
</g>
<g>
</g>
<g>
</g>
<g>
</g>
<g>
</g>
</svg>
