<?xml version="1.0" encoding="iso-8859-1"?>
<!-- Generator: Adobe Illustrator 19.0.0, SVG Export Plug-In . SVG Version: 6.00 Build 0)  -->
<svg version="1.1" id="Capa_1" xmlns="http://www.w3.org/2000/svg" xmlns:xlink="http://www.w3.org/1999/xlink" x="0px" y="0px"
	 viewBox="0 0 512 512" style="enable-background:new 0 0 512 512;" xml:space="preserve">
<path style="fill:#3B4F66;" d="M119.467,477.867c0,18.851,15.282,34.133,34.132,34.133h204.8c18.851,0,34.133-15.282,34.133-34.133
	V34.132C392.533,15.282,377.251,0,358.4,0H153.6c-18.851,0-34.132,15.282-34.132,34.132v443.735H119.467z"/>
<path style="fill:#2C3B4D;" d="M358.4,0h-20.604c18.851,0,34.133,15.282,34.133,34.132v443.735
	c0,18.851-15.282,34.133-34.133,34.133H358.4c18.851,0,34.133-15.282,34.133-34.133V34.132C392.533,15.282,377.251,0,358.4,0z"/>
<rect x="119.47" y="68.27" style="fill:#04A1EE;" width="273.06" height="358.4"/>
<g>
	<path style="fill:#2C3B4D;" d="M281.601,494.124H230.4c-13.671,0-24.791-11.122-24.791-24.791
		c0-13.671,11.122-24.791,24.791-24.791h51.201c13.67,0,24.791,11.122,24.791,24.791
		C306.392,483.002,295.27,494.124,281.601,494.124z M230.399,459.993c-5.15,0-9.339,4.19-9.339,9.339c0,5.15,4.19,9.339,9.339,9.339
		H281.6c5.15,0,9.339-4.19,9.339-9.339c0-5.149-4.19-9.339-9.339-9.339H230.399z"/>
	<path style="fill:#2C3B4D;" d="M290.133,26.409h-68.267c-4.267,0-7.726,3.459-7.726,7.726s3.459,7.726,7.726,7.726h68.267
		c4.267,0,7.726-3.459,7.726-7.726S294.4,26.409,290.133,26.409z"/>
</g>
<path style="fill:#CAEBF9;" d="M332.799,26.409h-17.066c-4.267,0-7.726,3.459-7.726,7.726s3.459,7.726,7.726,7.726h17.066
	c4.267,0,7.726-3.459,7.726-7.726S337.066,26.409,332.799,26.409z"/>
<rect x="371.926" y="68.27" style="fill:#0084CE;" width="20.604" height="358.4"/>
<path style="fill:#FCB043;" d="M324.266,204.801h25.599c9.426,0,17.068,7.641,17.068,17.068v102.399
	c0,9.426-7.642,17.068-17.068,17.068h-187.73c-9.426,0-17.067-7.642-17.067-17.068V221.869c0-9.426,7.641-17.068,17.067-17.068
	h25.599H324.266z"/>
<g>
	<path style="fill:#F7A12F;" d="M346.327,221.868v102.399c0,9.426-7.642,17.068-17.068,17.068h20.605
		c9.426,0,17.067-7.642,17.067-17.068V221.868c0-9.426-7.642-17.068-17.067-17.068h-20.605
		C338.686,204.801,346.327,212.442,346.327,221.868z"/>
	<path style="fill:#F7A12F;" d="M366.611,327.547l-88.093-70.678c-3.33-2.673-8.191-2.139-10.861,1.191
		c-2.671,3.327-2.137,8.191,1.191,10.861l88.238,70.794C361.944,337.44,365.557,332.958,366.611,327.547z"/>
	<path style="fill:#F7A12F;" d="M154.913,339.716l88.237-70.796c3.329-2.67,3.862-7.534,1.191-10.861
		c-2.67-3.327-7.533-3.863-10.861-1.191l-88.091,70.679C146.443,332.957,150.055,337.44,154.913,339.716z"/>
	<path style="fill:#F7A12F;" d="M363.285,211.346c-3.125-3.98-7.967-6.545-13.42-6.545h-25.599H187.734h-25.599
		c-5.452,0-10.296,2.565-13.42,6.545l104.205,59.948c1.908,1.098,4.257,1.098,6.165,0L363.285,211.346z"/>
</g>
<path style="fill:#CAEBF9;" d="M324.266,233.794v-91.079c0-3.414-2.767-6.181-6.181-6.181h-124.17c-3.414,0-6.181,2.767-6.181,6.181
	v91.078l65.183,37.5c1.908,1.098,4.257,1.098,6.165,0L324.266,233.794z"/>
<path style="fill:#04A1EE;" d="M256,154.408c-25.434,0-46.126,20.692-46.126,46.126s20.692,46.125,46.126,46.125
	c7.2,0,14.1-1.614,20.505-4.799c3.822-1.9,5.38-6.536,3.48-10.357c-1.9-3.82-6.536-5.381-10.357-3.48
	c-4.251,2.112-8.835,3.183-13.627,3.183c-16.914,0-30.674-13.759-30.674-30.673S239.086,169.86,256,169.86
	s30.674,13.76,30.674,30.674v6.399c0,1.622-1.32,2.941-2.942,2.941c-1.622,0-2.94-1.32-2.94-2.94l0.001-6.347
	c0-0.018,0.001-0.035,0.001-0.053c0-0.018-0.001-0.035-0.001-0.053l0.001-12.747c0-4.268-3.458-7.727-7.725-7.727
	c-0.001,0-0.001,0-0.001,0c-0.897,0-1.755,0.161-2.557,0.442c-4.083-2.959-9.095-4.709-14.511-4.709
	c-13.672,0-24.793,11.123-24.793,24.793c0,13.672,11.122,24.793,24.793,24.793c5.656,0,10.872-1.908,15.048-5.107
	c3.304,3.155,7.767,5.107,12.685,5.107c10.143,0,18.395-8.252,18.395-18.394v-6.399C302.126,175.1,281.434,154.408,256,154.408z
	 M256,209.876c-5.151,0-9.341-4.19-9.341-9.341s4.19-9.341,9.341-9.341c5.142,0,9.325,4.176,9.34,9.315v0.053
	C265.325,205.699,261.142,209.876,256,209.876z"/>
<path style="fill:#CC6319;" d="M346.29,221.123l16.995-9.777l0,0c-0.184-0.234-0.375-0.463-0.571-0.687
	c-0.064-0.073-0.131-0.143-0.196-0.215c-0.325-0.361-0.664-0.707-1.019-1.038c-0.11-0.103-0.221-0.204-0.334-0.304
	c-0.299-0.265-0.607-0.518-0.923-0.762c-0.166-0.128-0.333-0.254-0.503-0.376c-0.191-0.136-0.383-0.271-0.581-0.399
	c-0.308-0.201-0.622-0.392-0.944-0.574c-0.168-0.095-0.34-0.184-0.512-0.274c-0.333-0.172-0.67-0.338-1.014-0.488
	c-0.144-0.063-0.291-0.122-0.437-0.18c-0.356-0.144-0.718-0.277-1.086-0.397c-0.11-0.036-0.218-0.075-0.33-0.109
	c-0.445-0.135-0.898-0.249-1.357-0.349c-0.11-0.024-0.221-0.047-0.333-0.069c-0.474-0.093-0.954-0.168-1.441-0.22
	c-0.087-0.009-0.174-0.014-0.261-0.023c-0.521-0.048-1.047-0.079-1.58-0.079l0,0h-20.605
	C338.434,204.801,345.898,212.045,346.29,221.123z"/>
<g>
</g>
<g>
</g>
<g>
</g>
<g>
</g>
<g>
</g>
<g>
</g>
<g>
</g>
<g>
</g>
<g>
</g>
<g>
</g>
<g>
</g>
<g>
</g>
<g>
</g>
<g>
</g>
<g>
</g>
</svg>
