<?xml version="1.0" encoding="iso-8859-1"?>
<!-- Generator: Adobe Illustrator 19.0.0, SVG Export Plug-In . SVG Version: 6.00 Build 0)  -->
<svg version="1.1" id="Capa_1" xmlns="http://www.w3.org/2000/svg" xmlns:xlink="http://www.w3.org/1999/xlink" x="0px" y="0px"
	 viewBox="0 0 512 512" style="enable-background:new 0 0 512 512;" xml:space="preserve">
<path style="fill:#BCCED5;" d="M494.934,410.181V102.399c0-18.851-15.282-34.132-34.132-34.132H51.198
	c-18.85,0-34.132,15.282-34.132,34.132v307.784h477.868V410.181z"/>
<path style="fill:#04A1EE;" d="M51.197,352.22V108.582c0-3.414,2.767-6.181,6.181-6.181h397.244c3.414,0,6.181,2.767,6.181,6.181
	V352.22c0,3.414-2.767,6.181-6.181,6.181H57.378C53.964,358.401,51.197,355.634,51.197,352.22z"/>
<path style="fill:#FCB043;" d="M324.267,196.267h25.599c9.426,0,17.068,7.641,17.068,17.068v102.399
	c0,9.426-7.642,17.068-17.068,17.068H162.134c-9.426,0-17.067-7.642-17.067-17.068V213.335c0-9.426,7.641-17.068,17.067-17.068
	h25.599L324.267,196.267L324.267,196.267z"/>
<g>
	<path style="fill:#F7A12F;" d="M346.328,213.335v102.399c0,9.426-7.642,17.068-17.068,17.068h20.605
		c9.426,0,17.067-7.642,17.067-17.068V213.335c0-9.426-7.642-17.068-17.067-17.068H329.26
		C338.687,196.267,346.328,203.909,346.328,213.335z"/>
	<path style="fill:#F7A12F;" d="M366.611,319.013l-88.093-70.678c-3.33-2.673-8.191-2.139-10.861,1.191
		c-2.671,3.327-2.137,8.191,1.191,10.861l88.238,70.794C361.945,328.907,365.557,324.424,366.611,319.013z"/>
	<path style="fill:#F7A12F;" d="M154.914,331.182l88.237-70.796c3.329-2.67,3.861-7.534,1.191-10.861
		c-2.67-3.327-7.533-3.863-10.861-1.191l-88.092,70.68C146.444,324.424,150.055,328.906,154.914,331.182z"/>
	<path style="fill:#F7A12F;" d="M363.286,202.812c-3.125-3.98-7.967-6.545-13.42-6.545h-25.599H187.734h-25.599
		c-5.452,0-10.296,2.565-13.42,6.545L252.92,262.76c1.908,1.098,4.257,1.098,6.165,0L363.286,202.812z"/>
</g>
<path style="fill:#CAEBF9;" d="M324.266,225.26v-91.08c0-3.414-2.767-6.181-6.181-6.181H193.915c-3.414,0-6.181,2.767-6.181,6.181
	v91.079l65.184,37.5c1.908,1.098,4.257,1.098,6.165,0L324.266,225.26z"/>
<path style="fill:#04A1EE;" d="M256.001,145.873c-25.434,0-46.126,20.692-46.126,46.126s20.692,46.125,46.126,46.125
	c7.2,0,14.099-1.614,20.505-4.799c3.822-1.9,5.38-6.537,3.48-10.357c-1.9-3.82-6.536-5.381-10.357-3.48
	c-4.251,2.112-8.835,3.183-13.627,3.183c-16.914,0-30.674-13.759-30.674-30.673s13.76-30.674,30.674-30.674
	s30.674,13.76,30.674,30.674v6.4c0,1.622-1.32,2.942-2.941,2.942s-2.941-1.32-2.941-2.941l0.001-6.347
	c0-0.018,0.001-0.035,0.001-0.053c0-0.018-0.001-0.035-0.001-0.053l0.001-12.747c0-4.268-3.458-7.727-7.725-7.727
	c-0.001,0-0.001,0-0.001,0c-0.897,0-1.755,0.161-2.557,0.442c-4.083-2.958-9.095-4.709-14.511-4.709
	c-13.672,0-24.793,11.123-24.793,24.793c0,13.672,11.122,24.793,24.793,24.793c5.656,0,10.872-1.908,15.048-5.108
	c3.304,3.155,7.767,5.108,12.685,5.108c10.143,0,18.395-8.252,18.395-18.395v-6.4C302.127,166.566,281.435,145.873,256.001,145.873z
	 M256.001,201.342c-5.151,0-9.341-4.19-9.341-9.341c0-5.151,4.19-9.341,9.341-9.341c5.142,0,9.325,4.176,9.34,9.315v0.053
	C265.325,197.166,261.142,201.342,256.001,201.342z"/>
<path style="fill:#CC6319;" d="M346.291,212.589l16.995-9.777l0,0c-0.184-0.234-0.375-0.463-0.571-0.687
	c-0.064-0.073-0.131-0.143-0.196-0.215c-0.326-0.361-0.664-0.707-1.019-1.038c-0.11-0.103-0.221-0.204-0.334-0.304
	c-0.299-0.265-0.607-0.518-0.923-0.762c-0.166-0.128-0.332-0.254-0.503-0.376c-0.192-0.136-0.384-0.271-0.581-0.4
	c-0.308-0.201-0.622-0.393-0.944-0.574c-0.168-0.095-0.34-0.184-0.512-0.274c-0.333-0.172-0.67-0.338-1.014-0.488
	c-0.144-0.063-0.291-0.122-0.437-0.18c-0.356-0.144-0.718-0.277-1.086-0.397c-0.11-0.036-0.218-0.075-0.33-0.109
	c-0.445-0.135-0.898-0.249-1.357-0.349c-0.11-0.024-0.221-0.047-0.333-0.069c-0.474-0.093-0.954-0.168-1.441-0.22
	c-0.087-0.009-0.174-0.014-0.261-0.023c-0.521-0.048-1.047-0.079-1.58-0.079l0,0h-20.605
	C338.435,196.267,345.897,203.511,346.291,212.589z"/>
<path style="fill:#879499;" d="M460.802,68.266h-20.604c18.851,0,34.132,15.282,34.132,34.132v307.784h20.604V102.399
	C494.934,83.547,479.652,68.266,460.802,68.266z"/>
<path style="fill:#CAEBF9;" d="M505.819,392.535H6.181c-3.414,0-6.181,2.768-6.181,6.181l0.001,10.885
	c0,18.85,15.282,34.132,34.132,34.132h443.733c18.851,0,34.133-15.282,34.133-34.132L512,398.716
	C512,395.303,509.233,392.535,505.819,392.535z"/>
<path style="fill:#04A1EE;" d="M299.009,392.535l-5.814,16.539h-74.386l-5.817-16.539h-16.38l9.436,26.828
	c1.088,3.094,4.011,5.163,7.289,5.163h85.333c3.28,0,6.202-2.07,7.289-5.164l9.431-26.828h-16.38V392.535z"/>
<path style="fill:#BCCED5;" d="M491.397,392.535l-0.002,17.067c0,18.85-15.282,34.132-34.132,34.132h20.604
	c18.851,0,34.132-15.282,34.132-34.132L512,398.717c0-3.414-2.767-6.182-6.181-6.182L491.397,392.535L491.397,392.535z"/>
<path style="fill:#0084CE;" d="M454.622,102.401h-20.606c3.414,0,6.181,2.767,6.181,6.181V352.22c0,3.414-2.767,6.181-6.181,6.181
	h20.606c3.414,0,6.181-2.767,6.181-6.181V108.582C460.803,105.168,458.036,102.401,454.622,102.401z"/>
<g>
</g>
<g>
</g>
<g>
</g>
<g>
</g>
<g>
</g>
<g>
</g>
<g>
</g>
<g>
</g>
<g>
</g>
<g>
</g>
<g>
</g>
<g>
</g>
<g>
</g>
<g>
</g>
<g>
</g>
</svg>
