<?xml version="1.0" encoding="iso-8859-1"?>
<!-- Generator: Adobe Illustrator 19.0.0, SVG Export Plug-In . SVG Version: 6.00 Build 0)  -->
<svg version="1.1" id="Capa_1" xmlns="http://www.w3.org/2000/svg" xmlns:xlink="http://www.w3.org/1999/xlink" x="0px" y="0px"
	 viewBox="0 0 512 512" style="enable-background:new 0 0 512 512;" xml:space="preserve">
<path style="fill:#FCB043;" d="M494.932,170.664c9.426,0,17.068,7.642,17.068,17.067V494.93c0,9.426-7.642,17.067-17.068,17.067
	h-89.6H106.667h-89.6C7.642,511.998,0,504.358,0,494.931v-307.2c0-9.426,7.642-17.067,17.067-17.067H494.932z"/>
<g>
	<path style="fill:#F7A12F;" d="M6.055,174.703L252.34,355.707c2.178,1.601,5.143,1.601,7.32,0l246.283-181.005
		c-2.973-2.515-6.813-4.038-11.012-4.038H17.067C12.868,170.664,9.029,172.187,6.055,174.703z"/>
	<path style="fill:#F7A12F;" d="M491.396,187.731V494.93c0,9.426-7.642,17.067-17.068,17.067h20.604
		c9.426,0,17.068-7.642,17.068-17.067V187.731c0-9.426-7.642-17.067-17.068-17.067h-20.604
		C483.754,170.664,491.396,178.305,491.396,187.731z"/>
</g>
<path style="fill:#EF9122;" d="M491.236,185.512l14.708-10.81l0,0c-0.286-0.242-0.587-0.467-0.889-0.69
	c-0.113-0.083-0.224-0.172-0.339-0.253c-0.273-0.192-0.556-0.369-0.841-0.545c-0.16-0.099-0.318-0.199-0.482-0.293
	c-0.266-0.152-0.54-0.295-0.815-0.434c-0.198-0.099-0.397-0.197-0.599-0.288c-0.26-0.118-0.523-0.23-0.789-0.336
	c-0.235-0.093-0.473-0.178-0.712-0.261c-0.249-0.087-0.5-0.171-0.754-0.245c-0.276-0.08-0.557-0.149-0.84-0.216
	c-0.232-0.056-0.463-0.114-0.698-0.16c-0.336-0.065-0.678-0.111-1.02-0.156c-0.194-0.026-0.384-0.06-0.58-0.079
	c-0.544-0.053-1.095-0.083-1.652-0.083H474.33C483,170.664,490.146,177.137,491.236,185.512z"/>
<path style="fill:#CAEBF9;" d="M113.285,477.868H40.314c-3.414,0-6.181-2.767-6.181-6.181v-72.971c0-3.414,2.767-6.181,6.181-6.181
	h72.971c3.414,0,6.181,2.767,6.181,6.181v72.971C119.466,475.099,116.699,477.868,113.285,477.868z"/>
<path style="fill:#04A1EE;" d="M87.686,452.269H65.913c-3.414,0-6.181-2.767-6.181-6.181v-21.773c0-3.414,2.767-6.181,6.181-6.181
	h21.773c3.414,0,6.181,2.767,6.181,6.181v21.773C93.867,449.501,91.1,452.269,87.686,452.269z"/>
<g>
	<path style="fill:#3B4F66;" d="M204.799,401.873h-51.2c-4.267,0-7.726,3.459-7.726,7.726c0,4.267,3.459,7.726,7.726,7.726h51.2
		c4.267,0,7.726-3.459,7.726-7.726C212.525,405.332,209.066,401.873,204.799,401.873z"/>
	<path style="fill:#3B4F66;" d="M204.799,436.009h-51.198c-4.267,0-7.726,3.459-7.726,7.726c0,4.267,3.459,7.726,7.726,7.726h51.198
		c4.267,0,7.726-3.459,7.726-7.726C212.525,439.469,209.066,436.009,204.799,436.009z"/>
	<path style="fill:#3B4F66;" d="M256,436.009h-25.6c-4.267,0-7.726,3.459-7.726,7.726c0,4.267,3.459,7.726,7.726,7.726H256
		c4.267,0,7.726-3.459,7.726-7.726C263.726,439.469,260.267,436.009,256,436.009z"/>
	<path style="fill:#3B4F66;" d="M392.534,258.053V6.184c0-3.414-2.767-6.181-6.181-6.181H125.649c-3.414,0-6.181,2.767-6.181,6.181
		l-0.001,251.87l132.824,97.562c2.197,1.648,5.219,1.648,7.417,0L392.534,258.053z"/>
</g>
<path style="fill:#04A1EE;" d="M226.133,184.259v-61.312c0-5.027,5.682-7.952,9.773-5.029l42.919,30.656
	c3.451,2.465,3.451,7.594,0,10.06l-42.919,30.656C231.815,192.211,226.133,189.286,226.133,184.259z"/>
<g>
	<path style="fill:#CAEBF9;" d="M173.021,68.27h-21.772c-3.414,0-6.181-2.767-6.181-6.181V40.317c0-3.414,2.767-6.181,6.181-6.181
		h21.772c3.414,0,6.181,2.767,6.181,6.181v21.772C179.202,65.503,176.434,68.27,173.021,68.27z"/>
	<path style="fill:#CAEBF9;" d="M173.021,136.538h-21.772c-3.414,0-6.181-2.767-6.181-6.181v-21.772
		c0-3.414,2.767-6.181,6.181-6.181h21.772c3.414,0,6.181,2.767,6.181,6.181v21.772C179.202,133.771,176.434,136.538,173.021,136.538
		z"/>
	<path style="fill:#CAEBF9;" d="M173.021,204.806h-21.772c-3.414,0-6.181-2.767-6.181-6.181v-21.772
		c0-3.414,2.767-6.181,6.181-6.181h21.772c3.414,0,6.181,2.767,6.181,6.181v21.772C179.202,202.039,176.434,204.806,173.021,204.806
		z"/>
	<path style="fill:#CAEBF9;" d="M173.021,273.074h-21.772c-3.414,0-6.181-2.767-6.181-6.181v-21.772
		c0-3.414,2.767-6.181,6.181-6.181h21.772c3.414,0,6.181,2.767,6.181,6.181v21.772C179.202,270.307,176.434,273.074,173.021,273.074
		z"/>
	<path style="fill:#CAEBF9;" d="M360.753,68.27h-21.772c-3.414,0-6.181-2.767-6.181-6.181V40.317c0-3.414,2.767-6.181,6.181-6.181
		h21.772c3.414,0,6.181,2.767,6.181,6.181v21.772C366.934,65.503,364.167,68.27,360.753,68.27z"/>
	<path style="fill:#CAEBF9;" d="M360.753,136.538h-21.772c-3.414,0-6.181-2.767-6.181-6.181v-21.772
		c0-3.414,2.767-6.181,6.181-6.181h21.772c3.414,0,6.181,2.767,6.181,6.181v21.772C366.934,133.771,364.167,136.538,360.753,136.538
		z"/>
	<path style="fill:#CAEBF9;" d="M360.753,204.806h-21.772c-3.414,0-6.181-2.767-6.181-6.181v-21.772
		c0-3.414,2.767-6.181,6.181-6.181h21.772c3.414,0,6.181,2.767,6.181,6.181v21.772C366.934,202.039,364.167,204.806,360.753,204.806
		z"/>
	<path style="fill:#CAEBF9;" d="M360.753,273.074h-21.772c-3.414,0-6.181-2.767-6.181-6.181v-21.772
		c0-3.414,2.767-6.181,6.181-6.181h21.772c3.414,0,6.181,2.767,6.181,6.181v21.772C366.934,270.307,364.167,273.074,360.753,273.074
		z"/>
</g>
<path style="fill:#2C3B4D;" d="M386.353,0.003h-20.604c3.414,0,6.181,2.767,6.181,6.181v266.89l20.604-15.021V6.184
	C392.534,2.77,389.767,0.003,386.353,0.003z"/>
<g>
</g>
<g>
</g>
<g>
</g>
<g>
</g>
<g>
</g>
<g>
</g>
<g>
</g>
<g>
</g>
<g>
</g>
<g>
</g>
<g>
</g>
<g>
</g>
<g>
</g>
<g>
</g>
<g>
</g>
</svg>
