<?xml version="1.0" encoding="iso-8859-1"?>
<!-- Generator: Adobe Illustrator 19.0.0, SVG Export Plug-In . SVG Version: 6.00 Build 0)  -->
<svg version="1.1" id="Capa_1" xmlns="http://www.w3.org/2000/svg" xmlns:xlink="http://www.w3.org/1999/xlink" x="0px" y="0px"
	 viewBox="0 0 512 512" style="enable-background:new 0 0 512 512;" xml:space="preserve">
<path style="fill:#FCB043;" d="M494.932,170.662c9.426,0,17.068,7.642,17.068,17.067v307.2c0,9.426-7.642,17.068-17.068,17.068
	h-89.6H106.667h-89.6C7.642,511.996,0,504.356,0,494.929V187.73c0-9.426,7.642-17.067,17.067-17.067h477.865V170.662z"/>
<g>
	<path style="fill:#F7A12F;" d="M6.055,174.701L252.34,355.705c2.178,1.601,5.143,1.601,7.32,0L505.944,174.7
		c-2.973-2.515-6.813-4.038-11.012-4.038H17.067C12.868,170.662,9.029,172.186,6.055,174.701z"/>
	<path style="fill:#F7A12F;" d="M491.396,187.73v307.199c0,9.426-7.642,17.068-17.068,17.068h20.604
		c9.426,0,17.068-7.642,17.068-17.068V187.73c0-9.426-7.642-17.067-17.068-17.067h-20.604
		C483.754,170.662,491.396,178.304,491.396,187.73z"/>
</g>
<path style="fill:#EF9122;" d="M491.236,185.51l14.708-10.81l0,0c-0.286-0.242-0.587-0.467-0.889-0.69
	c-0.113-0.084-0.224-0.172-0.339-0.253c-0.273-0.192-0.556-0.369-0.841-0.545c-0.16-0.099-0.318-0.199-0.482-0.293
	c-0.267-0.152-0.54-0.295-0.815-0.434c-0.198-0.1-0.397-0.197-0.599-0.288c-0.26-0.118-0.523-0.23-0.789-0.336
	c-0.235-0.093-0.473-0.178-0.712-0.261c-0.249-0.087-0.5-0.17-0.754-0.245c-0.276-0.08-0.557-0.149-0.84-0.216
	c-0.232-0.056-0.463-0.114-0.698-0.16c-0.336-0.065-0.678-0.111-1.02-0.156c-0.194-0.026-0.384-0.061-0.58-0.079
	c-0.544-0.053-1.095-0.083-1.652-0.083H474.33C483,170.662,490.146,177.135,491.236,185.51z"/>
<path style="fill:#CAEBF9;" d="M113.285,477.865H40.314c-3.414,0-6.181-2.767-6.181-6.181v-72.971c0-3.414,2.767-6.181,6.181-6.181
	h72.971c3.414,0,6.181,2.767,6.181,6.181v72.971C119.466,475.098,116.699,477.865,113.285,477.865z"/>
<path style="fill:#04A1EE;" d="M87.686,452.266H65.913c-3.414,0-6.181-2.767-6.181-6.181v-21.773c0-3.414,2.767-6.181,6.181-6.181
	h21.773c3.414,0,6.181,2.767,6.181,6.181v21.773C93.867,449.499,91.1,452.266,87.686,452.266z"/>
<g>
	<path style="fill:#3B4F66;" d="M204.799,401.871h-51.2c-4.267,0-7.726,3.459-7.726,7.726s3.459,7.726,7.726,7.726h51.2
		c4.267,0,7.726-3.459,7.726-7.726S209.066,401.871,204.799,401.871z"/>
	<path style="fill:#3B4F66;" d="M204.799,436.008h-51.198c-4.267,0-7.726,3.459-7.726,7.726c0,4.267,3.459,7.726,7.726,7.726h51.198
		c4.267,0,7.726-3.459,7.726-7.726C212.525,439.466,209.066,436.008,204.799,436.008z"/>
	<path style="fill:#3B4F66;" d="M256,436.008h-25.6c-4.267,0-7.726,3.459-7.726,7.726c0,4.267,3.459,7.726,7.726,7.726H256
		c4.267,0,7.726-3.459,7.726-7.726C263.726,439.466,260.267,436.008,256,436.008z"/>
</g>
<path style="fill:#CAEBF9;" d="M426.666,232.966V84.979L341.332,0.003H91.515c-3.414,0-6.181,2.767-6.181,6.181v226.783
	L252.34,355.706c2.178,1.601,5.143,1.601,7.32,0L426.666,232.966z"/>
<polygon style="fill:#BCCED5;" points="426.666,232.966 406.062,248.108 406.062,64.403 426.666,85.007 "/>
<path style="fill:#EDF8FC;" d="M347.869,84.979h78.797L341.688,0.003v78.795C341.688,82.212,344.456,84.979,347.869,84.979z"/>
<path style="fill:#2C3B4D;" d="M295.388,214.983l-24.137-24.136c-3.017-3.016-7.91-3.017-10.926,0.001
	c-3.017,3.017-3.017,7.91,0,10.926l24.137,24.136c1.508,1.508,3.486,2.262,5.463,2.262c1.977,0,3.955-0.754,5.463-2.263
	C298.406,222.893,298.406,218,295.388,214.983z"/>
<path style="fill:#04A1EE;" d="M394.167,309.293l-15.395,15.395c-2.414,2.414-6.327,2.414-8.741,0l-87.803-87.803
	c-2.414-2.414-2.414-6.327,0-8.741l15.395-15.395c2.414-2.414,6.327-2.414,8.741,0l87.803,87.803
	C396.581,302.965,396.581,306.879,394.167,309.293z"/>
<circle style="fill:#3B4F66;" cx="205.449" cy="135.973" r="85.33"/>
<circle style="fill:#04A1EE;" cx="205.449" cy="135.973" r="51.198"/>
<polygon style="fill:#0084CE;" points="314.633,221.018 314.632,221.018 290.496,245.154 290.496,245.154 301.423,256.081 
	325.559,231.946 325.56,231.945 "/>
<g>
</g>
<g>
</g>
<g>
</g>
<g>
</g>
<g>
</g>
<g>
</g>
<g>
</g>
<g>
</g>
<g>
</g>
<g>
</g>
<g>
</g>
<g>
</g>
<g>
</g>
<g>
</g>
<g>
</g>
</svg>
