<?xml version="1.0" encoding="iso-8859-1"?>
<!-- Generator: Adobe Illustrator 19.0.0, SVG Export Plug-In . SVG Version: 6.00 Build 0)  -->
<svg version="1.1" id="Capa_1" xmlns="http://www.w3.org/2000/svg" xmlns:xlink="http://www.w3.org/1999/xlink" x="0px" y="0px"
	 viewBox="0 0 512 512" style="enable-background:new 0 0 512 512;" xml:space="preserve">
<path style="fill:#FCB043;" d="M494.932,170.663c9.426,0,17.068,7.642,17.068,17.068V494.93c0,9.426-7.642,17.068-17.068,17.068
	h-89.6H106.667h-89.6C7.641,511.998,0,504.356,0,494.93V187.731c0-9.426,7.641-17.068,17.067-17.068H494.932z"/>
<g>
	<path style="fill:#F7A12F;" d="M6.055,174.702L252.34,355.706c2.178,1.601,5.143,1.601,7.32,0l246.283-181.005
		c-2.973-2.515-6.812-4.038-11.012-4.038H17.067C12.868,170.663,9.029,172.187,6.055,174.702z"/>
	<path style="fill:#F7A12F;" d="M491.396,187.731V494.93c0,9.426-7.642,17.068-17.068,17.068h20.604
		c9.426,0,17.068-7.642,17.068-17.068V187.731c0-9.426-7.642-17.068-17.068-17.068h-20.604
		C483.754,170.663,491.396,178.305,491.396,187.731z"/>
</g>
<path style="fill:#EF9122;" d="M491.236,185.511l14.708-10.81l0,0c-0.286-0.242-0.587-0.467-0.889-0.69
	c-0.113-0.083-0.224-0.172-0.339-0.253c-0.273-0.192-0.556-0.369-0.841-0.545c-0.16-0.099-0.318-0.199-0.482-0.293
	c-0.267-0.152-0.54-0.295-0.815-0.434c-0.198-0.099-0.397-0.197-0.599-0.288c-0.26-0.118-0.523-0.23-0.789-0.336
	c-0.235-0.093-0.473-0.178-0.712-0.261c-0.249-0.087-0.5-0.171-0.754-0.245c-0.276-0.08-0.557-0.149-0.84-0.216
	c-0.232-0.056-0.463-0.114-0.698-0.16c-0.336-0.065-0.678-0.111-1.02-0.156c-0.194-0.026-0.384-0.06-0.58-0.079
	c-0.544-0.053-1.095-0.083-1.652-0.083H474.33C483,170.663,490.146,177.137,491.236,185.511z"/>
<path style="fill:#CAEBF9;" d="M113.285,477.866H40.314c-3.414,0-6.181-2.767-6.181-6.181v-72.971c0-3.414,2.767-6.181,6.181-6.181
	h72.971c3.414,0,6.181,2.767,6.181,6.181v72.971C119.466,475.099,116.698,477.866,113.285,477.866z"/>
<path style="fill:#04A1EE;" d="M87.686,452.268H65.913c-3.414,0-6.181-2.767-6.181-6.181v-21.773c0-3.414,2.767-6.181,6.181-6.181
	h21.773c3.414,0,6.181,2.767,6.181,6.181v21.773C93.867,449.5,91.1,452.268,87.686,452.268z"/>
<g>
	<path style="fill:#3B4F66;" d="M204.799,401.873h-51.2c-4.267,0-7.726,3.459-7.726,7.726c0,4.267,3.459,7.726,7.726,7.726h51.2
		c4.267,0,7.726-3.459,7.726-7.726C212.525,405.332,209.066,401.873,204.799,401.873z"/>
	<path style="fill:#3B4F66;" d="M204.799,436.009h-51.198c-4.267,0-7.726,3.459-7.726,7.726c0,4.267,3.459,7.726,7.726,7.726h51.198
		c4.267,0,7.726-3.459,7.726-7.726C212.525,439.468,209.066,436.009,204.799,436.009z"/>
	<path style="fill:#3B4F66;" d="M256,436.009h-25.6c-4.267,0-7.726,3.459-7.726,7.726c0,4.267,3.459,7.726,7.726,7.726H256
		c4.267,0,7.726-3.459,7.726-7.726C263.726,439.468,260.267,436.009,256,436.009z"/>
</g>
<path style="fill:#2C931D;" d="M443.733,220.423v-66.822H68.267v66.823L252.34,355.706c2.178,1.601,5.143,1.601,7.32,0
	L443.733,220.423z"/>
<path style="fill:#54CC4E;" d="M443.732,170.67c0,9.426-7.642,17.068-17.068,17.068H85.333c-9.426,0-17.067-7.642-17.067-17.068
	V17.07c0-9.426,7.642-17.068,17.067-17.068h341.331c9.426,0,17.068,7.642,17.068,17.068V170.67z"/>
<path style="fill:#A1E291;" d="M412.857,128.381c-14.649,2.128-26.218,13.851-28.464,28.538c-0.459,3.006-3.057,5.218-6.098,5.218
	H133.735c-3.069,0-5.673-2.253-6.109-5.291c-2.1-14.655-13.863-26.343-28.491-28.466c-3.029-0.44-5.269-3.045-5.269-6.106V65.438
	c0-3.04,2.211-5.636,5.216-6.097c14.675-2.25,26.272-13.847,28.523-28.522c0.46-3.005,3.058-5.217,6.098-5.216l244.569,0.023
	c3.053-0.012,5.664,2.207,6.123,5.225c2.253,14.817,13.851,26.278,28.528,28.497c3.004,0.454,5.211,3.059,5.211,6.097v56.832
	C418.133,125.338,415.889,127.941,412.857,128.381z"/>
<circle style="fill:#54CC4E;" cx="256" cy="93.87" r="34.13"/>
<g>
	<polygon style="fill:#237517;" points="419.642,238.128 440.667,222.676 71.332,222.676 92.358,238.128 	"/>
	<polygon style="fill:#237517;" points="361.591,280.792 382.616,265.34 129.383,265.34 150.408,280.792 	"/>
	<polygon style="fill:#237517;" points="324.565,308.005 187.434,308.005 208.46,323.457 303.539,323.457 	"/>
</g>
<g>
</g>
<g>
</g>
<g>
</g>
<g>
</g>
<g>
</g>
<g>
</g>
<g>
</g>
<g>
</g>
<g>
</g>
<g>
</g>
<g>
</g>
<g>
</g>
<g>
</g>
<g>
</g>
<g>
</g>
</svg>
