<?xml version="1.0" encoding="iso-8859-1"?>
<!-- Generator: Adobe Illustrator 19.0.0, SVG Export Plug-In . SVG Version: 6.00 Build 0)  -->
<svg version="1.1" id="Capa_1" xmlns="http://www.w3.org/2000/svg" xmlns:xlink="http://www.w3.org/1999/xlink" x="0px" y="0px"
	 viewBox="0 0 512 512" style="enable-background:new 0 0 512 512;" xml:space="preserve">
<path style="fill:#CAEBF9;" d="M273.07,421.513v84.306c0,3.414-2.767,6.181-6.181,6.181h-21.771c-3.414,0-6.181-2.767-6.181-6.181
	v-84.306H273.07z"/>
<rect x="238.931" y="421.509" style="fill:#BCCED5;" width="34.13" height="25.755"/>
<path style="fill:#3B4F66;" d="M307.202,387.379v33.103c0,3.414-2.767,6.181-6.181,6.181h-90.038c-3.414,0-6.181-2.767-6.181-6.181
	v-33.103H307.202z"/>
<path style="fill:#2C3B4D;" d="M286.598,387.379v33.103c0,3.414-2.767,6.181-6.181,6.181h20.604c3.414,0,6.181-2.767,6.181-6.181
	v-33.103H286.598z"/>
<path style="fill:#E94141;" d="M401.069,375.466c0,9.426-7.641,17.068-17.067,17.068H128.003c-9.426,0-17.067-7.642-17.067-17.068
	V17.067C110.936,7.641,118.576,0,128.003,0H384c9.426,0,17.067,7.642,17.067,17.067v358.399H401.069z"/>
<path style="fill:#3B4F66;" d="M335.153,85.333H176.85c-3.414,0-6.181-2.767-6.181-6.181V57.381c0-3.414,2.767-6.181,6.181-6.181
	h158.304c3.414,0,6.181,2.767,6.181,6.181v21.771C341.335,82.566,338.567,85.333,335.153,85.333z"/>
<path style="fill:#FCB043;" d="M358.402,43.473h-204.8c-4.268,0-7.726,3.458-7.726,7.726s3.458,7.726,7.726,7.726h204.8
	c4.268,0,7.726-3.458,7.726-7.726S362.67,43.473,358.402,43.473z"/>
<path style="fill:#CAEBF9;" d="M335.153,341.332H176.85c-3.414,0-6.181-2.767-6.181-6.181V176.847c0-3.414,2.767-6.181,6.181-6.181
	h158.304c3.414,0,6.181,2.767,6.181,6.181v158.304C341.335,338.565,338.567,341.332,335.153,341.332z"/>
<path style="fill:#BCCED5;" d="M335.153,170.666H314.55c3.414,0,6.181,2.767,6.181,6.181v158.304c0,3.414-2.767,6.181-6.181,6.181
	h20.604c3.414,0,6.181-2.767,6.181-6.181V176.847C341.335,173.433,338.567,170.666,335.153,170.666z"/>
<path style="fill:#FCB043;" d="M213.335,308.005h-17.067c-4.268,0-7.726,3.458-7.726,7.726c0,4.268,3.458,7.726,7.726,7.726h17.067
	c4.268,0,7.726-3.458,7.726-7.726C221.061,311.464,217.603,308.005,213.335,308.005z"/>
<g>
	<path style="fill:#3B4F66;" d="M213.335,211.992h85.334c4.268,0,7.726-3.458,7.726-7.726s-3.458-7.726-7.726-7.726h-85.334
		c-4.268,0-7.726,3.458-7.726,7.726C205.608,208.533,209.066,211.992,213.335,211.992z"/>
	<path style="fill:#3B4F66;" d="M298.669,231.206h-85.334c-4.268,0-7.726,3.458-7.726,7.726c0,4.268,3.458,7.726,7.726,7.726h85.334
		c4.268,0,7.726-3.458,7.726-7.726C306.395,234.664,302.937,231.206,298.669,231.206z"/>
	<path style="fill:#3B4F66;" d="M298.669,265.872h-85.334c-4.268,0-7.726,3.458-7.726,7.726c0,4.268,3.458,7.726,7.726,7.726h85.334
		c4.268,0,7.726-3.458,7.726-7.726C306.395,269.331,302.937,265.872,298.669,265.872z"/>
</g>
<g>
	<rect x="110.931" y="116.009" style="fill:#C62525;" width="290.13" height="15.453"/>
	<path style="fill:#C62525;" d="M384,0h-20.604c9.426,0,17.068,7.642,17.068,17.067v358.398c0,9.426-7.642,17.068-17.068,17.068H384
		c9.426,0,17.068-7.642,17.068-17.068V17.067C401.069,7.642,393.427,0,384,0z"/>
</g>
<g>
</g>
<g>
</g>
<g>
</g>
<g>
</g>
<g>
</g>
<g>
</g>
<g>
</g>
<g>
</g>
<g>
</g>
<g>
</g>
<g>
</g>
<g>
</g>
<g>
</g>
<g>
</g>
<g>
</g>
</svg>
